# Blender v3.1.2 OBJ File: 'basics.blend'
# www.blender.org
mtllib large_test_torus_inwall.mtl
o Cube.001_Cube
v -1.395356 0.015908 -4.799317
v -1.090583 0.015908 0.043178
v -6.678077 0.015908 14.672254
v -1.429219 0.015908 4.851809
v -8.540575 0.015908 15.010890
v -2.648309 0.015908 9.287941
v -9.996711 0.015908 15.044754
v -4.646261 0.015908 12.809755
v -2.749900 0.015908 -10.319084
v -4.849443 0.015908 -13.332945
v -7.016714 0.015908 -14.924534
v -9.251712 0.015908 -15.398624
v -11.723755 0.015908 -14.145671
v -13.789434 0.015908 -11.470447
v -15.008525 0.015908 -8.625904
v -15.990570 0.015908 -4.494545
v -16.261478 0.015908 -1.311366
v -16.261478 0.015908 2.921584
v -15.550343 0.015908 6.748172
v -14.331253 0.015908 10.202259
v -12.367165 0.015908 13.656346
v -1.395356 1.991285 -4.799317
v -1.090583 1.991285 0.043178
v -6.678077 1.991285 14.672254
v -1.429219 1.991285 4.851809
v -8.540575 1.991285 15.010890
v -2.648309 1.991285 9.287941
v -9.996711 1.991285 15.044754
v -4.646261 1.991285 12.809755
v -2.749900 1.991285 -10.319084
v -4.849443 1.991285 -13.332945
v -7.016714 1.991285 -14.924534
v -9.251712 1.991285 -15.398624
v -11.723755 1.991285 -14.145671
v -13.789434 1.991285 -11.470447
v -15.008525 1.991285 -8.625904
v -15.990570 1.991285 -4.494545
v -16.261478 1.991285 -1.311366
v -16.261478 1.991285 2.921584
v -15.550343 1.991285 6.748172
v -14.331253 1.991285 10.202259
v -12.367165 1.991285 13.656346
vt 0.000000 0.000000
vt 0.000000 0.000000
vt 0.000000 0.000000
vt 0.000000 0.000000
vt 0.000000 0.000000
vt 0.000000 0.000000
vt 0.000000 0.000000
vt 0.000000 0.000000
vt 0.000000 0.000000
vt 0.000000 0.000000
vt 0.000000 0.000000
vt 0.000000 0.000000
vt 0.000000 0.000000
vt 0.000000 0.000000
vt 0.000000 0.000000
vt 0.000000 0.000000
vt 0.000000 0.000000
vt 0.000000 0.000000
vt 0.000000 0.000000
vt 0.000000 0.000000
vt 0.000000 0.000000
vt 0.000000 0.000000
vt 0.000000 0.000000
vt 0.000000 0.000000
vt 0.000000 0.000000
vt 0.000000 0.000000
vt 0.000000 0.000000
vt 0.000000 0.000000
vt 0.000000 0.000000
vt 0.000000 0.000000
vt 0.000000 0.000000
vt 0.000000 0.000000
vt 0.000000 0.000000
vt 0.000000 0.000000
vt 0.000000 0.000000
vt 0.000000 0.000000
vt 0.000000 0.000000
vt 0.000000 0.000000
vt 0.000000 0.000000
vt 0.000000 0.000000
vt 0.000000 0.000000
vt 0.000000 0.000000
vn 0.9643 0.0000 0.2650
vn 0.0232 0.0000 0.9997
vn -0.9729 0.0000 -0.2313
vn -0.9964 0.0000 -0.0848
vn 0.2075 0.0000 -0.9782
vn -0.4521 0.0000 -0.8920
vn -1.0000 0.0000 0.0000
vn 0.8698 0.0000 0.4934
vn 0.8205 0.0000 -0.5716
vn -0.9832 0.0000 0.1827
vn 0.5919 0.0000 -0.8060
vn 0.9980 0.0000 -0.0628
vn -0.9430 0.0000 0.3328
vn 0.9712 0.0000 -0.2383
vn 0.1789 0.0000 0.9839
vn -0.8693 0.0000 0.4943
vn -0.7915 0.0000 -0.6112
vn 0.9975 0.0000 0.0702
vn -0.9191 0.0000 -0.3939
vn 0.6757 0.0000 0.7372
vn -0.5054 0.0000 0.8629
usemtl None
s off
f 4/1/1 27/2/1 6/3/1
f 5/4/2 28/5/2 7/6/2
f 16/7/3 36/8/3 15/9/3
f 17/10/4 37/11/4 16/7/4
f 12/12/5 32/13/5 11/14/5
f 13/15/6 33/16/6 12/12/6
f 18/17/7 38/18/7 17/10/7
f 6/3/8 29/19/8 8/20/8
f 10/21/9 30/22/9 9/23/9
f 19/24/10 39/25/10 18/17/10
f 11/14/11 31/26/11 10/21/11
f 1/27/12 23/28/12 2/29/12
f 20/30/13 40/31/13 19/24/13
f 9/23/14 22/32/14 1/27/14
f 3/33/15 26/34/15 5/4/15
f 21/35/16 41/36/16 20/30/16
f 14/37/17 34/38/17 13/15/17
f 2/29/18 25/39/18 4/1/18
f 15/9/19 35/40/19 14/37/19
f 8/20/20 24/41/20 3/33/20
f 7/6/21 42/42/21 21/35/21
f 4/1/1 25/39/1 27/2/1
f 5/4/2 26/34/2 28/5/2
f 16/7/3 37/11/3 36/8/3
f 17/10/4 38/18/4 37/11/4
f 12/12/5 33/16/5 32/13/5
f 13/15/6 34/38/6 33/16/6
f 18/17/7 39/25/7 38/18/7
f 6/3/8 27/2/8 29/19/8
f 10/21/9 31/26/9 30/22/9
f 19/24/10 40/31/10 39/25/10
f 11/14/11 32/13/11 31/26/11
f 1/27/12 22/32/12 23/28/12
f 20/30/13 41/36/13 40/31/13
f 9/23/14 30/22/14 22/32/14
f 3/33/15 24/41/15 26/34/15
f 21/35/16 42/42/16 41/36/16
f 14/37/17 35/40/17 34/38/17
f 2/29/18 23/28/18 25/39/18
f 15/9/19 36/8/19 35/40/19
f 8/20/20 29/19/20 24/41/20
f 7/6/21 28/5/21 42/42/21
