# Blender 3.4.1
# www.blender.org
o inner_wall
v 1.500000 4.000000 -50.000000
v 1.500000 0.000000 -50.000000
v -1.500000 4.000000 -50.000000
v -1.500000 0.000000 -50.000000
v -1.500000 4.000000 -50.000000
v -1.500000 0.000000 -50.000000
v 1.500000 4.000000 -50.000000
v 1.500000 0.000000 -50.000000
v 1.500000 4.000000 50.000000
v 1.500000 0.000000 50.000000
v -1.500000 4.000000 50.000000
v -1.500000 0.000000 50.000000
v -1.500000 4.000000 50.000000
v -1.500000 0.000000 50.000000
v 1.500000 4.000000 50.000000
v 1.500000 0.000000 50.000000
vn 1.0000 -0.0000 -0.0000
vn -0.0000 -0.0000 -1.0000
vn -0.0000 -0.0000 1.0000
vn -1.0000 -0.0000 -0.0000
s 0
f 7//1 15//1 16//1 8//1
f 5//2 7//2 8//2 6//2
f 13//3 14//3 16//3 15//3
f 5//4 6//4 14//4 13//4
l 2 1
l 4 3
l 10 9
l 12 11
