# Blender v3.4.1 OBJ File: 'level-track.blend'
# www.blender.org
mtllib Ramp001.mtl
o Ramp001_Cube.009
v 92.159546 88.900047 151.628052
v 92.642197 92.929291 150.783264
v 85.033394 92.049515 162.578201
v 80.918129 88.723442 144.363144
v 81.400780 92.752686 143.518356
v 73.791977 91.872910 155.313293
vt 0.375000 0.750000
vt 0.375000 0.500000
vt 0.625000 0.750000
vt 0.125000 0.500000
vt 0.375000 1.000000
vt 0.625000 1.000000
vt 0.125000 0.750000
vn -0.8398 -0.0132 -0.5427
vn 0.8398 0.0132 0.5427
vn -0.0450 0.9980 0.0454
vn 0.5303 -0.2344 -0.8148
vn -0.1164 -0.9721 0.2038
usemtl None
s off
f 4/1/1 6/2/1 5/3/1
f 3/4/2 1/5/2 2/6/2
f 3/4/3 2/6/3 5/3/3 6/2/3
f 4/1/4 5/3/4 2/6/4 1/5/4
f 3/4/5 6/2/5 4/1/5 1/7/5
