# Blender 3.4.1
# www.blender.org
mtllib pillar-2.mtl
o DemoPillar
v 27.590504 -0.722148 -83.470154
v 27.813368 -0.655714 -85.456581
v 28.173918 -0.531271 -83.398308
v 28.396782 -0.464836 -85.384743
v 28.533072 -0.031547 -83.341301
v 28.755936 0.034888 -85.327736
v 28.530783 0.586147 -83.320900
v 28.753647 0.652581 -85.307335
v 28.167925 1.085871 -83.344902
v 28.390789 1.152305 -85.331329
v 27.583096 1.276748 -83.404129
v 27.805962 1.343183 -85.390564
v 26.999683 1.085871 -83.475967
v 27.222548 1.152305 -85.462402
v 26.640530 0.586147 -83.532974
v 26.863394 0.652581 -85.519409
v 26.642818 -0.031547 -83.553375
v 26.865683 0.034888 -85.539810
v 27.005676 -0.531271 -83.529381
v 27.228540 -0.464836 -85.515816
v 28.452497 -0.448228 -85.881355
v 27.869085 -0.639105 -85.953194
v 28.811653 0.051496 -85.824348
v 28.809364 0.669190 -85.803940
v 28.446507 1.168914 -85.827942
v 27.861677 1.359791 -85.887169
v 27.278265 1.168914 -85.959007
v 26.919109 0.669190 -86.016014
v 26.921398 0.051496 -86.036423
v 27.284256 -0.448228 -86.012421
v 29.698330 -0.076855 -96.985649
v 29.114916 -0.267732 -97.057487
v 30.057484 0.422869 -96.928642
v 30.055195 1.040563 -96.908241
v 29.692337 1.540287 -96.932236
v 29.107508 1.731164 -96.991470
v 28.524096 1.540287 -97.063309
v 28.164942 1.040563 -97.120316
v 28.167231 0.422869 -97.140717
v 28.530088 -0.076855 -97.116714
v 29.976152 -0.375304 -97.418396
v 29.166592 -0.640172 -97.518082
v 30.474525 0.318127 -97.339294
v 30.471350 1.175258 -97.310982
v 29.967838 1.868689 -97.344284
v 29.156313 2.133557 -97.426468
v 28.346752 1.868689 -97.526154
v 27.848379 1.175258 -97.605263
v 27.851555 0.318127 -97.633575
v 28.355068 -0.375304 -97.600273
v 30.299568 -0.361431 -99.858673
v 29.441051 -0.642316 -99.964386
v 30.828079 0.373934 -99.774780
v 30.824711 1.282894 -99.744759
v 30.290751 2.018259 -99.780075
v 29.430153 2.299145 -99.867233
v 28.571634 2.018259 -99.972946
v 28.043123 1.282894 -100.056839
v 28.046492 0.373934 -100.086853
v 28.580452 -0.361431 -100.051544
v 30.562065 1.200299 -98.741013
v 30.084988 1.857320 -98.772568
v 29.325811 -0.519813 -98.937241
v 30.092867 -0.268849 -98.842789
v 28.076813 1.200299 -99.019844
v 28.079823 0.388171 -99.046669
v 29.316074 2.108284 -98.850441
v 30.565073 0.388171 -98.767838
v 28.556898 -0.268849 -99.015121
v 28.549019 1.857320 -98.944893
v 28.456661 1.684184 -97.341270
v 28.037622 1.101139 -97.407784
v 30.243052 1.101139 -97.160347
v 29.819691 1.684184 -97.188347
v 29.145992 -0.425297 -97.334480
v 29.826683 -0.202592 -97.250664
v 28.040293 0.380452 -97.431587
v 29.137350 1.906888 -97.257454
v 30.245722 0.380452 -97.184151
v 28.463652 -0.202592 -97.403587
v 30.897243 1.308488 -99.157501
v 29.377586 -0.805949 -99.398712
v 27.842260 1.308488 -99.500252
v 30.310801 2.116129 -99.196289
v 30.320484 -0.497457 -99.282608
v 27.845961 0.310184 -99.533226
v 29.365616 2.424621 -99.292015
v 30.900942 0.310184 -99.190475
v 28.432402 -0.497457 -99.494446
v 28.422716 2.116129 -99.408119
v 28.403618 1.521340 -90.717567
v 27.820206 1.330462 -90.789406
v 29.353592 0.213045 -90.654739
v 29.351303 0.830738 -90.634338
v 27.826197 -0.286679 -90.842819
v 28.411024 -0.477557 -90.783592
v 27.461050 0.830738 -90.846413
v 28.988445 1.330462 -90.658340
v 28.994438 -0.286679 -90.711754
v 27.463339 0.213045 -90.866821
v 28.573782 1.572064 -92.234268
v 29.523756 0.263769 -92.171448
v 27.996361 -0.235955 -92.359520
v 27.990370 1.381187 -92.306114
v 29.521467 0.881463 -92.151047
v 28.581188 -0.426832 -92.300293
v 27.631214 0.881463 -92.363121
v 29.158609 1.381187 -92.175041
v 29.164602 -0.235955 -92.228455
v 27.633503 0.263769 -92.383522
vn 0.3106 -0.9505 0.0031
vn 0.8062 -0.5875 0.0708
vn 0.9938 -0.0000 0.1115
vn 0.8018 0.5875 0.1096
vn 0.3036 0.9505 0.0658
vn -0.3106 0.9505 -0.0031
vn -0.8062 0.5875 -0.0708
vn -0.9938 -0.0000 -0.1115
vn -0.8018 -0.5875 -0.1096
vn -0.3036 -0.9505 -0.0658
vn -0.1114 -0.0332 0.9932
vn -0.6054 0.3538 0.7129
vn -0.8061 0.5875 -0.0708
vn 0.8057 0.5790 -0.1247
vn 0.4324 0.3538 0.8294
vn 0.1154 -0.6389 0.7606
vn -0.7265 -0.0254 0.6867
vn 0.1108 0.5881 0.8011
vn 0.4352 -0.4045 0.8043
vn -0.6026 -0.4045 0.6879
vn -0.2856 0.5881 0.7567
vn 0.5563 -0.0254 0.8306
vn -0.2810 -0.6389 0.7161
vn 0.1114 0.0332 -0.9932
vn 0.3280 -0.9167 -0.2284
vn -0.9405 0.0077 -0.3398
vn 0.3212 0.9321 -0.1673
vn 0.8099 -0.5636 -0.1625
vn -0.7538 -0.5636 -0.3379
vn -0.2761 0.9321 -0.2343
vn 0.9924 0.0077 -0.1229
vn -0.2693 -0.9167 -0.2954
vn -0.7580 0.5790 -0.3002
vn -0.7998 0.5884 -0.1187
vn -0.2978 -0.9478 -0.1138
vn 0.9980 0.0016 0.0633
vn -0.3049 0.9510 -0.0511
vn -0.7955 -0.5852 -0.1575
vn 0.8106 -0.5852 0.0227
vn 0.3086 0.9510 0.0177
vn -0.9872 0.0016 -0.1594
vn 0.3156 -0.9478 -0.0450
vn 0.8062 0.5884 0.0614
vn -0.3185 -0.8389 0.4414
vn 0.8037 -0.0167 0.5948
vn -0.3246 0.8055 0.4958
vn -0.7495 -0.5248 0.4036
vn 0.6414 -0.5248 0.5596
vn 0.2067 0.8055 0.5554
vn -0.9155 -0.0167 0.4020
vn 0.2128 -0.8389 0.5010
vn 0.6376 0.4915 0.5932
vn -0.7532 0.4915 0.4372
vn -0.7413 0.4792 0.4699
vn -0.3162 -0.8218 0.4741
vn 0.7812 -0.0177 0.6241
vn -0.3222 0.7863 0.5272
vn -0.7377 -0.5146 0.4370
vn 0.6225 -0.5146 0.5896
vn 0.1973 0.7863 0.5855
vn -0.9000 -0.0177 0.4354
vn 0.2033 -0.8218 0.5323
vn 0.6188 0.4792 0.6225
vt 1.000000 0.500000
vt -0.000000 0.500000
vt 0.750000 0.490000
vt 1.000000 1.000000
vt -0.000000 1.000000
vt 0.900000 0.500000
vt 0.891068 0.444164
vt 0.900000 1.000000
vt 0.800000 0.500000
vt 0.978254 0.324164
vt 0.800000 1.000000
vt 0.700000 0.500000
vt 0.978254 0.175836
vt 0.700000 1.000000
vt 0.600000 0.500000
vt 0.891068 0.055836
vt 0.600000 1.000000
vt 0.500000 0.500000
vt 0.750000 0.010000
vt 0.500000 1.000000
vt 0.400000 0.500000
vt 0.608932 0.055836
vt 0.400000 1.000000
vt 0.300000 0.500000
vt 0.521746 0.175836
vt 0.300000 1.000000
vt 0.200000 0.500000
vt 0.521746 0.324164
vt 0.200000 1.000000
vt 0.100000 0.500000
vt 0.608932 0.444164
vt 0.100000 1.000000
vt 0.900000 1.000000
vt 1.000000 1.000000
vt -0.000000 1.000000
vt 0.800000 1.000000
vt 0.700000 1.000000
vt 0.600000 1.000000
vt 0.500000 1.000000
vt 0.400000 1.000000
vt 0.300000 1.000000
vt 0.200000 1.000000
vt 0.100000 1.000000
vt 0.900000 1.000000
vt -0.000000 1.000000
vt 1.000000 1.000000
vt 0.800000 1.000000
vt 0.700000 1.000000
vt 0.600000 1.000000
vt 0.500000 1.000000
vt 0.400000 1.000000
vt 0.300000 1.000000
vt 0.200000 1.000000
vt 0.100000 1.000000
vt 0.900000 1.000000
vt -0.000000 1.000000
vt 1.000000 1.000000
vt 0.800000 1.000000
vt 0.700000 1.000000
vt 0.600000 1.000000
vt 0.500000 1.000000
vt 0.400000 1.000000
vt 0.300000 1.000000
vt 0.200000 1.000000
vt 0.100000 1.000000
vt 0.391068 0.444164
vt 0.900000 1.000000
vt 0.250000 0.490000
vt 1.000000 1.000000
vt -0.000000 1.000000
vt 0.478254 0.324164
vt 0.800000 1.000000
vt 0.478254 0.175836
vt 0.700000 1.000000
vt 0.391068 0.055836
vt 0.600000 1.000000
vt 0.250000 0.010000
vt 0.500000 1.000000
vt 0.108932 0.055836
vt 0.400000 1.000000
vt 0.021746 0.175836
vt 0.300000 1.000000
vt 0.021746 0.324164
vt 0.200000 1.000000
vt 0.108932 0.444164
vt 0.100000 1.000000
vt 0.700000 1.000000
vt 0.600000 1.000000
vt -0.000000 1.000000
vt 1.000000 1.000000
vt 0.900000 1.000000
vt 0.300000 1.000000
vt 0.200000 1.000000
vt 0.500000 1.000000
vt 0.800000 1.000000
vt 0.100000 1.000000
vt 0.400000 1.000000
vt 0.400000 1.000000
vt 0.300000 1.000000
vt 0.700000 1.000000
vt 0.600000 1.000000
vt -0.000000 1.000000
vt 1.000000 1.000000
vt 0.900000 1.000000
vt 0.200000 1.000000
vt 0.500000 1.000000
vt 0.800000 1.000000
vt 0.100000 1.000000
vt 0.700000 1.000000
vt -0.000000 1.000000
vt 1.000000 1.000000
vt 0.300000 1.000000
vt 0.600000 1.000000
vt 0.900000 1.000000
vt 0.200000 1.000000
vt 0.500000 1.000000
vt 0.800000 1.000000
vt 0.100000 1.000000
vt 0.400000 1.000000
vt 0.500000 1.000000
vt 0.400000 1.000000
vt 0.800000 1.000000
vt 0.700000 1.000000
vt 0.100000 1.000000
vt 1.000000 1.000000
vt -0.000000 1.000000
vt 0.300000 1.000000
vt 0.600000 1.000000
vt 0.900000 1.000000
vt 0.200000 1.000000
vt 0.500000 1.000000
vt 0.800000 1.000000
vt 0.100000 1.000000
vt 0.400000 1.000000
vt 0.700000 1.000000
vt 1.000000 1.000000
vt -0.000000 1.000000
vt 0.300000 1.000000
vt 0.600000 1.000000
vt 0.900000 1.000000
vt 0.200000 1.000000
s 0
usemtl Material.003
f 1/1/1 2/4/1 4/8/1 3/6/1
f 3/6/2 4/8/2 6/11/2 5/9/2
f 5/9/3 6/11/3 8/14/3 7/12/3
f 7/12/4 8/14/4 10/17/4 9/15/4
f 9/15/5 10/17/5 12/20/5 11/18/5
f 11/18/6 12/20/6 14/23/6 13/21/6
f 13/21/7 14/23/7 16/26/7 15/24/7
f 15/24/8 16/26/8 18/29/8 17/27/8
f 4/8/1 2/4/1 22/34/1 21/33/1
f 17/27/9 18/29/9 20/32/9 19/30/9
f 19/30/10 20/32/10 2/5/10 1/2/10
f 1/3/11 3/7/11 5/10/11 7/13/11 9/16/11 11/19/11 13/22/11 15/25/11 17/28/11 19/31/11
f 104/134/6 101/131/6 36/50/6 37/51/6
f 8/14/3 6/11/3 23/36/3 24/37/3
f 6/11/2 4/8/2 21/33/2 23/36/2
f 2/5/10 20/32/10 30/43/10 22/35/10
f 20/32/9 18/29/9 29/42/9 30/43/9
f 18/29/8 16/26/8 28/41/8 29/42/8
f 16/26/7 14/23/7 27/40/7 28/41/7
f 14/23/6 12/20/6 26/39/6 27/40/6
f 12/20/5 10/17/5 25/38/5 26/39/5
f 10/17/4 8/14/4 24/37/4 25/38/4
f 72/99/12 71/98/12 47/62/12 48/63/12
f 105/135/3 102/132/3 33/47/3 34/48/3
f 106/137/10 103/133/10 40/54/10 32/45/10
f 107/138/13 104/134/13 37/51/13 38/52/13
f 108/139/4 105/135/4 34/48/4 35/49/4
f 109/140/1 106/136/1 32/46/1 31/44/1
f 110/141/8 107/138/8 38/52/8 39/53/8
f 101/131/5 108/139/5 35/49/5 36/50/5
f 102/132/2 109/140/2 31/44/2 33/47/2
f 103/133/9 110/141/9 39/53/9 40/54/9
f 84/113/14 81/109/14 54/74/14 55/76/14
f 74/101/15 73/100/15 44/59/15 45/60/15
f 76/104/16 75/103/16 42/57/16 41/55/16
f 77/105/17 72/99/17 48/63/17 49/64/17
f 78/106/18 74/101/18 45/60/18 46/61/18
f 79/107/19 76/104/19 41/55/19 43/58/19
f 80/108/20 77/105/20 49/64/20 50/65/20
f 71/98/21 78/106/21 46/61/21 47/62/21
f 73/100/22 79/107/22 43/58/22 44/59/22
f 75/102/23 80/108/23 50/65/23 42/56/23
f 51/66/24 52/68/24 60/85/24 59/83/24 58/81/24 57/79/24 56/77/24 55/75/24 54/73/24 53/71/24
f 85/114/25 82/111/25 52/69/25 51/67/25
f 86/115/26 83/112/26 58/82/26 59/84/26
f 87/116/27 84/113/27 55/76/27 56/78/27
f 88/117/28 85/114/28 51/67/28 53/72/28
f 89/118/29 86/115/29 59/84/29 60/86/29
f 90/119/30 87/116/30 56/78/30 57/80/30
f 81/109/31 88/117/31 53/72/31 54/74/31
f 82/110/32 89/118/32 60/86/32 52/70/32
f 83/112/33 90/119/33 57/80/33 58/82/33
f 48/63/34 47/62/34 70/97/34 65/92/34
f 42/56/35 50/65/35 69/96/35 63/89/35
f 44/59/36 43/58/36 68/95/36 61/87/36
f 47/62/37 46/61/37 67/94/37 70/97/37
f 50/65/38 49/64/38 66/93/38 69/96/38
f 43/58/39 41/55/39 64/91/39 68/95/39
f 46/61/40 45/60/40 62/88/40 67/94/40
f 49/64/41 48/63/41 65/92/41 66/93/41
f 41/55/42 42/57/42 63/90/42 64/91/42
f 45/60/43 44/59/43 61/87/43 62/88/43
f 32/45/44 40/54/44 80/108/44 75/102/44
f 34/48/45 33/47/45 79/107/45 73/100/45
f 37/51/46 36/50/46 78/106/46 71/98/46
f 40/54/47 39/53/47 77/105/47 80/108/47
f 33/47/48 31/44/48 76/104/48 79/107/48
f 36/50/49 35/49/49 74/101/49 78/106/49
f 39/53/50 38/52/50 72/99/50 77/105/50
f 31/44/51 32/46/51 75/103/51 76/104/51
f 35/49/52 34/48/52 73/100/52 74/101/52
f 38/52/53 37/51/53 71/98/53 72/99/53
f 65/92/54 70/97/54 90/119/54 83/112/54
f 63/89/55 69/96/55 89/118/55 82/110/55
f 61/87/56 68/95/56 88/117/56 81/109/56
f 70/97/57 67/94/57 87/116/57 90/119/57
f 69/96/58 66/93/58 86/115/58 89/118/58
f 68/95/59 64/91/59 85/114/59 88/117/59
f 67/94/60 62/88/60 84/113/60 87/116/60
f 66/93/61 65/92/61 83/112/61 86/115/61
f 64/91/62 63/90/62 82/111/62 85/114/62
f 62/88/63 61/87/63 81/109/63 84/113/63
f 30/43/9 29/42/9 100/130/9 95/124/9
f 23/36/2 21/33/2 99/129/2 93/122/2
f 26/39/5 25/38/5 98/128/5 91/120/5
f 29/42/8 28/41/8 97/127/8 100/130/8
f 21/33/1 22/34/1 96/125/1 99/129/1
f 25/38/4 24/37/4 94/123/4 98/128/4
f 28/41/13 27/40/13 92/121/13 97/127/13
f 22/35/10 30/43/10 95/124/10 96/126/10
f 24/37/3 23/36/3 93/122/3 94/123/3
f 27/40/6 26/39/6 91/120/6 92/121/6
f 95/124/9 100/130/9 110/141/9 103/133/9
f 93/122/2 99/129/2 109/140/2 102/132/2
f 91/120/5 98/128/5 108/139/5 101/131/5
f 100/130/8 97/127/8 107/138/8 110/141/8
f 99/129/1 96/125/1 106/136/1 109/140/1
f 98/128/4 94/123/4 105/135/4 108/139/4
f 97/127/13 92/121/13 104/134/13 107/138/13
f 96/126/10 95/124/10 103/133/10 106/137/10
f 94/123/3 93/122/3 102/132/3 105/135/3
f 92/121/6 91/120/6 101/131/6 104/134/6
