# Blender 3.4.1
# www.blender.org
mtllib pillar-1.mtl
o DemoPillar.001
v 41.482471 -0.826459 -113.682701
v 40.998451 -0.756144 -111.743423
v 40.912792 -0.638748 -113.831688
v 40.428776 -0.568433 -111.892418
v 40.561977 -0.141011 -113.937294
v 40.077961 -0.070696 -111.998024
v 40.564026 0.476632 -113.959183
v 40.080006 0.546947 -112.019905
v 40.918148 0.978263 -113.888985
v 40.434132 1.048578 -111.949707
v 41.489090 1.172276 -113.753517
v 41.005074 1.242591 -111.814247
v 42.058769 0.984565 -113.604530
v 41.574749 1.054880 -111.665253
v 42.409584 0.486828 -113.498917
v 41.925564 0.557143 -111.559647
v 42.407539 -0.130815 -113.477036
v 41.923519 -0.060500 -111.537766
v 42.053413 -0.632446 -113.547234
v 41.569393 -0.562131 -111.607964
v 40.307770 -0.550854 -111.407600
v 40.877449 -0.738565 -111.258606
v 39.956955 -0.053117 -111.513206
v 39.959000 0.564526 -111.535088
v 40.313126 1.066157 -111.464890
v 40.884068 1.260170 -111.329430
v 41.453743 1.072458 -111.180435
v 41.804562 0.574722 -111.074829
v 41.802513 -0.042922 -111.052948
v 41.448391 -0.544552 -111.123138
v 37.602070 -0.157788 -100.566933
v 38.171749 -0.345499 -100.417938
v 37.251255 0.339948 -100.672539
v 37.253300 0.957592 -100.694420
v 37.607426 1.459223 -100.624222
v 38.178368 1.653235 -100.488754
v 38.748043 1.465524 -100.339767
v 39.098858 0.967788 -100.234161
v 39.096813 0.350144 -100.212280
v 38.742687 -0.151487 -100.282471
v 37.270851 -0.456559 -100.173790
v 38.061352 -0.717034 -99.967041
v 36.784050 0.234114 -100.320328
v 36.786888 1.091176 -100.350700
v 37.278282 1.787253 -100.253288
v 38.070538 2.056472 -100.065315
v 38.861038 1.795997 -99.858574
v 39.347839 1.105324 -99.712029
v 39.345001 0.248262 -99.681664
v 38.853607 -0.447815 -99.779068
v 36.627373 -0.438171 -97.797798
v 37.465675 -0.714397 -97.578552
v 36.111134 0.294269 -97.953201
v 36.114143 1.203156 -97.985405
v 36.635254 1.941327 -97.882111
v 37.475418 2.226826 -97.682770
v 38.313721 1.950600 -97.463516
v 38.829964 1.218159 -97.308113
v 38.826954 0.309273 -97.275909
v 38.305840 -0.428899 -97.379211
v 36.507664 1.119368 -98.945320
v 36.973259 1.778895 -98.853027
v 37.715210 -0.593903 -98.581810
v 36.966217 -0.347102 -98.777695
v 38.934151 1.132773 -98.340179
v 38.931461 0.320711 -98.311409
v 37.723915 2.033981 -98.674919
v 36.504974 0.307305 -98.916542
v 38.465870 -0.338817 -98.403702
v 38.472908 1.787180 -98.479027
v 38.777431 1.610466 -100.055786
v 39.186741 1.029740 -99.932571
v 37.033459 1.017844 -100.469574
v 37.446629 1.603114 -100.387672
v 38.105045 -0.502521 -100.146996
v 37.440380 -0.283510 -100.320824
v 39.184353 0.309112 -99.907036
v 38.112766 1.829477 -100.229622
v 37.031071 0.297216 -100.444038
v 38.771183 -0.276158 -99.988937
v 36.119820 1.226895 -98.577179
v 37.604195 -0.879132 -98.130333
v 39.102570 1.243373 -97.833313
v 36.692150 2.037617 -98.463730
v 36.683495 -0.575757 -98.371132
v 39.099266 0.245149 -97.797943
v 37.614891 2.351177 -98.244789
v 36.116516 0.228671 -98.541809
v 38.526936 -0.565573 -97.911400
v 38.535591 2.047801 -98.003998
v 39.707081 1.431154 -106.613708
v 40.276756 1.243443 -106.464714
v 38.779968 0.117867 -106.797485
v 38.782013 0.735511 -106.819366
v 40.271400 -0.373568 -106.407425
v 39.700462 -0.567581 -106.542885
v 40.627571 0.745706 -106.359108
v 39.136139 1.237142 -106.749176
v 39.130783 -0.379869 -106.691879
v 40.625526 0.128063 -106.337227
v 39.337517 1.484842 -105.133011
v 38.410404 0.171555 -105.316788
v 39.901836 -0.319880 -104.926727
v 39.907192 1.297131 -104.984024
v 38.412449 0.789198 -105.338676
v 39.330898 -0.513893 -105.062195
v 40.258011 0.799394 -104.878418
v 38.766575 1.290829 -105.268478
v 38.761219 -0.326182 -105.211182
v 40.255962 0.181751 -104.856529
vn -0.3030 -0.9521 -0.0411
vn -0.7869 -0.5917 -0.1749
vn -0.9703 -0.0054 -0.2420
vn -0.7830 0.5831 -0.2166
vn -0.2967 0.9488 -0.1085
vn 0.3030 0.9521 0.0411
vn 0.7869 0.5917 0.1749
vn 0.9703 0.0054 0.2420
vn 0.7830 -0.5831 0.2166
vn 0.2967 -0.9488 0.1085
vn 0.2420 -0.0352 -0.9696
vn 0.6927 0.3551 -0.6277
vn 0.7869 0.5918 0.1749
vn -0.8179 0.5752 0.0152
vn -0.3205 0.3495 -0.8804
vn -0.0107 -0.6414 -0.7672
vn 0.8111 -0.0234 -0.5845
vn -0.0066 0.5855 -0.8106
vn -0.3230 -0.4088 -0.8535
vn 0.6902 -0.4032 -0.6008
vn 0.3804 0.5877 -0.7141
vn -0.4414 -0.0303 -0.8968
vn 0.3763 -0.6392 -0.6706
vn -0.2420 0.0352 0.9696
vn -0.3510 -0.9177 0.1859
vn 0.8872 0.0134 0.4612
vn -0.3449 0.9309 0.1204
vn -0.8216 -0.5673 0.0557
vn 0.7051 -0.5589 0.4365
vn 0.2383 0.9341 0.2658
vn -1.0000 0.0030 -0.0095
vn 0.2322 -0.9145 0.3313
vn 0.7089 0.5837 0.3960
vn 0.7743 0.5928 0.2216
vn 0.2846 -0.9460 0.1552
vn -0.9808 -0.0037 -0.1948
vn 0.2909 0.9527 0.0879
vn 0.7704 -0.5807 0.2632
vn -0.7977 -0.5894 -0.1279
vn -0.3080 0.9494 -0.0614
vn 0.9574 0.0071 0.2886
vn -0.3143 -0.9493 0.0058
vn -0.7938 0.5841 -0.1694
vn 0.3781 -0.8383 -0.3928
vn -0.7178 -0.0223 -0.6959
vn 0.3835 0.8059 -0.4510
vn 0.7987 -0.5220 -0.2992
vn -0.5592 -0.5295 -0.6379
vn -0.1352 0.8031 -0.5804
vn 0.9607 -0.0130 -0.2773
vn -0.1406 -0.8412 -0.5221
vn -0.5559 0.4867 -0.6739
vn 0.8021 0.4942 -0.3352
vn 0.7947 0.4818 -0.3692
vn 0.3800 -0.8213 -0.4254
vn -0.6916 -0.0233 -0.7219
vn 0.3854 0.7866 -0.4824
vn 0.7914 -0.5120 -0.3340
vn -0.5365 -0.5193 -0.6652
vn -0.1219 0.7838 -0.6089
vn 0.9498 -0.0142 -0.3125
vn -0.1272 -0.8241 -0.5519
vn -0.5333 0.4745 -0.7004
vt 1.000000 0.500000
vt -0.000000 0.500000
vt 0.750000 0.490000
vt 1.000000 1.000000
vt -0.000000 1.000000
vt 0.900000 0.500000
vt 0.891068 0.444164
vt 0.900000 1.000000
vt 0.800000 0.500000
vt 0.978254 0.324164
vt 0.800000 1.000000
vt 0.700000 0.500000
vt 0.978254 0.175836
vt 0.700000 1.000000
vt 0.600000 0.500000
vt 0.891068 0.055836
vt 0.600000 1.000000
vt 0.500000 0.500000
vt 0.750000 0.010000
vt 0.500000 1.000000
vt 0.400000 0.500000
vt 0.608932 0.055836
vt 0.400000 1.000000
vt 0.300000 0.500000
vt 0.521746 0.175836
vt 0.300000 1.000000
vt 0.200000 0.500000
vt 0.521746 0.324164
vt 0.200000 1.000000
vt 0.100000 0.500000
vt 0.608932 0.444164
vt 0.100000 1.000000
vt 0.900000 1.000000
vt 1.000000 1.000000
vt -0.000000 1.000000
vt 0.800000 1.000000
vt 0.700000 1.000000
vt 0.600000 1.000000
vt 0.500000 1.000000
vt 0.400000 1.000000
vt 0.300000 1.000000
vt 0.200000 1.000000
vt 0.100000 1.000000
vt 0.900000 1.000000
vt -0.000000 1.000000
vt 1.000000 1.000000
vt 0.800000 1.000000
vt 0.700000 1.000000
vt 0.600000 1.000000
vt 0.500000 1.000000
vt 0.400000 1.000000
vt 0.300000 1.000000
vt 0.200000 1.000000
vt 0.100000 1.000000
vt 0.900000 1.000000
vt -0.000000 1.000000
vt 1.000000 1.000000
vt 0.800000 1.000000
vt 0.700000 1.000000
vt 0.600000 1.000000
vt 0.500000 1.000000
vt 0.400000 1.000000
vt 0.300000 1.000000
vt 0.200000 1.000000
vt 0.100000 1.000000
vt 0.391068 0.444164
vt 0.900000 1.000000
vt 0.250000 0.490000
vt 1.000000 1.000000
vt -0.000000 1.000000
vt 0.478254 0.324164
vt 0.800000 1.000000
vt 0.478254 0.175836
vt 0.700000 1.000000
vt 0.391068 0.055836
vt 0.600000 1.000000
vt 0.250000 0.010000
vt 0.500000 1.000000
vt 0.108932 0.055836
vt 0.400000 1.000000
vt 0.021746 0.175836
vt 0.300000 1.000000
vt 0.021746 0.324164
vt 0.200000 1.000000
vt 0.108932 0.444164
vt 0.100000 1.000000
vt 0.700000 1.000000
vt 0.600000 1.000000
vt -0.000000 1.000000
vt 1.000000 1.000000
vt 0.900000 1.000000
vt 0.300000 1.000000
vt 0.200000 1.000000
vt 0.500000 1.000000
vt 0.800000 1.000000
vt 0.100000 1.000000
vt 0.400000 1.000000
vt 0.400000 1.000000
vt 0.300000 1.000000
vt 0.700000 1.000000
vt 0.600000 1.000000
vt -0.000000 1.000000
vt 1.000000 1.000000
vt 0.900000 1.000000
vt 0.200000 1.000000
vt 0.500000 1.000000
vt 0.800000 1.000000
vt 0.100000 1.000000
vt 0.700000 1.000000
vt -0.000000 1.000000
vt 1.000000 1.000000
vt 0.300000 1.000000
vt 0.600000 1.000000
vt 0.900000 1.000000
vt 0.200000 1.000000
vt 0.500000 1.000000
vt 0.800000 1.000000
vt 0.100000 1.000000
vt 0.400000 1.000000
vt 0.500000 1.000000
vt 0.400000 1.000000
vt 0.800000 1.000000
vt 0.700000 1.000000
vt 0.100000 1.000000
vt 1.000000 1.000000
vt -0.000000 1.000000
vt 0.300000 1.000000
vt 0.600000 1.000000
vt 0.900000 1.000000
vt 0.200000 1.000000
vt 0.500000 1.000000
vt 0.800000 1.000000
vt 0.100000 1.000000
vt 0.400000 1.000000
vt 0.700000 1.000000
vt 1.000000 1.000000
vt -0.000000 1.000000
vt 0.300000 1.000000
vt 0.600000 1.000000
vt 0.900000 1.000000
vt 0.200000 1.000000
s 0
usemtl Material.003
f 1/1/1 2/4/1 4/8/1 3/6/1
f 3/6/2 4/8/2 6/11/2 5/9/2
f 5/9/3 6/11/3 8/14/3 7/12/3
f 7/12/4 8/14/4 10/17/4 9/15/4
f 9/15/5 10/17/5 12/20/5 11/18/5
f 11/18/6 12/20/6 14/23/6 13/21/6
f 13/21/7 14/23/7 16/26/7 15/24/7
f 15/24/8 16/26/8 18/29/8 17/27/8
f 4/8/1 2/4/1 22/34/1 21/33/1
f 17/27/9 18/29/9 20/32/9 19/30/9
f 19/30/10 20/32/10 2/5/10 1/2/10
f 1/3/11 3/7/11 5/10/11 7/13/11 9/16/11 11/19/11 13/22/11 15/25/11 17/28/11 19/31/11
f 104/134/6 101/131/6 36/50/6 37/51/6
f 8/14/3 6/11/3 23/36/3 24/37/3
f 6/11/2 4/8/2 21/33/2 23/36/2
f 2/5/10 20/32/10 30/43/10 22/35/10
f 20/32/9 18/29/9 29/42/9 30/43/9
f 18/29/8 16/26/8 28/41/8 29/42/8
f 16/26/7 14/23/7 27/40/7 28/41/7
f 14/23/6 12/20/6 26/39/6 27/40/6
f 12/20/5 10/17/5 25/38/5 26/39/5
f 10/17/4 8/14/4 24/37/4 25/38/4
f 72/99/12 71/98/12 47/62/12 48/63/12
f 105/135/3 102/132/3 33/47/3 34/48/3
f 106/137/10 103/133/10 40/54/10 32/45/10
f 107/138/13 104/134/13 37/51/13 38/52/13
f 108/139/4 105/135/4 34/48/4 35/49/4
f 109/140/1 106/136/1 32/46/1 31/44/1
f 110/141/8 107/138/8 38/52/8 39/53/8
f 101/131/5 108/139/5 35/49/5 36/50/5
f 102/132/2 109/140/2 31/44/2 33/47/2
f 103/133/9 110/141/9 39/53/9 40/54/9
f 84/113/14 81/109/14 54/74/14 55/76/14
f 74/101/15 73/100/15 44/59/15 45/60/15
f 76/104/16 75/103/16 42/57/16 41/55/16
f 77/105/17 72/99/17 48/63/17 49/64/17
f 78/106/18 74/101/18 45/60/18 46/61/18
f 79/107/19 76/104/19 41/55/19 43/58/19
f 80/108/20 77/105/20 49/64/20 50/65/20
f 71/98/21 78/106/21 46/61/21 47/62/21
f 73/100/22 79/107/22 43/58/22 44/59/22
f 75/102/23 80/108/23 50/65/23 42/56/23
f 51/66/24 52/68/24 60/85/24 59/83/24 58/81/24 57/79/24 56/77/24 55/75/24 54/73/24 53/71/24
f 85/114/25 82/111/25 52/69/25 51/67/25
f 86/115/26 83/112/26 58/82/26 59/84/26
f 87/116/27 84/113/27 55/76/27 56/78/27
f 88/117/28 85/114/28 51/67/28 53/72/28
f 89/118/29 86/115/29 59/84/29 60/86/29
f 90/119/30 87/116/30 56/78/30 57/80/30
f 81/109/31 88/117/31 53/72/31 54/74/31
f 82/110/32 89/118/32 60/86/32 52/70/32
f 83/112/33 90/119/33 57/80/33 58/82/33
f 48/63/34 47/62/34 70/97/34 65/92/34
f 42/56/35 50/65/35 69/96/35 63/89/35
f 44/59/36 43/58/36 68/95/36 61/87/36
f 47/62/37 46/61/37 67/94/37 70/97/37
f 50/65/38 49/64/38 66/93/38 69/96/38
f 43/58/39 41/55/39 64/91/39 68/95/39
f 46/61/40 45/60/40 62/88/40 67/94/40
f 49/64/41 48/63/41 65/92/41 66/93/41
f 41/55/42 42/57/42 63/90/42 64/91/42
f 45/60/43 44/59/43 61/87/43 62/88/43
f 32/45/44 40/54/44 80/108/44 75/102/44
f 34/48/45 33/47/45 79/107/45 73/100/45
f 37/51/46 36/50/46 78/106/46 71/98/46
f 40/54/47 39/53/47 77/105/47 80/108/47
f 33/47/48 31/44/48 76/104/48 79/107/48
f 36/50/49 35/49/49 74/101/49 78/106/49
f 39/53/50 38/52/50 72/99/50 77/105/50
f 31/44/51 32/46/51 75/103/51 76/104/51
f 35/49/52 34/48/52 73/100/52 74/101/52
f 38/52/53 37/51/53 71/98/53 72/99/53
f 65/92/54 70/97/54 90/119/54 83/112/54
f 63/89/55 69/96/55 89/118/55 82/110/55
f 61/87/56 68/95/56 88/117/56 81/109/56
f 70/97/57 67/94/57 87/116/57 90/119/57
f 69/96/58 66/93/58 86/115/58 89/118/58
f 68/95/59 64/91/59 85/114/59 88/117/59
f 67/94/60 62/88/60 84/113/60 87/116/60
f 66/93/61 65/92/61 83/112/61 86/115/61
f 64/91/62 63/90/62 82/111/62 85/114/62
f 62/88/63 61/87/63 81/109/63 84/113/63
f 30/43/9 29/42/9 100/130/9 95/124/9
f 23/36/2 21/33/2 99/129/2 93/122/2
f 26/39/5 25/38/5 98/128/5 91/120/5
f 29/42/8 28/41/8 97/127/8 100/130/8
f 21/33/1 22/34/1 96/125/1 99/129/1
f 25/38/4 24/37/4 94/123/4 98/128/4
f 28/41/7 27/40/7 92/121/7 97/127/7
f 22/35/10 30/43/10 95/124/10 96/126/10
f 24/37/3 23/36/3 93/122/3 94/123/3
f 27/40/6 26/39/6 91/120/6 92/121/6
f 95/124/9 100/130/9 110/141/9 103/133/9
f 93/122/2 99/129/2 109/140/2 102/132/2
f 91/120/5 98/128/5 108/139/5 101/131/5
f 100/130/8 97/127/8 107/138/8 110/141/8
f 99/129/1 96/125/1 106/136/1 109/140/1
f 98/128/4 94/123/4 105/135/4 108/139/4
f 97/127/13 92/121/13 104/134/13 107/138/13
f 96/126/10 95/124/10 103/133/10 106/137/10
f 94/123/3 93/122/3 102/132/3 105/135/3
f 92/121/6 91/120/6 101/131/6 104/134/6
