# Blender 3.4.1
# www.blender.org
mtllib intro-track-road-walls.mtl
o WallCollider
v 47.051731 -0.336519 -111.950638
v 47.051731 40.569229 -111.950638
v 39.062080 -0.336521 -82.381882
v 13.807708 40.634758 -85.545990
v 39.062080 40.634758 -82.381882
v 13.493155 -0.336517 -116.173553
v 13.493155 40.569225 -116.173553
v 13.807708 -0.336517 -85.545990
v 13.493155 -0.336517 -116.173553
v 13.493155 40.569225 -116.173553
v 13.807708 -0.336517 -85.545990
v -11.344477 40.634754 -81.784317
v 13.807708 40.634758 -85.545990
v -19.951584 -0.336519 -111.179291
v -19.951584 40.569225 -111.179291
v -11.344477 -0.336519 -81.784317
v -19.951584 -0.336519 -111.179291
v -19.951584 40.569225 -111.179291
v -11.344477 -0.336519 -81.784317
v -34.439484 40.634758 -71.287598
v -11.344477 40.634754 -81.784317
v -50.749413 -0.336519 -97.213120
v -50.749413 40.569229 -97.213120
v -34.439480 -0.336517 -71.287598
v -50.749413 -0.336519 -97.213120
v -50.749413 40.569229 -97.213120
v -34.439480 -0.336517 -71.287598
v -53.859985 40.634754 -54.901634
v -34.439484 40.634758 -71.287598
v -76.583145 -0.336517 -75.439514
v -76.583145 40.569225 -75.439499
v -53.859985 -0.336519 -54.901634
v -76.583145 -0.336517 -75.439514
v -76.583145 40.569225 -75.439499
v -53.859985 -0.336519 -54.901634
v -68.140038 40.634750 -33.914333
v -53.859985 40.634754 -54.901634
v -95.587234 -0.336517 -47.508362
v -95.587234 40.569225 -47.508362
v -68.140038 -0.336517 -33.914333
v -95.587234 -0.336517 -47.508362
v -95.587234 40.569225 -47.508362
v -68.140038 -0.336517 -33.914333
v -76.160431 40.634758 -9.879667
v -68.140038 40.634750 -33.914333
v -106.278984 -0.336521 -15.449181
v -106.278984 40.569233 -15.449181
v -76.160431 -0.336521 -9.879669
v -106.278984 -0.336521 -15.449181
v -106.278984 40.569233 -15.449181
v -76.160431 -0.336521 -9.879669
v -77.335449 40.634758 15.530139
v -76.160431 40.634758 -9.879667
v -107.840851 -0.336521 18.280869
v -107.840851 40.569229 18.280869
v -77.335449 -0.336517 15.530139
v -107.840851 -0.336521 18.280869
v -107.840851 40.569229 18.280869
v -77.335449 -0.336517 15.530139
v -71.645309 40.634754 40.246140
v -77.335449 40.634758 15.530139
v -100.244484 -0.336517 51.211262
v -100.244484 40.569229 51.211258
v -71.645309 -0.336519 40.246136
v -100.244484 -0.336517 51.211262
v -100.244484 40.569229 51.211258
v -71.645309 -0.336519 40.246136
v -59.440186 40.634758 62.503639
v -71.645309 40.634754 40.246140
v -83.969444 -0.336519 80.846542
v -83.969444 40.569229 80.846558
v -59.440186 -0.336519 62.503643
v -83.969444 -0.336519 80.846542
v -83.969444 40.569229 80.846558
v -59.440186 -0.336519 62.503643
v -41.614231 40.634758 80.664749
v -59.440186 40.634758 62.503639
v -60.264130 -0.336519 104.961426
v -60.264130 40.569225 104.961426
v -41.614231 -0.336519 80.664749
v -60.264130 -0.336519 104.961426
v -60.264130 40.569225 104.961426
v -41.614231 -0.336519 80.664749
v -19.484329 40.634758 93.138519
v -41.614231 40.634758 80.664749
v -30.811443 -0.336521 121.596268
v -30.811443 40.569233 121.596268
v -19.484329 -0.336521 93.138519
v -30.811443 -0.336521 121.596268
v -30.811443 40.569233 121.596268
v -19.484329 -0.336521 93.138519
v 5.167315 40.634758 99.129944
v -19.484329 40.634758 93.138519
v 2.037470 -0.336519 129.598801
v 2.037470 40.569229 129.598801
v 5.167315 -0.336519 99.129944
v 2.037470 -0.336519 129.598801
v 2.037470 40.569229 129.598801
v 5.167315 -0.336519 99.129944
v 30.605083 40.634758 98.265640
v 5.167315 40.634758 99.129944
v 35.793114 -0.336517 128.452225
v 35.793114 40.569225 128.452225
v 30.605083 -0.336519 98.265640
v 35.793114 -0.336517 128.452225
v 35.793114 40.569225 128.452225
v 30.605083 -0.336519 98.265640
v 54.739792 40.634754 90.530396
v 30.605083 40.634758 98.265640
v 67.985779 -0.336519 118.147232
v 67.985779 40.569229 118.147232
v 54.739792 -0.336521 90.530380
v 67.985779 -0.336519 118.147232
v 67.985779 40.569229 118.147232
v 54.739792 -0.336521 90.530380
v 75.889107 40.634754 76.494644
v 54.739792 40.634754 90.530396
v 96.140732 -0.336517 99.473282
v 96.140732 40.569229 99.473282
v 75.889107 -0.336519 76.494644
v 96.140732 -0.336517 99.473282
v 96.140732 40.569229 99.473282
v 75.889107 -0.336519 76.494644
v 92.493446 40.634758 57.266640
v 75.889107 40.634754 76.494644
v 118.211853 -0.336521 73.901230
v 118.211861 40.569229 73.901230
v 92.493446 -0.336521 57.266640
v 118.211853 -0.336521 73.901230
v 118.211861 40.569229 73.901230
v 92.493446 -0.336521 57.266640
v 103.255501 40.634758 34.304710
v 92.493446 40.634758 57.266640
v 132.538910 -0.336521 43.284039
v 132.538910 40.569229 43.284039
v 103.255501 -0.336521 34.304710
v 132.538910 -0.336521 43.284039
v 132.538910 40.569229 43.284039
v 103.255501 -0.336521 34.304710
v 107.318092 40.634758 9.223228
v 103.255501 40.634758 34.304710
v 137.939377 -0.336517 9.918526
v 137.939377 40.569225 9.918526
v 107.318092 -0.336517 9.223228
v 137.939362 -0.336517 9.918615
v 137.939362 40.569225 9.918613
v 107.318077 -0.336519 9.223293
v 104.464355 40.634754 -16.052753
v 107.318077 40.634754 9.223292
v 134.131836 -0.336517 -23.667700
v 134.131836 40.569225 -23.667700
v 104.464355 -0.336517 -16.052753
v 134.131836 -0.336517 -23.667660
v 134.131836 40.569225 -23.667660
v 104.464363 -0.336519 -16.052721
v 94.896332 40.634758 -39.562855
v 104.464363 40.634754 -16.052719
v 121.351204 -0.336519 -54.999382
v 121.351204 40.569229 -54.999382
v 94.896332 -0.336519 -39.562855
v 121.351227 -0.336521 -54.999340
v 121.351227 40.569229 -54.999340
v 94.896347 -0.336521 -39.562828
v 79.104965 40.634758 -59.507999
v 94.896347 40.634758 -39.562824
v 100.386185 -0.336521 -81.536530
v 100.386185 40.569229 -81.536530
v 79.104965 -0.336521 -59.507999
v 100.386215 -0.336519 -81.536499
v 100.386215 40.569229 -81.536499
v 79.104996 -0.336519 -59.507977
v 58.543427 40.634754 -74.438904
v 79.104996 40.634758 -59.507977
v 73.049637 -0.336517 -101.415115
v 73.049637 40.569225 -101.415115
v 58.543427 -0.336517 -74.438904
v 73.049759 -0.336521 -101.415054
v 73.049759 40.569229 -101.415054
v 58.543526 -0.336519 -74.438858
v 34.769512 40.634758 -83.217056
v 58.543522 40.634758 -74.438858
v 41.346127 -0.336521 -113.131851
v 41.346127 40.569229 -113.131851
v 34.769512 -0.336521 -83.217056
vn -0.1249 -0.0000 0.9922
vn 0.1243 -0.0000 -0.9922
vn 0.1477 -0.0000 0.9890
vn -0.1479 -0.0000 -0.9890
vn 0.4130 -0.0000 0.9107
vn -0.4138 -0.0000 -0.9104
vn 0.6445 -0.0000 0.7646
vn -0.6449 -0.0000 -0.7643
vn 0.8268 -0.0000 0.5625
vn -0.8268 -0.0000 -0.5625
vn 0.9486 -0.0000 0.3164
vn -0.9486 -0.0000 -0.3165
vn 0.9989 -0.0000 0.0463
vn -0.9989 -0.0000 -0.0462
vn 0.9744 -0.0000 -0.2248
vn -0.9745 -0.0000 0.2244
vn 0.8765 -0.0000 -0.4814
vn -0.8768 -0.0000 0.4808
vn 0.7131 -0.0000 -0.7010
vn -0.7137 -0.0000 0.7005
vn 0.4918 -0.0000 -0.8707
vn -0.4910 -0.0000 0.8711
vn 0.2367 -0.0000 -0.9716
vn -0.2362 -0.0000 0.9717
vn -0.0339 -0.0000 -0.9994
vn 0.0340 -0.0000 0.9994
vn -0.3049 -0.0000 -0.9524
vn 0.3052 -0.0000 0.9523
vn -0.5527 -0.0000 -0.8334
vn 0.5530 -0.0000 0.8332
vn -0.7570 -0.0000 -0.6534
vn 0.7569 -0.0000 0.6536
vn -0.9057 -0.0000 -0.4238
vn 0.9055 -0.0000 0.4244
vn -0.9872 -0.0000 -0.1598
vn 0.9871 -0.0000 0.1599
vn -0.9936 -0.0000 0.1126
vn 0.9937 -0.0000 -0.1122
vn -0.9259 -0.0000 0.3777
vn 0.9262 -0.0000 -0.3770
vn -0.7847 -0.0000 0.6199
vn 0.7840 -0.0000 -0.6207
vn -0.5881 -0.0000 0.8088
vn 0.5876 -0.0000 -0.8092
vn -0.3467 -0.0000 0.9380
vn 0.3464 -0.0000 -0.9381
vt 0.875000 0.711788
vt 0.875000 0.711788
vt 0.000000 0.000000
vt 0.000000 0.000000
vt 0.000000 0.000000
vt 0.625000 0.711788
vt 0.625000 0.711788
vt 0.000000 0.000000
vt 0.875000 0.711788
vt 0.875000 0.711788
vt 0.000000 0.000000
vt 0.000000 0.000000
vt 0.000000 0.000000
vt 0.625000 0.711788
vt 0.625000 0.711788
vt 0.000000 0.000000
vt 0.875000 0.711788
vt 0.875000 0.711788
vt 0.000000 0.000000
vt 0.000000 0.000000
vt 0.000000 0.000000
vt 0.625000 0.711788
vt 0.625000 0.711788
vt 0.000000 0.000000
vt 0.875000 0.711788
vt 0.875000 0.711788
vt 0.000000 0.000000
vt 0.000000 0.000000
vt 0.000000 0.000000
vt 0.625000 0.711788
vt 0.625000 0.711788
vt 0.000000 0.000000
vt 0.875000 0.711788
vt 0.875000 0.711788
vt 0.000000 0.000000
vt 0.000000 0.000000
vt 0.000000 0.000000
vt 0.625000 0.711788
vt 0.625000 0.711788
vt 0.000000 0.000000
vt 0.875000 0.711788
vt 0.875000 0.711788
vt 0.000000 0.000000
vt 0.000000 0.000000
vt 0.000000 0.000000
vt 0.625000 0.711788
vt 0.625000 0.711788
vt 0.000000 0.000000
vt 0.875000 0.711788
vt 0.875000 0.711788
vt 0.000000 0.000000
vt 0.000000 0.000000
vt 0.000000 0.000000
vt 0.625000 0.711788
vt 0.625000 0.711788
vt 0.000000 0.000000
vt 0.875000 0.711788
vt 0.875000 0.711788
vt 0.000000 0.000000
vt 0.000000 0.000000
vt 0.000000 0.000000
vt 0.625000 0.711788
vt 0.625000 0.711788
vt 0.000000 0.000000
vt 0.875000 0.711788
vt 0.875000 0.711788
vt 0.000000 0.000000
vt 0.000000 0.000000
vt 0.000000 0.000000
vt 0.625000 0.711788
vt 0.625000 0.711788
vt 0.000000 0.000000
vt 0.875000 0.711788
vt 0.875000 0.711788
vt 0.000000 0.000000
vt 0.000000 0.000000
vt 0.000000 0.000000
vt 0.625000 0.711788
vt 0.625000 0.711788
vt 0.000000 0.000000
vt 0.875000 0.711788
vt 0.875000 0.711788
vt 0.000000 0.000000
vt 0.000000 0.000000
vt 0.000000 0.000000
vt 0.625000 0.711788
vt 0.625000 0.711788
vt 0.000000 0.000000
vt 0.875000 0.711788
vt 0.875000 0.711788
vt 0.000000 0.000000
vt 0.000000 0.000000
vt 0.000000 0.000000
vt 0.625000 0.711788
vt 0.625000 0.711788
vt 0.000000 0.000000
vt 0.875000 0.711788
vt 0.875000 0.711788
vt 0.000000 0.000000
vt 0.000000 0.000000
vt 0.000000 0.000000
vt 0.625000 0.711788
vt 0.625000 0.711788
vt 0.000000 0.000000
vt 0.875000 0.711788
vt 0.875000 0.711788
vt 0.000000 0.000000
vt 0.000000 0.000000
vt 0.000000 0.000000
vt 0.625000 0.711788
vt 0.625000 0.711788
vt 0.000000 0.000000
vt 0.875000 0.711788
vt 0.875000 0.711788
vt 0.000000 0.000000
vt 0.000000 0.000000
vt 0.000000 0.000000
vt 0.625000 0.711788
vt 0.625000 0.711788
vt 0.000000 0.000000
vt 0.875000 0.711788
vt 0.875000 0.711788
vt 0.000000 0.000000
vt 0.000000 0.000000
vt 0.000000 0.000000
vt 0.625000 0.711788
vt 0.625000 0.711788
vt 0.000000 0.000000
vt 0.875000 0.711788
vt 0.875000 0.711788
vt 0.000000 0.000000
vt 0.000000 0.000000
vt 0.000000 0.000000
vt 0.625000 0.711788
vt 0.625000 0.711788
vt 0.000000 0.000000
vt 0.875000 0.711788
vt 0.875000 0.711788
vt 0.000000 0.000000
vt 0.000000 0.000000
vt 0.000000 0.000000
vt 0.625000 0.711788
vt 0.625000 0.711788
vt 0.000000 0.000000
vt 0.875000 0.711788
vt 0.875000 0.711788
vt 0.000000 0.000000
vt 0.000000 0.000000
vt 0.000000 0.000000
vt 0.625000 0.711788
vt 0.625000 0.711788
vt 0.000000 0.000000
vt 0.875000 0.711788
vt 0.875000 0.711788
vt 0.000000 0.000000
vt 0.000000 0.000000
vt 0.000000 0.000000
vt 0.625000 0.711788
vt 0.625000 0.711788
vt 0.000000 0.000000
vt 0.875000 0.711788
vt 0.875000 0.711788
vt 0.000000 0.000000
vt 0.000000 0.000000
vt 0.000000 0.000000
vt 0.625000 0.711788
vt 0.625000 0.711788
vt 0.000000 0.000000
vt 0.875000 0.711788
vt 0.875000 0.711788
vt 0.000000 0.000000
vt 0.000000 0.000000
vt 0.000000 0.000000
vt 0.625000 0.711788
vt 0.625000 0.711788
vt 0.000000 0.000000
vt 0.875000 0.711788
vt 0.875000 0.711788
vt 0.000000 0.000000
vt 0.000000 0.000000
vt 0.000000 0.000000
vt 0.625000 0.711788
vt 0.625000 0.711788
vt 0.000000 0.000000
s 0
usemtl Material
f 6/6/1 1/1/1 2/2/1 7/7/1
f 4/4/2 5/5/2 3/3/2 8/8/2
f 14/14/3 9/9/3 10/10/3 15/15/3
f 12/12/4 13/13/4 11/11/4 16/16/4
f 22/22/5 17/17/5 18/18/5 23/23/5
f 20/20/6 21/21/6 19/19/6 24/24/6
f 30/30/7 25/25/7 26/26/7 31/31/7
f 28/28/8 29/29/8 27/27/8 32/32/8
f 38/38/9 33/33/9 34/34/9 39/39/9
f 36/36/10 37/37/10 35/35/10 40/40/10
f 46/46/11 41/41/11 42/42/11 47/47/11
f 44/44/12 45/45/12 43/43/12 48/48/12
f 54/54/13 49/49/13 50/50/13 55/55/13
f 52/52/14 53/53/14 51/51/14 56/56/14
f 62/62/15 57/57/15 58/58/15 63/63/15
f 60/60/16 61/61/16 59/59/16 64/64/16
f 70/70/17 65/65/17 66/66/17 71/71/17
f 68/68/18 69/69/18 67/67/18 72/72/18
f 78/78/19 73/73/19 74/74/19 79/79/19
f 76/76/20 77/77/20 75/75/20 80/80/20
f 86/86/21 81/81/21 82/82/21 87/87/21
f 84/84/22 85/85/22 83/83/22 88/88/22
f 94/94/23 89/89/23 90/90/23 95/95/23
f 92/92/24 93/93/24 91/91/24 96/96/24
f 102/102/25 97/97/25 98/98/25 103/103/25
f 100/100/26 101/101/26 99/99/26 104/104/26
f 110/110/27 105/105/27 106/106/27 111/111/27
f 108/108/28 109/109/28 107/107/28 112/112/28
f 118/118/29 113/113/29 114/114/29 119/119/29
f 116/116/30 117/117/30 115/115/30 120/120/30
f 126/126/31 121/121/31 122/122/31 127/127/31
f 124/124/32 125/125/32 123/123/32 128/128/32
f 134/134/33 129/129/33 130/130/33 135/135/33
f 132/132/34 133/133/34 131/131/34 136/136/34
f 142/142/35 137/137/35 138/138/35 143/143/35
f 140/140/36 141/141/36 139/139/36 144/144/36
f 150/150/37 145/145/37 146/146/37 151/151/37
f 148/148/38 149/149/38 147/147/38 152/152/38
f 158/158/39 153/153/39 154/154/39 159/159/39
f 156/156/40 157/157/40 155/155/40 160/160/40
f 166/166/41 161/161/41 162/162/41 167/167/41
f 164/164/42 165/165/42 163/163/42 168/168/42
f 174/174/43 169/169/43 170/170/43 175/175/43
f 172/172/44 173/173/44 171/171/44 176/176/44
f 182/182/45 177/177/45 178/178/45 183/183/45
f 180/180/46 181/181/46 179/179/46 184/184/46
