# Blender v3.4.1 OBJ File: 'level-track.blend'
# www.blender.org
mtllib Pillar_010.mtl
o Pillar.010_Cube.020
v -175.089371 -26.137470 -75.744682
v -176.975082 -26.120472 -75.078491
v -174.911896 -26.438072 -75.234673
v -176.797607 -26.421074 -74.568481
v -174.829727 -26.998655 -74.987770
v -176.715439 -26.981659 -74.321579
v -174.874237 -27.605097 -75.098289
v -176.759949 -27.588100 -74.432098
v -175.028427 -28.025757 -75.524010
v -176.914139 -28.008759 -74.857819
v -175.233398 -28.099955 -76.102318
v -177.119110 -28.082958 -75.436127
v -175.410873 -27.799355 -76.612328
v -177.296585 -27.782356 -75.946136
v -175.493042 -27.238770 -76.859230
v -177.378754 -27.221773 -76.193039
v -175.448532 -26.632328 -76.748711
v -177.334244 -26.615330 -76.082520
v -175.294342 -26.211670 -76.322990
v -177.180054 -26.194672 -75.656807
v -177.269028 -26.416824 -74.401932
v -177.446503 -26.116222 -74.911942
v -177.186859 -26.977409 -74.155037
v -177.231369 -27.583851 -74.265549
v -177.385559 -28.004509 -74.691269
v -177.590546 -28.078709 -75.269585
v -177.768005 -27.778107 -75.779594
v -177.850174 -27.217524 -76.026489
v -177.805664 -26.611082 -75.915977
v -177.651474 -26.190422 -75.490257
v -187.810272 -26.321806 -70.677887
v -187.987747 -26.021204 -71.187897
v -187.728104 -26.882391 -70.430992
v -187.772614 -27.488832 -70.541504
v -187.926804 -27.909491 -70.967224
v -188.131790 -27.983690 -71.545540
v -188.309250 -27.683088 -72.055550
v -188.391418 -27.122505 -72.302444
v -188.346909 -26.516064 -72.191933
v -188.192719 -26.095404 -71.766212
v -188.138672 -26.054138 -70.260704
v -188.384918 -25.637012 -70.968407
v -188.024643 -26.832020 -69.918098
v -188.086411 -27.673538 -70.071449
v -188.300369 -28.257256 -70.662193
v -188.584793 -28.360218 -71.464676
v -188.831055 -27.943092 -72.172379
v -188.945084 -27.165211 -72.514984
v -188.883316 -26.323692 -72.361626
v -188.669357 -25.739975 -71.770889
v -190.437363 -25.976116 -69.383415
v -190.698517 -25.533768 -70.133911
v -190.316437 -26.801039 -69.020088
v -190.381943 -27.693441 -69.182716
v -190.608841 -28.312458 -69.809181
v -190.910477 -28.421646 -70.660194
v -191.171631 -27.979298 -71.410690
v -191.292542 -27.154375 -71.774017
v -191.227051 -26.261972 -71.611389
v -191.000153 -25.642954 -70.984924
v -189.456802 -27.625937 -69.654823
v -189.659531 -28.179005 -70.214546
v -189.739655 -25.696341 -70.504684
v -189.506332 -26.091566 -69.834137
v -190.270401 -27.144300 -71.970062
v -190.211884 -26.346966 -71.824753
v -189.929031 -28.276564 -70.974899
v -189.398285 -26.828604 -69.509521
v -190.009155 -25.793898 -71.265030
v -190.162369 -27.881336 -71.645439
v -188.608582 -27.794250 -72.079353
v -188.704453 -27.140200 -72.367416
v -187.982452 -27.567608 -70.312866
v -188.162354 -28.058405 -70.809570
v -188.233459 -25.855272 -71.067032
v -188.026398 -26.205997 -70.471985
v -188.652512 -26.432640 -72.238472
v -188.401520 -28.144976 -71.484306
v -187.930527 -26.860048 -70.183922
v -188.472610 -25.941845 -71.741776
v -189.798889 -27.768673 -69.254677
v -190.146576 -25.396727 -70.299362
v -190.798996 -27.176622 -72.100662
v -190.048096 -28.448530 -69.942711
v -189.859756 -25.882553 -69.475098
v -190.727051 -26.196503 -71.922050
v -190.379364 -28.568449 -70.877365
v -189.726959 -26.788553 -69.076057
v -190.477859 -25.516645 -71.234016
v -190.666183 -28.082623 -71.701630
v -182.176010 -28.037374 -73.649612
v -182.353485 -27.736773 -74.159622
v -181.772339 -26.936075 -72.535065
v -181.816849 -27.542517 -72.645584
v -182.236954 -26.149090 -73.870285
v -182.031967 -26.074890 -73.291977
v -182.435654 -27.176189 -74.406525
v -181.971039 -27.963177 -73.071304
v -181.854507 -26.375492 -72.781967
v -182.391144 -26.569748 -74.296005
v -183.615814 -28.024397 -73.140961
v -183.212128 -26.923098 -72.026413
v -183.676743 -26.136110 -73.361633
v -183.793274 -27.723795 -73.650963
v -183.256638 -27.529539 -72.136925
v -183.471771 -26.061913 -72.783318
v -183.875443 -27.163212 -73.897865
v -183.410828 -27.950197 -72.562645
v -183.294296 -26.362514 -72.273308
v -183.830933 -26.556770 -73.787354
vt 1.000000 0.500000
vt 1.000000 1.000000
vt 0.900000 1.000000
vt 0.900000 0.500000
vt 0.800000 1.000000
vt 0.800000 0.500000
vt 0.700000 1.000000
vt 0.700000 0.500000
vt 0.600000 1.000000
vt 0.600000 0.500000
vt 0.500000 1.000000
vt 0.500000 0.500000
vt 0.400000 1.000000
vt 0.400000 0.500000
vt 0.300000 1.000000
vt 0.300000 0.500000
vt 0.200000 1.000000
vt 0.200000 0.500000
vt 1.000000 1.000000
vt 0.900000 1.000000
vt 0.100000 1.000000
vt 0.100000 0.500000
vt -0.000000 1.000000
vt -0.000000 0.500000
vt 0.750000 0.490000
vt 0.891068 0.444164
vt 0.978254 0.324164
vt 0.978254 0.175836
vt 0.891068 0.055836
vt 0.750000 0.010000
vt 0.608932 0.055836
vt 0.521746 0.175836
vt 0.521746 0.324164
vt 0.608932 0.444164
vt 0.400000 1.000000
vt 0.500000 1.000000
vt 0.500000 1.000000
vt 0.400000 1.000000
vt 0.800000 1.000000
vt 0.700000 1.000000
vt 0.100000 1.000000
vt -0.000000 1.000000
vt 0.200000 1.000000
vt 0.300000 1.000000
vt 0.400000 1.000000
vt 0.500000 1.000000
vt 0.600000 1.000000
vt 0.300000 1.000000
vt 0.400000 1.000000
vt 0.400000 1.000000
vt 0.300000 1.000000
vt 0.700000 1.000000
vt 0.800000 1.000000
vt 0.800000 1.000000
vt 0.700000 1.000000
vt -0.000000 1.000000
vt 0.100000 1.000000
vt 0.100000 1.000000
vt -0.000000 1.000000
vt 0.300000 1.000000
vt 0.300000 1.000000
vt 0.600000 1.000000
vt 0.600000 1.000000
vt 0.900000 1.000000
vt 1.000000 1.000000
vt 1.000000 1.000000
vt 0.900000 1.000000
vt 0.200000 1.000000
vt 0.200000 1.000000
vt 0.600000 1.000000
vt 0.700000 1.000000
vt 0.700000 1.000000
vt 0.600000 1.000000
vt 0.600000 1.000000
vt 0.700000 1.000000
vt 0.700000 1.000000
vt 0.600000 1.000000
vt 0.900000 1.000000
vt 1.000000 1.000000
vt 1.000000 1.000000
vt 0.900000 1.000000
vt 0.200000 1.000000
vt 0.200000 1.000000
vt 0.500000 1.000000
vt 0.500000 1.000000
vt 0.800000 1.000000
vt 0.800000 1.000000
vt 0.100000 1.000000
vt 0.100000 1.000000
vt -0.000000 1.000000
vt -0.000000 1.000000
vt 0.391068 0.444164
vt 0.250000 0.490000
vt 0.108932 0.444164
vt 0.021746 0.324164
vt 0.021746 0.175836
vt 0.108932 0.055836
vt 0.250000 0.010000
vt 0.391068 0.055836
vt 0.478254 0.175836
vt 0.478254 0.324164
vt 0.900000 1.000000
vt 1.000000 1.000000
vt 1.000000 1.000000
vt 0.900000 1.000000
vt 0.200000 1.000000
vt 0.300000 1.000000
vt 0.300000 1.000000
vt 0.200000 1.000000
vt 0.500000 1.000000
vt 0.500000 1.000000
vt 0.800000 1.000000
vt 0.800000 1.000000
vt 0.100000 1.000000
vt 0.100000 1.000000
vt 0.400000 1.000000
vt 0.400000 1.000000
vt -0.000000 1.000000
vt -0.000000 1.000000
vt 0.400000 1.000000
vt 0.300000 1.000000
vt 0.100000 1.000000
vt -0.000000 1.000000
vt 0.800000 1.000000
vt 0.700000 1.000000
vt 0.500000 1.000000
vt 0.200000 1.000000
vt 0.900000 1.000000
vt 0.600000 1.000000
vt 1.000000 1.000000
vt 0.200000 1.000000
vt 0.100000 1.000000
vt 0.900000 1.000000
vt 0.800000 1.000000
vt 0.600000 1.000000
vt 0.500000 1.000000
vt 0.300000 1.000000
vt 1.000000 1.000000
vt 0.700000 1.000000
vt 0.400000 1.000000
vt -0.000000 1.000000
vn 0.1690 0.8737 0.4561
vn 0.3055 0.4210 0.8541
vn 0.3253 -0.1926 0.9258
vn 0.2209 -0.7326 0.6439
vn 0.0320 -0.9927 0.1160
vn -0.1690 -0.8737 -0.4561
vn -0.3055 -0.4210 -0.8541
vn -0.3253 0.1926 -0.9258
vn 0.1690 0.8737 0.4562
vn -0.2209 0.7326 -0.6439
vn -0.0320 0.9927 -0.1160
vn 0.9429 -0.0085 -0.3331
vn -0.1690 -0.8737 -0.4562
vn 0.3055 0.4209 0.8541
vn -0.3055 -0.4209 -0.8541
vn 0.5230 -0.2782 -0.8057
vn -0.0048 -0.7104 0.7037
vn 0.8627 -0.4793 0.1612
vn 0.8293 0.5574 0.0400
vn 0.5102 0.1178 -0.8520
vn 0.7408 -0.6472 -0.1795
vn 0.9174 0.2652 0.2968
vn 0.5776 0.4663 -0.6700
vn 0.6111 -0.5704 -0.5488
vn 0.9301 -0.1308 0.3431
vn 0.6995 0.6342 -0.3293
vn -0.9429 0.0085 0.3331
vn -0.0552 0.8516 0.5212
vn -0.5360 0.1893 -0.8227
vn -0.1884 -0.9634 0.1904
vn 0.0775 0.4113 0.9082
vn -0.4344 0.7144 -0.5486
vn -0.3840 -0.8477 -0.3660
vn 0.0968 -0.1853 0.9779
vn -0.2508 0.9674 -0.0352
vn -0.5167 -0.4074 -0.7530
vn -0.3508 -0.4201 -0.8370
vn -0.0776 0.9920 -0.0998
vn 0.2794 -0.1920 0.9408
vn -0.2144 -0.8723 -0.4395
vn -0.2662 0.7321 -0.6270
vn 0.2596 0.4209 0.8692
vn -0.0136 -0.9912 0.1320
vn -0.3705 0.1928 -0.9086
vn 0.1232 0.8731 0.4717
vn 0.1750 -0.7313 0.6592
vn 0.4454 0.8544 -0.2675
vn 0.7545 -0.1708 0.6336
vn 0.3269 -0.7600 -0.5617
vn 0.2821 0.6294 -0.7241
vn 0.7374 0.3598 0.5716
vn 0.5009 -0.8630 -0.0668
vn 0.1917 0.1623 -0.9679
vn 0.6193 0.7515 0.2274
vn 0.6642 -0.6379 0.3898
vn 0.2089 -0.3684 -0.9059
vn 0.2445 -0.3606 -0.9001
vn 0.4758 0.8352 -0.2758
vn 0.7781 -0.1674 0.6055
vn 0.3599 -0.7436 -0.5635
vn 0.3161 0.6151 -0.7223
vn 0.7613 0.3516 0.5448
vn 0.5300 -0.8443 -0.0795
vn 0.2277 0.1584 -0.9608
vn 0.6459 0.7345 0.2082
vn 0.6897 -0.6242 0.3670
usemtl Material.007
s off
f 1/1/1 2/2/1 4/3/1 3/4/1
f 3/4/2 4/3/2 6/5/2 5/6/2
f 5/6/3 6/5/3 8/7/3 7/8/3
f 7/8/4 8/7/4 10/9/4 9/10/4
f 9/10/5 10/9/5 12/11/5 11/12/5
f 11/12/6 12/11/6 14/13/6 13/14/6
f 13/14/7 14/13/7 16/15/7 15/16/7
f 15/16/8 16/15/8 18/17/8 17/18/8
f 4/3/9 2/2/9 22/19/9 21/20/9
f 17/18/10 18/17/10 20/21/10 19/22/10
f 19/22/11 20/21/11 2/23/11 1/24/11
f 1/25/12 3/26/12 5/27/12 7/28/12 9/29/12 11/30/12 13/31/12 15/32/12 17/33/12 19/34/12
f 104/35/13 101/36/13 36/37/13 37/38/13
f 8/7/3 6/5/3 23/39/3 24/40/3
f 6/5/14 4/3/14 21/20/14 23/39/14
f 2/23/11 20/21/11 30/41/11 22/42/11
f 20/21/10 18/17/10 29/43/10 30/41/10
f 18/17/8 16/15/8 28/44/8 29/43/8
f 16/15/15 14/13/15 27/45/15 28/44/15
f 14/13/13 12/11/13 26/46/13 27/45/13
f 12/11/5 10/9/5 25/47/5 26/46/5
f 10/9/4 8/7/4 24/40/4 25/47/4
f 72/48/16 71/49/16 47/50/16 48/51/16
f 105/52/3 102/53/3 33/54/3 34/55/3
f 106/56/11 103/57/11 40/58/11 32/59/11
f 107/60/15 104/35/15 37/38/15 38/61/15
f 108/62/4 105/52/4 34/55/4 35/63/4
f 109/64/1 106/65/1 32/66/1 31/67/1
f 110/68/8 107/60/8 38/61/8 39/69/8
f 101/36/5 108/62/5 35/63/5 36/37/5
f 102/53/14 109/64/14 31/67/14 33/54/14
f 103/57/10 110/68/10 39/69/10 40/58/10
f 84/70/17 81/71/17 54/72/17 55/73/17
f 74/74/18 73/75/18 44/76/18 45/77/18
f 76/78/19 75/79/19 42/80/19 41/81/19
f 77/82/20 72/48/20 48/51/20 49/83/20
f 78/84/21 74/74/21 45/77/21 46/85/21
f 79/86/22 76/78/22 41/81/22 43/87/22
f 80/88/23 77/82/23 49/83/23 50/89/23
f 71/49/24 78/84/24 46/85/24 47/50/24
f 73/75/25 79/86/25 43/87/25 44/76/25
f 75/90/26 80/88/26 50/89/26 42/91/26
f 51/92/27 52/93/27 60/94/27 59/95/27 58/96/27 57/97/27 56/98/27 55/99/27 54/100/27 53/101/27
f 85/102/28 82/103/28 52/104/28 51/105/28
f 86/106/29 83/107/29 58/108/29 59/109/29
f 87/110/30 84/70/30 55/73/30 56/111/30
f 88/112/31 85/102/31 51/105/31 53/113/31
f 89/114/32 86/106/32 59/109/32 60/115/32
f 90/116/33 87/110/33 56/111/33 57/117/33
f 81/71/34 88/112/34 53/113/34 54/72/34
f 82/118/35 89/114/35 60/115/35 52/119/35
f 83/107/36 90/116/36 57/117/36 58/108/36
f 48/51/37 47/50/37 70/120/37 65/121/37
f 42/91/38 50/89/38 69/122/38 63/123/38
f 44/76/39 43/87/39 68/124/39 61/125/39
f 47/50/40 46/85/40 67/126/40 70/120/40
f 50/89/41 49/83/41 66/127/41 69/122/41
f 43/87/42 41/81/42 64/128/42 68/124/42
f 46/85/43 45/77/43 62/129/43 67/126/43
f 49/83/44 48/51/44 65/121/44 66/127/44
f 41/81/45 42/80/45 63/130/45 64/128/45
f 45/77/46 44/76/46 61/125/46 62/129/46
f 32/59/47 40/58/47 80/88/47 75/90/47
f 34/55/48 33/54/48 79/86/48 73/75/48
f 37/38/49 36/37/49 78/84/49 71/49/49
f 40/58/50 39/69/50 77/82/50 80/88/50
f 33/54/51 31/67/51 76/78/51 79/86/51
f 36/37/52 35/63/52 74/74/52 78/84/52
f 39/69/53 38/61/53 72/48/53 77/82/53
f 31/67/54 32/66/54 75/79/54 76/78/54
f 35/63/55 34/55/55 73/75/55 74/74/55
f 38/61/56 37/38/56 71/49/56 72/48/56
f 65/121/57 70/120/57 90/116/57 83/107/57
f 63/123/58 69/122/58 89/114/58 82/118/58
f 61/125/59 68/124/59 88/112/59 81/71/59
f 70/120/60 67/126/60 87/110/60 90/116/60
f 69/122/61 66/127/61 86/106/61 89/114/61
f 68/124/62 64/128/62 85/102/62 88/112/62
f 67/126/63 62/129/63 84/70/63 87/110/63
f 66/127/64 65/121/64 83/107/64 86/106/64
f 64/128/65 63/130/65 82/103/65 85/102/65
f 62/129/66 61/125/66 81/71/66 84/70/66
f 30/41/10 29/43/10 100/131/10 95/132/10
f 23/39/2 21/20/2 99/133/2 93/134/2
f 26/46/5 25/47/5 98/135/5 91/136/5
f 29/43/8 28/44/8 97/137/8 100/131/8
f 21/20/9 22/19/9 96/138/9 99/133/9
f 25/47/4 24/40/4 94/139/4 98/135/4
f 28/44/15 27/45/15 92/140/15 97/137/15
f 22/42/11 30/41/11 95/132/11 96/141/11
f 24/40/3 23/39/3 93/134/3 94/139/3
f 27/45/6 26/46/6 91/136/6 92/140/6
f 95/132/10 100/131/10 110/68/10 103/57/10
f 93/134/14 99/133/14 109/64/14 102/53/14
f 91/136/5 98/135/5 108/62/5 101/36/5
f 100/131/8 97/137/8 107/60/8 110/68/8
f 99/133/9 96/138/9 106/65/9 109/64/9
f 98/135/4 94/139/4 105/52/4 108/62/4
f 97/137/7 92/140/7 104/35/7 107/60/7
f 96/141/11 95/132/11 103/57/11 106/56/11
f 94/139/3 93/134/3 102/53/3 105/52/3
f 92/140/6 91/136/6 101/36/6 104/35/6
