# Blender v3.4.1 OBJ File: 'level-track.blend'
# www.blender.org
mtllib Pillar_004.mtl
o Pillar.004_Cube.015
v -109.660309 -8.394493 -303.713409
v -108.174324 -8.389988 -302.374817
v -109.922089 -7.914993 -303.424408
v -108.436104 -7.910488 -302.085815
v -109.945625 -7.297876 -303.400391
v -108.459641 -7.293371 -302.061768
v -109.721916 -6.778858 -303.650452
v -108.235931 -6.774353 -302.311859
v -109.336418 -6.556188 -304.079163
v -107.850433 -6.551682 -302.740570
v -108.936378 -6.714917 -304.522705
v -107.450394 -6.710412 -303.184113
v -108.674599 -7.194417 -304.811707
v -107.188614 -7.189911 -303.473114
v -108.651062 -7.811534 -304.835754
v -107.165085 -7.807029 -303.497162
v -108.874771 -8.330552 -304.585663
v -107.388786 -8.326046 -303.247070
v -109.260269 -8.553223 -304.156952
v -107.774284 -8.548717 -302.818359
v -108.064613 -7.909362 -301.751190
v -107.802826 -8.388862 -302.040161
v -108.088142 -7.292244 -301.727142
v -107.864441 -6.773227 -301.977203
v -107.478943 -6.550556 -302.405914
v -107.078903 -6.709285 -302.849457
v -106.817116 -7.188785 -303.138458
v -106.793587 -7.805902 -303.162506
v -107.017296 -8.324920 -302.912415
v -107.402786 -8.547590 -302.483734
v -99.757874 -7.884177 -294.268341
v -99.496086 -8.363676 -294.557343
v -99.781403 -7.267059 -294.244293
v -99.557693 -6.748042 -294.494385
v -99.172195 -6.525371 -294.923065
v -98.772156 -6.684100 -295.366638
v -98.510376 -7.163599 -295.655609
v -98.486847 -7.780717 -295.679657
v -98.710548 -8.299735 -295.429596
v -99.096046 -8.522406 -295.000885
v -99.664665 -8.022820 -293.697723
v -99.301414 -8.688189 -294.098724
v -99.697319 -7.166490 -293.664337
v -99.386902 -6.446284 -294.011383
v -98.851974 -6.137301 -294.606232
v -98.296867 -6.357557 -295.221710
v -97.933609 -7.022925 -295.622742
v -97.900955 -7.879255 -295.656097
v -98.211380 -8.599462 -295.309082
v -98.746307 -8.908444 -294.714203
v -97.889084 -8.047509 -291.992889
v -97.503860 -8.753114 -292.418152
v -97.923714 -7.139395 -291.957520
v -97.594521 -6.375639 -292.325500
v -97.027245 -6.047971 -292.956360
v -96.438568 -6.281547 -293.609070
v -96.053345 -6.987151 -294.034332
v -96.018723 -7.895266 -294.069702
v -96.347916 -8.659021 -293.701691
v -96.915184 -8.986691 -293.070862
v -98.292618 -6.499586 -293.087494
v -97.785774 -6.206828 -293.651123
v -98.211617 -8.623779 -293.170258
v -98.555801 -7.993344 -292.790314
v -96.884689 -7.857318 -294.645874
v -97.178818 -8.539710 -294.317078
v -97.259811 -6.415517 -294.234283
v -98.586739 -7.181978 -292.758698
v -97.685654 -8.832469 -293.753418
v -96.915634 -7.045952 -294.614258
v -98.203285 -7.102912 -295.588318
v -98.175827 -7.822924 -295.616394
v -99.425232 -6.618062 -294.233459
v -98.975456 -6.358267 -294.733643
v -99.353348 -8.503084 -294.306915
v -99.658783 -7.943633 -293.969757
v -98.436836 -8.428482 -295.324615
v -98.508713 -6.543461 -295.251160
v -99.686234 -7.223621 -293.941681
v -98.886612 -8.688278 -294.824432
v -98.082512 -6.264718 -292.642303
v -97.982941 -8.875870 -292.744019
v -96.351830 -7.933704 -294.557922
v -97.459480 -5.904844 -293.335144
v -98.406029 -8.100914 -292.276978
v -96.713379 -8.772531 -294.153748
v -96.812950 -6.161378 -294.052002
v -98.444061 -7.103545 -292.238098
v -97.336411 -9.132404 -293.460907
v -96.389862 -6.936335 -294.519043
v -103.465446 -6.698330 -299.594421
v -103.203667 -7.177829 -299.883392
v -104.474686 -7.281289 -298.472076
v -104.250984 -6.762271 -298.722168
v -103.789337 -8.536635 -299.228668
v -104.189377 -8.377906 -298.785126
v -103.180130 -7.794947 -299.907440
v -103.865486 -6.539600 -299.150848
v -104.451157 -7.898407 -298.496124
v -103.403839 -8.313965 -299.657349
v -102.330856 -6.694890 -298.572357
v -103.340096 -7.277849 -297.450012
v -102.654739 -8.533195 -298.206604
v -102.069069 -7.174389 -298.861359
v -103.116386 -6.758831 -297.700104
v -103.054779 -8.374466 -297.763062
v -102.045540 -7.791507 -298.885376
v -102.730896 -6.536160 -298.128784
v -103.316566 -7.894967 -297.474060
v -102.269241 -8.310525 -298.635315
vt 1.000000 0.500000
vt 1.000000 1.000000
vt 0.900000 1.000000
vt 0.900000 0.500000
vt 0.800000 1.000000
vt 0.800000 0.500000
vt 0.700000 1.000000
vt 0.700000 0.500000
vt 0.600000 1.000000
vt 0.600000 0.500000
vt 0.500000 1.000000
vt 0.500000 0.500000
vt 0.400000 1.000000
vt 0.400000 0.500000
vt 0.300000 1.000000
vt 0.300000 0.500000
vt 0.200000 1.000000
vt 0.200000 0.500000
vt 1.000000 1.000000
vt 0.900000 1.000000
vt 0.100000 1.000000
vt 0.100000 0.500000
vt -0.000000 1.000000
vt -0.000000 0.500000
vt 0.750000 0.490000
vt 0.891068 0.444164
vt 0.978254 0.324164
vt 0.978254 0.175836
vt 0.891068 0.055836
vt 0.750000 0.010000
vt 0.608932 0.055836
vt 0.521746 0.175836
vt 0.521746 0.324164
vt 0.608932 0.444164
vt 0.400000 1.000000
vt 0.500000 1.000000
vt 0.500000 1.000000
vt 0.400000 1.000000
vt 0.800000 1.000000
vt 0.700000 1.000000
vt 0.100000 1.000000
vt -0.000000 1.000000
vt 0.200000 1.000000
vt 0.300000 1.000000
vt 0.400000 1.000000
vt 0.500000 1.000000
vt 0.600000 1.000000
vt 0.300000 1.000000
vt 0.400000 1.000000
vt 0.400000 1.000000
vt 0.300000 1.000000
vt 0.700000 1.000000
vt 0.800000 1.000000
vt 0.800000 1.000000
vt 0.700000 1.000000
vt -0.000000 1.000000
vt 0.100000 1.000000
vt 0.100000 1.000000
vt -0.000000 1.000000
vt 0.300000 1.000000
vt 0.300000 1.000000
vt 0.600000 1.000000
vt 0.600000 1.000000
vt 0.900000 1.000000
vt 1.000000 1.000000
vt 1.000000 1.000000
vt 0.900000 1.000000
vt 0.200000 1.000000
vt 0.200000 1.000000
vt 0.600000 1.000000
vt 0.700000 1.000000
vt 0.700000 1.000000
vt 0.600000 1.000000
vt 0.600000 1.000000
vt 0.700000 1.000000
vt 0.700000 1.000000
vt 0.600000 1.000000
vt 0.900000 1.000000
vt 1.000000 1.000000
vt 1.000000 1.000000
vt 0.900000 1.000000
vt 0.200000 1.000000
vt 0.200000 1.000000
vt 0.500000 1.000000
vt 0.500000 1.000000
vt 0.800000 1.000000
vt 0.800000 1.000000
vt 0.100000 1.000000
vt 0.100000 1.000000
vt -0.000000 1.000000
vt -0.000000 1.000000
vt 0.391068 0.444164
vt 0.250000 0.490000
vt 0.108932 0.444164
vt 0.021746 0.324164
vt 0.021746 0.175836
vt 0.108932 0.055836
vt 0.250000 0.010000
vt 0.391068 0.055836
vt 0.478254 0.175836
vt 0.478254 0.324164
vt 0.900000 1.000000
vt 1.000000 1.000000
vt 1.000000 1.000000
vt 0.900000 1.000000
vt 0.200000 1.000000
vt 0.300000 1.000000
vt 0.300000 1.000000
vt 0.200000 1.000000
vt 0.500000 1.000000
vt 0.500000 1.000000
vt 0.800000 1.000000
vt 0.800000 1.000000
vt 0.100000 1.000000
vt 0.100000 1.000000
vt 0.400000 1.000000
vt 0.400000 1.000000
vt -0.000000 1.000000
vt -0.000000 1.000000
vt 0.400000 1.000000
vt 0.300000 1.000000
vt 0.100000 1.000000
vt -0.000000 1.000000
vt 0.800000 1.000000
vt 0.700000 1.000000
vt 0.500000 1.000000
vt 0.200000 1.000000
vt 0.900000 1.000000
vt 0.600000 1.000000
vt 1.000000 1.000000
vt 0.200000 1.000000
vt 0.100000 1.000000
vt 0.900000 1.000000
vt 0.800000 1.000000
vt 0.600000 1.000000
vt 0.500000 1.000000
vt 0.300000 1.000000
vt 1.000000 1.000000
vt 0.700000 1.000000
vt 0.400000 1.000000
vt -0.000000 1.000000
vn -0.5182 -0.6309 0.5774
vn -0.6682 -0.0544 0.7420
vn -0.5630 0.5429 0.6231
vn -0.2427 0.9328 0.2663
vn 0.1703 0.9665 -0.1923
vn 0.5182 0.6309 -0.5774
vn 0.6682 0.0544 -0.7420
vn 0.5630 -0.5429 -0.6231
vn 0.2427 -0.9328 -0.2663
vn -0.1703 -0.9665 0.1923
vn -0.7430 -0.0023 -0.6693
vn -0.1361 0.0334 -0.9901
vn -0.0630 0.9077 0.4148
vn -0.7241 0.6004 -0.3394
vn -0.9020 -0.4090 -0.1386
vn -0.2041 -0.3522 -0.9134
vn -0.4576 0.6221 -0.6353
vn -0.9988 -0.0368 -0.0323
vn -0.4109 -0.6038 -0.6831
vn -0.2330 0.4055 -0.8839
vn -0.9309 0.3487 -0.1090
vn -0.6774 -0.6255 -0.3871
vn 0.7430 0.0023 0.6693
vn -0.3309 -0.6130 0.7174
vn 0.7206 -0.5274 -0.4501
vn 0.3386 0.9404 -0.0311
vn -0.4767 -0.0524 0.8775
vn 0.4091 -0.9067 -0.1031
vn 0.6770 0.6141 -0.4056
vn -0.3744 0.5285 0.7619
vn 0.0075 -0.9394 0.3429
vn 0.8229 0.0534 -0.5657
vn 0.7034 0.0544 -0.7087
vn -0.1342 -0.9652 0.2244
vn -0.5264 0.5424 0.6548
vn 0.5535 0.6303 -0.5444
vn 0.2783 -0.9316 -0.2336
vn -0.6315 -0.0542 0.7735
vn 0.2060 0.9654 -0.1597
vn 0.5983 -0.5422 -0.5900
vn -0.4817 -0.6301 0.6091
vn -0.2065 0.9319 0.2983
vn -0.5201 -0.8371 -0.1695
vn -0.8598 0.4685 0.2032
vn 0.0754 0.5446 -0.8353
vn -0.1629 -0.8080 -0.5662
vn -0.9508 -0.0482 0.3060
vn -0.2256 0.8348 -0.5022
vn 0.1141 -0.4707 -0.8749
vn -0.8211 -0.5469 0.1636
vn -0.5828 0.8057 -0.1055
vn 0.2051 0.0459 -0.9777
vn 0.1690 0.0448 -0.9846
vn -0.5403 -0.8187 -0.1943
vn -0.8725 0.4580 0.1701
vn 0.0420 0.5325 -0.8454
vn -0.1910 -0.7903 -0.5822
vn -0.9615 -0.0472 0.2706
vn -0.2523 0.8163 -0.5196
vn 0.0799 -0.4604 -0.8841
vn -0.8346 -0.5349 0.1314
vn -0.6016 0.7879 -0.1317
usemtl Material.007
s off
f 1/1/1 2/2/1 4/3/1 3/4/1
f 3/4/2 4/3/2 6/5/2 5/6/2
f 5/6/3 6/5/3 8/7/3 7/8/3
f 7/8/4 8/7/4 10/9/4 9/10/4
f 9/10/5 10/9/5 12/11/5 11/12/5
f 11/12/6 12/11/6 14/13/6 13/14/6
f 13/14/7 14/13/7 16/15/7 15/16/7
f 15/16/8 16/15/8 18/17/8 17/18/8
f 4/3/1 2/2/1 22/19/1 21/20/1
f 17/18/9 18/17/9 20/21/9 19/22/9
f 19/22/10 20/21/10 2/23/10 1/24/10
f 1/25/11 3/26/11 5/27/11 7/28/11 9/29/11 11/30/11 13/31/11 15/32/11 17/33/11 19/34/11
f 104/35/6 101/36/6 36/37/6 37/38/6
f 8/7/3 6/5/3 23/39/3 24/40/3
f 6/5/2 4/3/2 21/20/2 23/39/2
f 2/23/10 20/21/10 30/41/10 22/42/10
f 20/21/9 18/17/9 29/43/9 30/41/9
f 18/17/8 16/15/8 28/44/8 29/43/8
f 16/15/7 14/13/7 27/45/7 28/44/7
f 14/13/6 12/11/6 26/46/6 27/45/6
f 12/11/5 10/9/5 25/47/5 26/46/5
f 10/9/4 8/7/4 24/40/4 25/47/4
f 72/48/12 71/49/12 47/50/12 48/51/12
f 105/52/3 102/53/3 33/54/3 34/55/3
f 106/56/10 103/57/10 40/58/10 32/59/10
f 107/60/7 104/35/7 37/38/7 38/61/7
f 108/62/4 105/52/4 34/55/4 35/63/4
f 109/64/1 106/65/1 32/66/1 31/67/1
f 110/68/8 107/60/8 38/61/8 39/69/8
f 101/36/5 108/62/5 35/63/5 36/37/5
f 102/53/2 109/64/2 31/67/2 33/54/2
f 103/57/9 110/68/9 39/69/9 40/58/9
f 84/70/13 81/71/13 54/72/13 55/73/13
f 74/74/14 73/75/14 44/76/14 45/77/14
f 76/78/15 75/79/15 42/80/15 41/81/15
f 77/82/16 72/48/16 48/51/16 49/83/16
f 78/84/17 74/74/17 45/77/17 46/85/17
f 79/86/18 76/78/18 41/81/18 43/87/18
f 80/88/19 77/82/19 49/83/19 50/89/19
f 71/49/20 78/84/20 46/85/20 47/50/20
f 73/75/21 79/86/21 43/87/21 44/76/21
f 75/90/22 80/88/22 50/89/22 42/91/22
f 51/92/23 52/93/23 60/94/23 59/95/23 58/96/23 57/97/23 56/98/23 55/99/23 54/100/23 53/101/23
f 85/102/24 82/103/24 52/104/24 51/105/24
f 86/106/25 83/107/25 58/108/25 59/109/25
f 87/110/26 84/70/26 55/73/26 56/111/26
f 88/112/27 85/102/27 51/105/27 53/113/27
f 89/114/28 86/106/28 59/109/28 60/115/28
f 90/116/29 87/110/29 56/111/29 57/117/29
f 81/71/30 88/112/30 53/113/30 54/72/30
f 82/118/31 89/114/31 60/115/31 52/119/31
f 83/107/32 90/116/32 57/117/32 58/108/32
f 48/51/33 47/50/33 70/120/33 65/121/33
f 42/91/34 50/89/34 69/122/34 63/123/34
f 44/76/35 43/87/35 68/124/35 61/125/35
f 47/50/36 46/85/36 67/126/36 70/120/36
f 50/89/37 49/83/37 66/127/37 69/122/37
f 43/87/38 41/81/38 64/128/38 68/124/38
f 46/85/39 45/77/39 62/129/39 67/126/39
f 49/83/40 48/51/40 65/121/40 66/127/40
f 41/81/41 42/80/41 63/130/41 64/128/41
f 45/77/42 44/76/42 61/125/42 62/129/42
f 32/59/43 40/58/43 80/88/43 75/90/43
f 34/55/44 33/54/44 79/86/44 73/75/44
f 37/38/45 36/37/45 78/84/45 71/49/45
f 40/58/46 39/69/46 77/82/46 80/88/46
f 33/54/47 31/67/47 76/78/47 79/86/47
f 36/37/48 35/63/48 74/74/48 78/84/48
f 39/69/49 38/61/49 72/48/49 77/82/49
f 31/67/50 32/66/50 75/79/50 76/78/50
f 35/63/51 34/55/51 73/75/51 74/74/51
f 38/61/52 37/38/52 71/49/52 72/48/52
f 65/121/53 70/120/53 90/116/53 83/107/53
f 63/123/54 69/122/54 89/114/54 82/118/54
f 61/125/55 68/124/55 88/112/55 81/71/55
f 70/120/56 67/126/56 87/110/56 90/116/56
f 69/122/57 66/127/57 86/106/57 89/114/57
f 68/124/58 64/128/58 85/102/58 88/112/58
f 67/126/59 62/129/59 84/70/59 87/110/59
f 66/127/60 65/121/60 83/107/60 86/106/60
f 64/128/61 63/130/61 82/103/61 85/102/61
f 62/129/62 61/125/62 81/71/62 84/70/62
f 30/41/9 29/43/9 100/131/9 95/132/9
f 23/39/2 21/20/2 99/133/2 93/134/2
f 26/46/5 25/47/5 98/135/5 91/136/5
f 29/43/8 28/44/8 97/137/8 100/131/8
f 21/20/1 22/19/1 96/138/1 99/133/1
f 25/47/4 24/40/4 94/139/4 98/135/4
f 28/44/7 27/45/7 92/140/7 97/137/7
f 22/42/10 30/41/10 95/132/10 96/141/10
f 24/40/3 23/39/3 93/134/3 94/139/3
f 27/45/6 26/46/6 91/136/6 92/140/6
f 95/132/9 100/131/9 110/68/9 103/57/9
f 93/134/2 99/133/2 109/64/2 102/53/2
f 91/136/5 98/135/5 108/62/5 101/36/5
f 100/131/8 97/137/8 107/60/8 110/68/8
f 99/133/1 96/138/1 106/65/1 109/64/1
f 98/135/4 94/139/4 105/52/4 108/62/4
f 97/137/7 92/140/7 104/35/7 107/60/7
f 96/141/10 95/132/10 103/57/10 106/56/10
f 94/139/3 93/134/3 102/53/3 105/52/3
f 92/140/6 91/136/6 101/36/6 104/35/6
