# Blender v3.4.1 OBJ File: 'level-track.blend'
# www.blender.org
mtllib Pillar_004.mtl
o Pillar.004_Cube.014
v 57.372513 -52.983089 -36.154499
v 59.365463 -52.844093 -36.248489
v 57.358990 -52.515812 -35.750225
v 59.351936 -52.376816 -35.844219
v 57.318626 -51.901363 -35.697407
v 59.311577 -51.762367 -35.791397
v 57.266842 -51.374439 -36.016216
v 59.259789 -51.235443 -36.110207
v 57.223415 -51.136314 -36.584877
v 59.216362 -50.997318 -36.678867
v 57.204933 -51.277935 -37.186180
v 59.197884 -51.138939 -37.280174
v 57.218456 -51.745213 -37.590454
v 59.211407 -51.606216 -37.684444
v 57.258820 -52.359661 -37.643272
v 59.251770 -52.220665 -37.737263
v 57.310604 -52.886581 -37.324463
v 59.303555 -52.747585 -37.418453
v 57.354031 -53.124710 -36.755802
v 59.346981 -52.985714 -36.849792
v 59.850174 -52.342064 -35.867714
v 59.863701 -52.809341 -36.271988
v 59.809814 -51.727615 -35.814896
v 59.758026 -51.200695 -36.133705
v 59.714600 -50.962566 -36.702366
v 59.696117 -51.104191 -37.303669
v 59.709641 -51.571468 -37.707943
v 59.750004 -52.185917 -37.760761
v 59.801792 -52.712837 -37.441952
v 59.845219 -52.950966 -36.873291
v 70.990891 -51.565067 -36.393131
v 71.004417 -52.032345 -36.797401
v 70.950531 -50.950619 -36.340313
v 70.898743 -50.423698 -36.659122
v 70.855316 -50.185570 -37.227783
v 70.836838 -50.327194 -37.829086
v 70.850357 -50.794472 -38.233360
v 70.890724 -51.408920 -38.286179
v 70.942505 -51.935841 -37.967369
v 70.985931 -52.173969 -37.398708
v 71.467400 -51.683086 -36.057659
v 71.486168 -52.331497 -36.618637
v 71.411392 -50.830460 -35.984364
v 71.339531 -50.099289 -36.426754
v 71.279274 -49.768856 -37.215843
v 71.253624 -49.965374 -38.050232
v 71.272392 -50.613785 -38.611210
v 71.328400 -51.466408 -38.684502
v 71.400261 -52.197582 -38.242115
v 71.460518 -52.528015 -37.453022
v 73.924843 -51.544437 -36.096069
v 73.944748 -52.232056 -36.690968
v 73.865448 -50.640251 -36.018341
v 73.789246 -49.864864 -36.487480
v 73.725342 -49.514450 -37.324291
v 73.698143 -49.722855 -38.209137
v 73.718040 -50.410473 -38.804039
v 73.777435 -51.314659 -38.881763
v 73.853645 -52.090046 -38.412624
v 73.917549 -52.440460 -37.575817
v 72.767357 -50.054901 -36.541676
v 72.710258 -49.741821 -37.289333
v 72.906288 -52.169910 -36.723480
v 72.888504 -51.555542 -36.191959
v 72.756805 -51.350243 -38.680882
v 72.824890 -52.043026 -38.261719
v 72.685959 -49.928020 -38.079914
v 72.835442 -50.747684 -36.122513
v 72.881989 -52.356106 -37.514061
v 72.703743 -50.542385 -38.611435
v 71.111023 -50.711231 -38.399620
v 71.158112 -51.428131 -38.461246
v 71.167473 -50.278637 -36.562901
v 71.116806 -50.000805 -37.226379
v 71.290764 -52.155506 -36.724239
v 71.274986 -51.610313 -36.252563
v 71.218536 -52.042908 -38.089279
v 71.095245 -50.166042 -37.927944
v 71.227890 -50.893414 -36.190933
v 71.269203 -52.320740 -37.425804
v 73.213760 -49.795425 -36.365883
v 73.384552 -52.395283 -36.589371
v 73.200798 -51.387714 -38.995491
v 73.143578 -49.410568 -37.284939
v 73.362694 -51.640079 -35.935997
v 73.284492 -52.239315 -38.480240
v 73.113708 -49.639458 -38.256752
v 73.297455 -50.647026 -35.850632
v 73.354675 -52.624172 -37.561184
v 73.135567 -50.394661 -38.910126
v 64.542358 -50.766193 -37.532230
v 64.555885 -51.233471 -37.936501
v 64.656052 -51.389622 -36.043453
v 64.604271 -50.862698 -36.362263
v 64.691460 -52.612968 -37.101849
v 64.709938 -52.471348 -36.500546
v 64.596245 -51.847919 -37.989319
v 64.560844 -50.624573 -36.930923
v 64.696419 -52.004070 -36.096275
v 64.648033 -52.374844 -37.670509
v 66.064041 -50.660069 -37.603992
v 66.177734 -51.283493 -36.115219
v 66.213135 -52.506844 -37.173615
v 66.077560 -51.127346 -38.008263
v 66.125946 -50.756573 -36.434029
v 66.231621 -52.365219 -36.572308
v 66.117928 -51.741795 -38.061085
v 66.082520 -50.518444 -37.002689
v 66.218094 -51.897942 -36.168037
v 66.169708 -52.268715 -37.742275
vt 1.000000 0.500000
vt 1.000000 1.000000
vt 0.900000 1.000000
vt 0.900000 0.500000
vt 0.800000 1.000000
vt 0.800000 0.500000
vt 0.700000 1.000000
vt 0.700000 0.500000
vt 0.600000 1.000000
vt 0.600000 0.500000
vt 0.500000 1.000000
vt 0.500000 0.500000
vt 0.400000 1.000000
vt 0.400000 0.500000
vt 0.300000 1.000000
vt 0.300000 0.500000
vt 0.200000 1.000000
vt 0.200000 0.500000
vt 1.000000 1.000000
vt 0.900000 1.000000
vt 0.100000 1.000000
vt 0.100000 0.500000
vt -0.000000 1.000000
vt -0.000000 0.500000
vt 0.750000 0.490000
vt 0.891068 0.444164
vt 0.978254 0.324164
vt 0.978254 0.175836
vt 0.891068 0.055836
vt 0.750000 0.010000
vt 0.608932 0.055836
vt 0.521746 0.175836
vt 0.521746 0.324164
vt 0.608932 0.444164
vt 0.400000 1.000000
vt 0.500000 1.000000
vt 0.500000 1.000000
vt 0.400000 1.000000
vt 0.800000 1.000000
vt 0.700000 1.000000
vt 0.100000 1.000000
vt -0.000000 1.000000
vt 0.200000 1.000000
vt 0.300000 1.000000
vt 0.400000 1.000000
vt 0.500000 1.000000
vt 0.600000 1.000000
vt 0.300000 1.000000
vt 0.400000 1.000000
vt 0.400000 1.000000
vt 0.300000 1.000000
vt 0.700000 1.000000
vt 0.800000 1.000000
vt 0.800000 1.000000
vt 0.700000 1.000000
vt -0.000000 1.000000
vt 0.100000 1.000000
vt 0.100000 1.000000
vt -0.000000 1.000000
vt 0.300000 1.000000
vt 0.300000 1.000000
vt 0.600000 1.000000
vt 0.600000 1.000000
vt 0.900000 1.000000
vt 1.000000 1.000000
vt 1.000000 1.000000
vt 0.900000 1.000000
vt 0.200000 1.000000
vt 0.200000 1.000000
vt 0.600000 1.000000
vt 0.700000 1.000000
vt 0.700000 1.000000
vt 0.600000 1.000000
vt 0.600000 1.000000
vt 0.700000 1.000000
vt 0.700000 1.000000
vt 0.600000 1.000000
vt 0.900000 1.000000
vt 1.000000 1.000000
vt 1.000000 1.000000
vt 0.900000 1.000000
vt 0.200000 1.000000
vt 0.200000 1.000000
vt 0.500000 1.000000
vt 0.500000 1.000000
vt 0.800000 1.000000
vt 0.800000 1.000000
vt 0.100000 1.000000
vt 0.100000 1.000000
vt -0.000000 1.000000
vt -0.000000 1.000000
vt 0.391068 0.444164
vt 0.250000 0.490000
vt 0.108932 0.444164
vt 0.021746 0.324164
vt 0.021746 0.175836
vt 0.108932 0.055836
vt 0.250000 0.010000
vt 0.391068 0.055836
vt 0.478254 0.175836
vt 0.478254 0.324164
vt 0.900000 1.000000
vt 1.000000 1.000000
vt 1.000000 1.000000
vt 0.900000 1.000000
vt 0.200000 1.000000
vt 0.300000 1.000000
vt 0.300000 1.000000
vt 0.200000 1.000000
vt 0.500000 1.000000
vt 0.500000 1.000000
vt 0.800000 1.000000
vt 0.800000 1.000000
vt 0.100000 1.000000
vt 0.100000 1.000000
vt 0.400000 1.000000
vt 0.400000 1.000000
vt -0.000000 1.000000
vt -0.000000 1.000000
vt 0.400000 1.000000
vt 0.300000 1.000000
vt 0.100000 1.000000
vt -0.000000 1.000000
vt 0.800000 1.000000
vt 0.700000 1.000000
vt 0.500000 1.000000
vt 0.200000 1.000000
vt 0.900000 1.000000
vt 0.600000 1.000000
vt 1.000000 1.000000
vt 0.200000 1.000000
vt 0.100000 1.000000
vt 0.900000 1.000000
vt 0.800000 1.000000
vt 0.600000 1.000000
vt 0.500000 1.000000
vt 0.300000 1.000000
vt 1.000000 1.000000
vt 0.700000 1.000000
vt 0.400000 1.000000
vt -0.000000 1.000000
vn 0.0810 -0.6508 0.7549
vn 0.0527 -0.0821 0.9952
vn 0.0042 0.5180 0.8554
vn -0.0458 0.9202 0.3888
vn -0.0784 0.9709 -0.2263
vn -0.0810 0.6508 -0.7549
vn -0.0527 0.0821 -0.9952
vn -0.0042 -0.5180 -0.8554
vn 0.0458 -0.9202 -0.3888
vn 0.0784 -0.9709 0.2263
vn -0.9965 -0.0695 0.0470
vn -0.7951 -0.0001 -0.6064
vn 0.1875 0.9111 0.3672
vn -0.7907 0.5408 0.2868
vn -0.7089 -0.4731 0.5231
vn -0.7639 -0.3874 -0.5162
vn -0.8117 0.5736 -0.1101
vn -0.7271 -0.1061 0.6782
vn -0.7315 -0.6470 -0.2151
vn -0.8134 0.3669 -0.4513
vn -0.7584 0.2812 0.5880
vn -0.7105 -0.6797 0.1819
vn 0.9965 0.0695 -0.0470
vn 0.3109 -0.6167 0.7232
vn 0.2280 -0.4875 -0.8428
vn 0.1559 0.9604 -0.2310
vn 0.2833 -0.0636 0.9569
vn 0.2767 -0.8787 -0.3891
vn 0.1533 0.6491 -0.7451
vn 0.2362 0.5199 0.8209
vn 0.3083 -0.9280 0.2091
vn 0.1809 0.0960 -0.9788
vn -0.0044 0.0854 -0.9963
vn 0.1265 -0.9664 0.2237
vn 0.0524 0.5207 0.8521
vn -0.0327 0.6534 -0.7563
vn 0.0940 -0.9157 -0.3906
vn 0.1008 -0.0786 0.9918
vn -0.0301 0.9731 -0.2283
vn 0.0440 -0.5140 -0.8567
vn 0.1291 -0.6467 0.7518
vn 0.0024 0.9225 0.3861
vn -0.4322 -0.8747 0.2193
vn -0.4964 0.4131 0.7635
vn -0.5701 0.5280 -0.6294
vn -0.4604 -0.8308 -0.3127
vn -0.4545 -0.1059 0.8844
vn -0.5678 0.8049 -0.1721
vn -0.5037 -0.4829 -0.7163
vn -0.4300 -0.5978 0.6766
vn -0.5397 0.7610 0.3599
vn -0.5456 0.0361 -0.8373
vn -0.5760 0.0324 -0.8168
vn -0.4652 -0.8583 0.2165
vn -0.5279 0.4011 0.7486
vn -0.6000 0.5134 -0.6135
vn -0.4927 -0.8154 -0.3038
vn -0.4869 -0.1065 0.8669
vn -0.5978 0.7842 -0.1663
vn -0.5351 -0.4752 -0.6985
vn -0.4630 -0.5876 0.6637
vn -0.5703 0.7413 0.3540
usemtl Material.007
s off
f 1/1/1 2/2/1 4/3/1 3/4/1
f 3/4/2 4/3/2 6/5/2 5/6/2
f 5/6/3 6/5/3 8/7/3 7/8/3
f 7/8/4 8/7/4 10/9/4 9/10/4
f 9/10/5 10/9/5 12/11/5 11/12/5
f 11/12/6 12/11/6 14/13/6 13/14/6
f 13/14/7 14/13/7 16/15/7 15/16/7
f 15/16/8 16/15/8 18/17/8 17/18/8
f 4/3/1 2/2/1 22/19/1 21/20/1
f 17/18/9 18/17/9 20/21/9 19/22/9
f 19/22/10 20/21/10 2/23/10 1/24/10
f 1/25/11 3/26/11 5/27/11 7/28/11 9/29/11 11/30/11 13/31/11 15/32/11 17/33/11 19/34/11
f 104/35/6 101/36/6 36/37/6 37/38/6
f 8/7/3 6/5/3 23/39/3 24/40/3
f 6/5/2 4/3/2 21/20/2 23/39/2
f 2/23/10 20/21/10 30/41/10 22/42/10
f 20/21/9 18/17/9 29/43/9 30/41/9
f 18/17/8 16/15/8 28/44/8 29/43/8
f 16/15/7 14/13/7 27/45/7 28/44/7
f 14/13/6 12/11/6 26/46/6 27/45/6
f 12/11/5 10/9/5 25/47/5 26/46/5
f 10/9/4 8/7/4 24/40/4 25/47/4
f 72/48/12 71/49/12 47/50/12 48/51/12
f 105/52/3 102/53/3 33/54/3 34/55/3
f 106/56/10 103/57/10 40/58/10 32/59/10
f 107/60/7 104/35/7 37/38/7 38/61/7
f 108/62/4 105/52/4 34/55/4 35/63/4
f 109/64/1 106/65/1 32/66/1 31/67/1
f 110/68/8 107/60/8 38/61/8 39/69/8
f 101/36/5 108/62/5 35/63/5 36/37/5
f 102/53/2 109/64/2 31/67/2 33/54/2
f 103/57/9 110/68/9 39/69/9 40/58/9
f 84/70/13 81/71/13 54/72/13 55/73/13
f 74/74/14 73/75/14 44/76/14 45/77/14
f 76/78/15 75/79/15 42/80/15 41/81/15
f 77/82/16 72/48/16 48/51/16 49/83/16
f 78/84/17 74/74/17 45/77/17 46/85/17
f 79/86/18 76/78/18 41/81/18 43/87/18
f 80/88/19 77/82/19 49/83/19 50/89/19
f 71/49/20 78/84/20 46/85/20 47/50/20
f 73/75/21 79/86/21 43/87/21 44/76/21
f 75/90/22 80/88/22 50/89/22 42/91/22
f 51/92/23 52/93/23 60/94/23 59/95/23 58/96/23 57/97/23 56/98/23 55/99/23 54/100/23 53/101/23
f 85/102/24 82/103/24 52/104/24 51/105/24
f 86/106/25 83/107/25 58/108/25 59/109/25
f 87/110/26 84/70/26 55/73/26 56/111/26
f 88/112/27 85/102/27 51/105/27 53/113/27
f 89/114/28 86/106/28 59/109/28 60/115/28
f 90/116/29 87/110/29 56/111/29 57/117/29
f 81/71/30 88/112/30 53/113/30 54/72/30
f 82/118/31 89/114/31 60/115/31 52/119/31
f 83/107/32 90/116/32 57/117/32 58/108/32
f 48/51/33 47/50/33 70/120/33 65/121/33
f 42/91/34 50/89/34 69/122/34 63/123/34
f 44/76/35 43/87/35 68/124/35 61/125/35
f 47/50/36 46/85/36 67/126/36 70/120/36
f 50/89/37 49/83/37 66/127/37 69/122/37
f 43/87/38 41/81/38 64/128/38 68/124/38
f 46/85/39 45/77/39 62/129/39 67/126/39
f 49/83/40 48/51/40 65/121/40 66/127/40
f 41/81/41 42/80/41 63/130/41 64/128/41
f 45/77/42 44/76/42 61/125/42 62/129/42
f 32/59/43 40/58/43 80/88/43 75/90/43
f 34/55/44 33/54/44 79/86/44 73/75/44
f 37/38/45 36/37/45 78/84/45 71/49/45
f 40/58/46 39/69/46 77/82/46 80/88/46
f 33/54/47 31/67/47 76/78/47 79/86/47
f 36/37/48 35/63/48 74/74/48 78/84/48
f 39/69/49 38/61/49 72/48/49 77/82/49
f 31/67/50 32/66/50 75/79/50 76/78/50
f 35/63/51 34/55/51 73/75/51 74/74/51
f 38/61/52 37/38/52 71/49/52 72/48/52
f 65/121/53 70/120/53 90/116/53 83/107/53
f 63/123/54 69/122/54 89/114/54 82/118/54
f 61/125/55 68/124/55 88/112/55 81/71/55
f 70/120/56 67/126/56 87/110/56 90/116/56
f 69/122/57 66/127/57 86/106/57 89/114/57
f 68/124/58 64/128/58 85/102/58 88/112/58
f 67/126/59 62/129/59 84/70/59 87/110/59
f 66/127/60 65/121/60 83/107/60 86/106/60
f 64/128/61 63/130/61 82/103/61 85/102/61
f 62/129/62 61/125/62 81/71/62 84/70/62
f 30/41/9 29/43/9 100/131/9 95/132/9
f 23/39/2 21/20/2 99/133/2 93/134/2
f 26/46/5 25/47/5 98/135/5 91/136/5
f 29/43/8 28/44/8 97/137/8 100/131/8
f 21/20/1 22/19/1 96/138/1 99/133/1
f 25/47/4 24/40/4 94/139/4 98/135/4
f 28/44/7 27/45/7 92/140/7 97/137/7
f 22/42/10 30/41/10 95/132/10 96/141/10
f 24/40/3 23/39/3 93/134/3 94/139/3
f 27/45/6 26/46/6 91/136/6 92/140/6
f 95/132/9 100/131/9 110/68/9 103/57/9
f 93/134/2 99/133/2 109/64/2 102/53/2
f 91/136/5 98/135/5 108/62/5 101/36/5
f 100/131/8 97/137/8 107/60/8 110/68/8
f 99/133/1 96/138/1 106/65/1 109/64/1
f 98/135/4 94/139/4 105/52/4 108/62/4
f 97/137/7 92/140/7 104/35/7 107/60/7
f 96/141/10 95/132/10 103/57/10 106/56/10
f 94/139/3 93/134/3 102/53/3 105/52/3
f 92/140/6 91/136/6 101/36/6 104/35/6
