# Blender v3.4.1 OBJ File: 'level-track.blend'
# www.blender.org
mtllib Pillar_002.mtl
o Pillar.002_Cube.012
v -202.789413 -17.417892 -124.444244
v -200.801270 -17.425602 -124.226967
v -202.830994 -16.946260 -124.047005
v -200.842850 -16.953972 -123.829727
v -202.833618 -16.329939 -124.001114
v -200.845474 -16.337648 -123.783836
v -202.796280 -15.804339 -124.324097
v -200.808136 -15.812050 -124.106819
v -202.733246 -15.570225 -124.892586
v -200.745102 -15.577935 -124.675308
v -202.668594 -15.717018 -125.489441
v -200.680435 -15.724729 -125.272163
v -202.626999 -16.188648 -125.886681
v -200.638855 -16.196360 -125.669403
v -202.624374 -16.804972 -125.932579
v -200.636230 -16.812681 -125.715302
v -202.661713 -17.330570 -125.609596
v -200.673569 -17.338280 -125.392319
v -202.724747 -17.564684 -125.041107
v -200.736603 -17.572395 -124.823822
v -200.345810 -16.955898 -123.775406
v -200.304230 -17.427530 -124.172653
v -200.348434 -16.339577 -123.729515
v -200.311096 -15.813977 -124.052498
v -200.248062 -15.579863 -124.620987
v -200.183411 -15.726656 -125.217842
v -200.141815 -16.198286 -125.615082
v -200.139191 -16.814610 -125.660980
v -200.176529 -17.340208 -125.337997
v -200.239563 -17.574324 -124.769508
v -189.231934 -16.999001 -122.560806
v -189.190353 -17.470633 -122.958046
v -189.234558 -16.382679 -122.514915
v -189.197220 -15.857080 -122.837898
v -189.134186 -15.622965 -123.406387
v -189.069534 -15.769758 -124.003242
v -189.027939 -16.241388 -124.400482
v -189.025314 -16.857712 -124.446381
v -189.062653 -17.383310 -124.123398
v -189.125687 -17.617424 -123.554901
v -188.823288 -17.147575 -122.155266
v -188.765579 -17.802025 -122.706490
v -188.826935 -16.292349 -122.091583
v -188.775116 -15.563011 -122.539764
v -188.687653 -15.238148 -123.328621
v -188.597931 -15.441841 -124.156837
v -188.540222 -16.096291 -124.708061
v -188.536575 -16.951517 -124.771744
v -188.588379 -17.680855 -124.323563
v -188.675858 -18.005718 -123.534706
v -186.386200 -17.188847 -121.810806
v -186.325012 -17.882872 -122.395363
v -186.390060 -16.281902 -121.743271
v -186.335129 -15.508462 -122.218552
v -186.242371 -15.163952 -123.055115
v -186.147217 -15.379964 -123.933411
v -186.086029 -16.073990 -124.517967
v -186.082153 -16.980934 -124.585503
v -186.137100 -17.754374 -124.110222
v -186.229858 -18.098883 -123.273666
v -187.347427 -15.624127 -122.431099
v -187.264542 -15.316322 -123.178535
v -187.338379 -17.745583 -122.589073
v -187.393066 -17.125492 -122.066795
v -187.121399 -16.939730 -124.545891
v -187.170502 -17.630774 -124.121239
v -187.179535 -15.509319 -123.963264
v -187.396515 -16.315172 -122.006454
v -187.253372 -17.938580 -123.373802
v -187.124863 -16.129410 -124.485550
v -188.739212 -16.179283 -124.524155
v -188.736145 -16.898367 -124.577705
v -188.936722 -15.730893 -122.701027
v -188.863174 -15.457745 -123.364311
v -188.928696 -17.613485 -122.841217
v -188.977219 -17.063213 -122.377739
v -188.779709 -17.511604 -124.200867
v -188.787735 -15.629013 -124.060684
v -188.980286 -16.344130 -122.324188
v -188.853256 -17.784752 -123.537590
v -186.915787 -15.395874 -122.187988
v -186.904678 -18.003660 -122.382172
v -186.637970 -17.013069 -124.787582
v -186.813919 -15.017504 -123.106766
v -186.971893 -17.241421 -121.740158
v -186.698303 -17.862534 -124.265579
v -186.709412 -15.254747 -124.071396
v -186.976135 -16.245337 -121.665985
v -186.800186 -18.240902 -123.346802
v -186.642212 -16.016987 -124.713402
v -195.348831 -15.745405 -124.689491
v -195.307251 -16.217037 -125.086731
v -195.513870 -16.358326 -123.201157
v -195.476532 -15.832727 -123.524139
v -195.404999 -17.593073 -124.241150
v -195.469666 -17.446280 -123.644295
v -195.304626 -16.833359 -125.132622
v -195.413498 -15.598612 -124.092636
v -195.511246 -16.974648 -123.247055
v -195.341965 -17.358957 -124.809639
v -193.830826 -15.751293 -124.523590
v -193.995865 -16.364214 -123.035263
v -193.886993 -17.598959 -124.075249
v -193.789246 -16.222923 -124.920830
v -193.958527 -15.838614 -123.358246
v -193.951645 -17.452166 -123.478394
v -193.786621 -16.839245 -124.966728
v -193.895493 -15.604500 -123.926735
v -193.993240 -16.980536 -123.081154
v -193.823959 -17.364845 -124.643745
vt 1.000000 0.500000
vt 1.000000 1.000000
vt 0.900000 1.000000
vt 0.900000 0.500000
vt 0.800000 1.000000
vt 0.800000 0.500000
vt 0.700000 1.000000
vt 0.700000 0.500000
vt 0.600000 1.000000
vt 0.600000 0.500000
vt 0.500000 1.000000
vt 0.500000 0.500000
vt 0.400000 1.000000
vt 0.400000 0.500000
vt 0.300000 1.000000
vt 0.300000 0.500000
vt 0.200000 1.000000
vt 0.200000 0.500000
vt 1.000000 1.000000
vt 0.900000 1.000000
vt 0.100000 1.000000
vt 0.100000 0.500000
vt -0.000000 1.000000
vt -0.000000 0.500000
vt 0.750000 0.490000
vt 0.891068 0.444164
vt 0.978254 0.324164
vt 0.978254 0.175836
vt 0.891068 0.055836
vt 0.750000 0.010000
vt 0.608932 0.055836
vt 0.521746 0.175836
vt 0.521746 0.324164
vt 0.608932 0.444164
vt 0.400000 1.000000
vt 0.500000 1.000000
vt 0.500000 1.000000
vt 0.400000 1.000000
vt 0.800000 1.000000
vt 0.700000 1.000000
vt 0.100000 1.000000
vt -0.000000 1.000000
vt 0.200000 1.000000
vt 0.300000 1.000000
vt 0.400000 1.000000
vt 0.500000 1.000000
vt 0.600000 1.000000
vt 0.300000 1.000000
vt 0.400000 1.000000
vt 0.400000 1.000000
vt 0.300000 1.000000
vt 0.700000 1.000000
vt 0.800000 1.000000
vt 0.800000 1.000000
vt 0.700000 1.000000
vt -0.000000 1.000000
vt 0.100000 1.000000
vt 0.100000 1.000000
vt -0.000000 1.000000
vt 0.300000 1.000000
vt 0.300000 1.000000
vt 0.600000 1.000000
vt 0.600000 1.000000
vt 0.900000 1.000000
vt 1.000000 1.000000
vt 1.000000 1.000000
vt 0.900000 1.000000
vt 0.200000 1.000000
vt 0.200000 1.000000
vt 0.600000 1.000000
vt 0.700000 1.000000
vt 0.700000 1.000000
vt 0.600000 1.000000
vt 0.600000 1.000000
vt 0.700000 1.000000
vt 0.700000 1.000000
vt 0.600000 1.000000
vt 0.900000 1.000000
vt 1.000000 1.000000
vt 1.000000 1.000000
vt 0.900000 1.000000
vt 0.200000 1.000000
vt 0.200000 1.000000
vt 0.500000 1.000000
vt 0.500000 1.000000
vt 0.800000 1.000000
vt 0.800000 1.000000
vt 0.100000 1.000000
vt 0.100000 1.000000
vt -0.000000 1.000000
vt -0.000000 1.000000
vt 0.391068 0.444164
vt 0.250000 0.490000
vt 0.108932 0.444164
vt 0.021746 0.324164
vt 0.021746 0.175836
vt 0.108932 0.055836
vt 0.250000 0.010000
vt 0.391068 0.055836
vt 0.478254 0.175836
vt 0.478254 0.324164
vt 0.900000 1.000000
vt 1.000000 1.000000
vt 1.000000 1.000000
vt 0.900000 1.000000
vt 0.200000 1.000000
vt 0.300000 1.000000
vt 0.300000 1.000000
vt 0.200000 1.000000
vt 0.500000 1.000000
vt 0.500000 1.000000
vt 0.800000 1.000000
vt 0.800000 1.000000
vt 0.100000 1.000000
vt 0.100000 1.000000
vt 0.400000 1.000000
vt 0.400000 1.000000
vt -0.000000 1.000000
vt -0.000000 1.000000
vt 0.400000 1.000000
vt 0.300000 1.000000
vt 0.100000 1.000000
vt -0.000000 1.000000
vt 0.800000 1.000000
vt 0.700000 1.000000
vt 0.500000 1.000000
vt 0.200000 1.000000
vt 0.900000 1.000000
vt 0.600000 1.000000
vt 1.000000 1.000000
vt 0.200000 1.000000
vt 0.100000 1.000000
vt 0.900000 1.000000
vt 0.800000 1.000000
vt 0.600000 1.000000
vt 0.500000 1.000000
vt 0.300000 1.000000
vt 1.000000 1.000000
vt 0.700000 1.000000
vt 0.400000 1.000000
vt -0.000000 1.000000
vn -0.0854 -0.6462 0.7583
vn -0.1086 -0.0743 0.9913
vn -0.0904 0.5261 0.8456
vn -0.0376 0.9255 0.3770
vn 0.0295 0.9714 -0.2357
vn 0.0854 0.6463 -0.7583
vn 0.1086 0.0743 -0.9913
vn 0.0904 -0.5261 -0.8456
vn -0.0854 -0.6463 0.7583
vn 0.0376 -0.9255 -0.3769
vn -0.0295 -0.9714 0.2357
vn -0.9941 0.0039 -0.1086
vn 0.0854 0.6462 -0.7583
vn 0.0376 -0.9255 -0.3770
vn -0.6892 0.0509 -0.7228
vn 0.1950 0.8991 0.3919
vn -0.7836 0.6003 0.1603
vn -0.8144 -0.4141 0.4065
vn -0.7010 -0.3366 -0.6288
vn -0.7402 0.6299 -0.2351
vn -0.8294 -0.0450 0.5568
vn -0.7350 -0.5944 -0.3263
vn -0.7042 0.4200 -0.5724
vn -0.8176 0.3425 0.4628
vn -0.7783 -0.6240 0.0691
vn 0.9941 -0.0038 0.1086
vn 0.1485 -0.6294 0.7628
vn 0.3194 -0.5125 -0.7971
vn 0.2603 0.9438 -0.2039
vn 0.1259 -0.0731 0.9893
vn 0.2681 -0.9009 -0.3413
vn 0.3146 0.6276 -0.7122
vn 0.1437 0.5107 0.8477
vn 0.2028 -0.9456 0.2545
vn 0.3372 0.0713 -0.9387
vn 0.1566 0.0740 -0.9849
vn 0.0186 -0.9704 0.2407
vn -0.0422 0.5253 0.8499
vn 0.1334 0.6453 -0.7522
vn 0.0856 -0.9246 -0.3713
vn -0.0604 -0.0744 0.9954
vn 0.0776 0.9701 -0.2302
vn 0.1383 -0.5256 -0.8394
vn -0.0372 -0.6457 0.7627
vn 0.0105 0.9242 0.3818
vn -0.5244 -0.8383 0.1494
vn -0.5771 0.4570 0.6769
vn -0.4250 0.5609 -0.7105
vn -0.4663 -0.7986 -0.3806
vn -0.5928 -0.0623 0.8030
vn -0.4733 0.8422 -0.2584
vn -0.4207 -0.4531 -0.7860
vn -0.5727 -0.5571 0.6014
vn -0.5314 0.8024 0.2715
vn -0.4049 0.0662 -0.9120
vn -0.4384 0.0649 -0.8965
vn -0.5552 -0.8196 0.1414
vn -0.6067 0.4471 0.6573
vn -0.4580 0.5487 -0.6994
vn -0.4984 -0.7808 -0.3768
vn -0.6221 -0.0608 0.7806
vn -0.5052 0.8237 -0.2573
vn -0.4538 -0.4429 -0.7732
vn -0.6024 -0.5446 0.5835
vn -0.5620 0.7849 0.2609
usemtl Material.007
s off
f 1/1/1 2/2/1 4/3/1 3/4/1
f 3/4/2 4/3/2 6/5/2 5/6/2
f 5/6/3 6/5/3 8/7/3 7/8/3
f 7/8/4 8/7/4 10/9/4 9/10/4
f 9/10/5 10/9/5 12/11/5 11/12/5
f 11/12/6 12/11/6 14/13/6 13/14/6
f 13/14/7 14/13/7 16/15/7 15/16/7
f 15/16/8 16/15/8 18/17/8 17/18/8
f 4/3/9 2/2/9 22/19/9 21/20/9
f 17/18/10 18/17/10 20/21/10 19/22/10
f 19/22/11 20/21/11 2/23/11 1/24/11
f 1/25/12 3/26/12 5/27/12 7/28/12 9/29/12 11/30/12 13/31/12 15/32/12 17/33/12 19/34/12
f 104/35/13 101/36/13 36/37/13 37/38/13
f 8/7/3 6/5/3 23/39/3 24/40/3
f 6/5/2 4/3/2 21/20/2 23/39/2
f 2/23/11 20/21/11 30/41/11 22/42/11
f 20/21/14 18/17/14 29/43/14 30/41/14
f 18/17/8 16/15/8 28/44/8 29/43/8
f 16/15/7 14/13/7 27/45/7 28/44/7
f 14/13/13 12/11/13 26/46/13 27/45/13
f 12/11/5 10/9/5 25/47/5 26/46/5
f 10/9/4 8/7/4 24/40/4 25/47/4
f 72/48/15 71/49/15 47/50/15 48/51/15
f 105/52/3 102/53/3 33/54/3 34/55/3
f 106/56/11 103/57/11 40/58/11 32/59/11
f 107/60/7 104/35/7 37/38/7 38/61/7
f 108/62/4 105/52/4 34/55/4 35/63/4
f 109/64/1 106/65/1 32/66/1 31/67/1
f 110/68/8 107/60/8 38/61/8 39/69/8
f 101/36/5 108/62/5 35/63/5 36/37/5
f 102/53/2 109/64/2 31/67/2 33/54/2
f 103/57/14 110/68/14 39/69/14 40/58/14
f 84/70/16 81/71/16 54/72/16 55/73/16
f 74/74/17 73/75/17 44/76/17 45/77/17
f 76/78/18 75/79/18 42/80/18 41/81/18
f 77/82/19 72/48/19 48/51/19 49/83/19
f 78/84/20 74/74/20 45/77/20 46/85/20
f 79/86/21 76/78/21 41/81/21 43/87/21
f 80/88/22 77/82/22 49/83/22 50/89/22
f 71/49/23 78/84/23 46/85/23 47/50/23
f 73/75/24 79/86/24 43/87/24 44/76/24
f 75/90/25 80/88/25 50/89/25 42/91/25
f 51/92/26 52/93/26 60/94/26 59/95/26 58/96/26 57/97/26 56/98/26 55/99/26 54/100/26 53/101/26
f 85/102/27 82/103/27 52/104/27 51/105/27
f 86/106/28 83/107/28 58/108/28 59/109/28
f 87/110/29 84/70/29 55/73/29 56/111/29
f 88/112/30 85/102/30 51/105/30 53/113/30
f 89/114/31 86/106/31 59/109/31 60/115/31
f 90/116/32 87/110/32 56/111/32 57/117/32
f 81/71/33 88/112/33 53/113/33 54/72/33
f 82/118/34 89/114/34 60/115/34 52/119/34
f 83/107/35 90/116/35 57/117/35 58/108/35
f 48/51/36 47/50/36 70/120/36 65/121/36
f 42/91/37 50/89/37 69/122/37 63/123/37
f 44/76/38 43/87/38 68/124/38 61/125/38
f 47/50/39 46/85/39 67/126/39 70/120/39
f 50/89/40 49/83/40 66/127/40 69/122/40
f 43/87/41 41/81/41 64/128/41 68/124/41
f 46/85/42 45/77/42 62/129/42 67/126/42
f 49/83/43 48/51/43 65/121/43 66/127/43
f 41/81/44 42/80/44 63/130/44 64/128/44
f 45/77/45 44/76/45 61/125/45 62/129/45
f 32/59/46 40/58/46 80/88/46 75/90/46
f 34/55/47 33/54/47 79/86/47 73/75/47
f 37/38/48 36/37/48 78/84/48 71/49/48
f 40/58/49 39/69/49 77/82/49 80/88/49
f 33/54/50 31/67/50 76/78/50 79/86/50
f 36/37/51 35/63/51 74/74/51 78/84/51
f 39/69/52 38/61/52 72/48/52 77/82/52
f 31/67/53 32/66/53 75/79/53 76/78/53
f 35/63/54 34/55/54 73/75/54 74/74/54
f 38/61/55 37/38/55 71/49/55 72/48/55
f 65/121/56 70/120/56 90/116/56 83/107/56
f 63/123/57 69/122/57 89/114/57 82/118/57
f 61/125/58 68/124/58 88/112/58 81/71/58
f 70/120/59 67/126/59 87/110/59 90/116/59
f 69/122/60 66/127/60 86/106/60 89/114/60
f 68/124/61 64/128/61 85/102/61 88/112/61
f 67/126/62 62/129/62 84/70/62 87/110/62
f 66/127/63 65/121/63 83/107/63 86/106/63
f 64/128/64 63/130/64 82/103/64 85/102/64
f 62/129/65 61/125/65 81/71/65 84/70/65
f 30/41/14 29/43/14 100/131/14 95/132/14
f 23/39/2 21/20/2 99/133/2 93/134/2
f 26/46/5 25/47/5 98/135/5 91/136/5
f 29/43/8 28/44/8 97/137/8 100/131/8
f 21/20/1 22/19/1 96/138/1 99/133/1
f 25/47/4 24/40/4 94/139/4 98/135/4
f 28/44/7 27/45/7 92/140/7 97/137/7
f 22/42/11 30/41/11 95/132/11 96/141/11
f 24/40/3 23/39/3 93/134/3 94/139/3
f 27/45/6 26/46/6 91/136/6 92/140/6
f 95/132/14 100/131/14 110/68/14 103/57/14
f 93/134/2 99/133/2 109/64/2 102/53/2
f 91/136/5 98/135/5 108/62/5 101/36/5
f 100/131/8 97/137/8 107/60/8 110/68/8
f 99/133/1 96/138/1 106/65/1 109/64/1
f 98/135/4 94/139/4 105/52/4 108/62/4
f 97/137/7 92/140/7 104/35/7 107/60/7
f 96/141/11 95/132/11 103/57/11 106/56/11
f 94/139/3 93/134/3 102/53/3 105/52/3
f 92/140/6 91/136/6 101/36/6 104/35/6
