# Blender 3.4.1
# www.blender.org
mtllib Pillar_011.mtl
o Pillar.011
v -187.625107 -46.536900 22.312326
v -185.753250 -46.461906 21.611965
v -187.508972 -46.050018 22.674854
v -185.637115 -45.975025 21.974493
v -187.523224 -45.432785 22.702860
v -185.651367 -45.357788 22.002499
v -187.662430 -44.920959 22.385645
v -185.790558 -44.845963 21.685284
v -187.873383 -44.710041 21.844376
v -186.001526 -44.635044 21.144014
v -188.075546 -44.880596 21.285799
v -186.203690 -44.805599 20.585436
v -188.191681 -45.367474 20.923271
v -186.319824 -45.292480 20.222908
v -188.177429 -45.984711 20.895266
v -186.305573 -45.909714 20.194904
v -188.038239 -46.496536 21.212481
v -186.166382 -46.421543 20.512119
v -187.827271 -46.707455 21.753750
v -185.955414 -46.632458 21.053389
v -185.169144 -45.956276 21.799402
v -185.285278 -46.443157 21.436874
v -185.183395 -45.339043 21.827408
v -185.322601 -44.827213 21.510193
v -185.533569 -44.616295 20.968924
v -185.735718 -44.786850 20.410345
v -185.851852 -45.273731 20.047817
v -185.837601 -45.890965 20.019814
v -185.698410 -46.402794 20.337029
v -185.487442 -46.613708 20.878298
v -174.705322 -45.537048 17.884333
v -174.821442 -46.023926 17.521805
v -174.719574 -44.919811 17.912338
v -174.858765 -44.407986 17.595123
v -175.069733 -44.197067 17.053854
v -175.271881 -44.367622 16.495277
v -175.388016 -44.854504 16.132748
v -175.373764 -45.471737 16.104744
v -175.234573 -45.983562 16.421959
v -175.023605 -46.194481 16.963228
v -174.151031 -45.652428 18.065933
v -174.312180 -46.328037 17.562880
v -174.170807 -44.795937 18.104794
v -174.363953 -44.085709 17.664616
v -174.656693 -43.793034 16.913536
v -174.937210 -44.029701 16.138437
v -175.098358 -44.705311 15.635384
v -175.078598 -45.561802 15.596522
v -174.885437 -46.272030 16.036701
v -174.592697 -46.564705 16.787781
v -171.819778 -45.588810 17.277901
v -171.990677 -46.305279 16.744427
v -171.840759 -44.680523 17.319111
v -172.045578 -43.927353 16.852318
v -172.356033 -43.616978 16.055817
v -172.653519 -43.867954 15.233846
v -172.824417 -44.584419 14.700371
v -172.803436 -45.492706 14.659161
v -172.598618 -46.245880 15.125956
v -172.288162 -46.556255 15.922455
v -173.038071 -44.089436 17.120674
v -173.315430 -43.812130 16.409031
v -172.989014 -46.214031 17.024281
v -172.836319 -45.573895 17.500919
v -173.715179 -45.488026 15.161166
v -173.532181 -46.160961 15.578232
v -173.581238 -44.036366 15.674627
v -172.855057 -44.762371 17.537741
v -173.254807 -46.438271 16.289877
v -173.733917 -44.676506 15.197988
v -175.189102 -44.787354 15.891003
v -175.172485 -45.507500 15.858328
v -174.571594 -44.266380 17.597208
v -174.817749 -44.020298 16.965691
v -174.528076 -46.151760 17.511665
v -174.392578 -45.583698 17.934639
v -175.010086 -46.104668 16.228436
v -175.053604 -44.219292 16.313976
v -174.409195 -44.863548 17.967316
v -174.763931 -46.350754 16.859953
v -172.555954 -43.834946 17.138279
v -172.495651 -46.446594 17.019785
v -173.388290 -45.554153 14.729563
v -172.896912 -43.494068 16.263493
v -172.307953 -45.659710 17.605694
v -173.163330 -46.381359 15.242240
v -173.223633 -43.769711 15.360733
v -172.330994 -44.662151 17.650955
v -172.822372 -46.722240 16.117025
v -173.411331 -44.556595 14.774825
v -181.183929 -44.604485 18.707279
v -181.300064 -45.091366 18.344751
v -180.631607 -45.156677 20.124342
v -180.770798 -44.644848 19.807127
v -180.935654 -46.431343 19.175232
v -180.733490 -46.260792 19.733809
v -181.285812 -45.708599 18.316748
v -180.981766 -44.433929 19.265858
v -180.617355 -45.773911 20.096336
v -181.146622 -46.220428 18.633963
v -179.754700 -44.547226 18.172531
v -179.202377 -45.099415 19.589594
v -179.506424 -46.374084 18.640484
v -179.870834 -45.034103 17.810005
v -179.341568 -44.587589 19.272379
v -179.304260 -46.203529 19.199060
v -179.856583 -45.651340 17.782000
v -179.552536 -44.376671 18.731110
v -179.188126 -45.716648 19.561588
v -179.717392 -46.163166 18.099215
vn 0.2979 -0.6148 0.7303
vn 0.3514 -0.0343 0.9356
vn 0.2708 0.5592 0.7835
vn 0.0867 0.9392 0.3322
vn -0.1305 0.9604 -0.2460
vn -0.2979 0.6148 -0.7303
vn -0.3514 0.0343 -0.9356
vn -0.2708 -0.5592 -0.7835
vn -0.0867 -0.9392 -0.3322
vn 0.1305 -0.9604 0.2460
vn -0.9359 -0.0375 0.3502
vn -0.9417 -0.0065 -0.3364
vn 0.3023 0.9221 0.2415
vn -0.6589 0.5776 0.4819
vn -0.5226 -0.4254 0.7388
vn -0.8896 -0.3896 -0.2382
vn -0.7991 0.5912 0.1087
vn -0.4881 -0.0508 0.8713
vn -0.7708 -0.6348 0.0531
vn -0.9071 0.3682 -0.2039
vn -0.5401 0.3323 0.7732
vn -0.6306 -0.6485 0.4263
vn 0.9359 0.0375 -0.3502
vn 0.5077 -0.5892 0.6286
vn -0.0453 -0.5351 -0.8436
vn 0.0911 0.9428 -0.3208
vn 0.5598 -0.0247 0.8283
vn 0.1337 -0.9047 -0.4046
vn -0.0717 0.6066 -0.7917
vn 0.4813 0.5526 0.6804
vn 0.3449 -0.9253 0.1577
vn -0.1238 0.0421 -0.9914
vn -0.3058 0.0361 -0.9514
vn 0.1756 -0.9575 0.2288
vn 0.3157 0.5604 0.7657
vn -0.2523 0.6159 -0.7464
vn -0.0413 -0.9363 -0.3488
vn 0.3963 -0.0325 0.9176
vn -0.0851 0.9611 -0.2627
vn -0.2252 -0.5568 -0.7996
vn 0.3428 -0.6123 0.7125
vn 0.1318 0.9399 0.3149
vn -0.3568 -0.8496 0.3885
vn -0.2355 0.4649 0.8535
vn -0.7273 0.5130 -0.4559
vn -0.5446 -0.8312 -0.1116
vn -0.1657 -0.0485 0.9850
vn -0.5826 0.8119 -0.0371
vn -0.7039 -0.5026 -0.5020
vn -0.2120 -0.5506 0.8074
vn -0.3947 0.7936 0.4631
vn -0.7736 0.0109 -0.6335
vn -0.7965 0.0090 -0.6046
vn -0.3888 -0.8324 0.3949
vn -0.2702 0.4531 0.8496
vn -0.7512 0.5000 -0.4309
vn -0.5725 -0.8145 -0.0942
vn -0.2019 -0.0490 0.9782
vn -0.6096 0.7924 -0.0213
vn -0.7282 -0.4931 -0.4760
vn -0.2472 -0.5400 0.8045
vn -0.4259 0.7745 0.4678
vt 1.000000 0.500000
vt -0.000000 0.500000
vt 0.750000 0.490000
vt 1.000000 1.000000
vt -0.000000 1.000000
vt 0.900000 0.500000
vt 0.891068 0.444164
vt 0.900000 1.000000
vt 0.800000 0.500000
vt 0.978254 0.324164
vt 0.800000 1.000000
vt 0.700000 0.500000
vt 0.978254 0.175836
vt 0.700000 1.000000
vt 0.600000 0.500000
vt 0.891068 0.055836
vt 0.600000 1.000000
vt 0.500000 0.500000
vt 0.750000 0.010000
vt 0.500000 1.000000
vt 0.400000 0.500000
vt 0.608932 0.055836
vt 0.400000 1.000000
vt 0.300000 0.500000
vt 0.521746 0.175836
vt 0.300000 1.000000
vt 0.200000 0.500000
vt 0.521746 0.324164
vt 0.200000 1.000000
vt 0.100000 0.500000
vt 0.608932 0.444164
vt 0.100000 1.000000
vt 0.900000 1.000000
vt 1.000000 1.000000
vt -0.000000 1.000000
vt 0.800000 1.000000
vt 0.700000 1.000000
vt 0.600000 1.000000
vt 0.500000 1.000000
vt 0.400000 1.000000
vt 0.300000 1.000000
vt 0.200000 1.000000
vt 0.100000 1.000000
vt 0.900000 1.000000
vt -0.000000 1.000000
vt 1.000000 1.000000
vt 0.800000 1.000000
vt 0.700000 1.000000
vt 0.600000 1.000000
vt 0.500000 1.000000
vt 0.400000 1.000000
vt 0.300000 1.000000
vt 0.200000 1.000000
vt 0.100000 1.000000
vt 0.900000 1.000000
vt -0.000000 1.000000
vt 1.000000 1.000000
vt 0.800000 1.000000
vt 0.700000 1.000000
vt 0.600000 1.000000
vt 0.500000 1.000000
vt 0.400000 1.000000
vt 0.300000 1.000000
vt 0.200000 1.000000
vt 0.100000 1.000000
vt 0.391068 0.444164
vt 0.900000 1.000000
vt 0.250000 0.490000
vt 1.000000 1.000000
vt -0.000000 1.000000
vt 0.478254 0.324164
vt 0.800000 1.000000
vt 0.478254 0.175836
vt 0.700000 1.000000
vt 0.391068 0.055836
vt 0.600000 1.000000
vt 0.250000 0.010000
vt 0.500000 1.000000
vt 0.108932 0.055836
vt 0.400000 1.000000
vt 0.021746 0.175836
vt 0.300000 1.000000
vt 0.021746 0.324164
vt 0.200000 1.000000
vt 0.108932 0.444164
vt 0.100000 1.000000
vt 0.700000 1.000000
vt 0.600000 1.000000
vt -0.000000 1.000000
vt 1.000000 1.000000
vt 0.900000 1.000000
vt 0.300000 1.000000
vt 0.200000 1.000000
vt 0.500000 1.000000
vt 0.800000 1.000000
vt 0.100000 1.000000
vt 0.400000 1.000000
vt 0.400000 1.000000
vt 0.300000 1.000000
vt 0.700000 1.000000
vt 0.600000 1.000000
vt -0.000000 1.000000
vt 1.000000 1.000000
vt 0.900000 1.000000
vt 0.200000 1.000000
vt 0.500000 1.000000
vt 0.800000 1.000000
vt 0.100000 1.000000
vt 0.700000 1.000000
vt -0.000000 1.000000
vt 1.000000 1.000000
vt 0.300000 1.000000
vt 0.600000 1.000000
vt 0.900000 1.000000
vt 0.200000 1.000000
vt 0.500000 1.000000
vt 0.800000 1.000000
vt 0.100000 1.000000
vt 0.400000 1.000000
vt 0.500000 1.000000
vt 0.400000 1.000000
vt 0.800000 1.000000
vt 0.700000 1.000000
vt 0.100000 1.000000
vt 1.000000 1.000000
vt -0.000000 1.000000
vt 0.300000 1.000000
vt 0.600000 1.000000
vt 0.900000 1.000000
vt 0.200000 1.000000
vt 0.500000 1.000000
vt 0.800000 1.000000
vt 0.100000 1.000000
vt 0.400000 1.000000
vt 0.700000 1.000000
vt 1.000000 1.000000
vt -0.000000 1.000000
vt 0.300000 1.000000
vt 0.600000 1.000000
vt 0.900000 1.000000
vt 0.200000 1.000000
s 0
usemtl Material.007
f 1/1/1 2/4/1 4/8/1 3/6/1
f 3/6/2 4/8/2 6/11/2 5/9/2
f 5/9/3 6/11/3 8/14/3 7/12/3
f 7/12/4 8/14/4 10/17/4 9/15/4
f 9/15/5 10/17/5 12/20/5 11/18/5
f 11/18/6 12/20/6 14/23/6 13/21/6
f 13/21/7 14/23/7 16/26/7 15/24/7
f 15/24/8 16/26/8 18/29/8 17/27/8
f 4/8/1 2/4/1 22/34/1 21/33/1
f 17/27/9 18/29/9 20/32/9 19/30/9
f 19/30/10 20/32/10 2/5/10 1/2/10
f 1/3/11 3/7/11 5/10/11 7/13/11 9/16/11 11/19/11 13/22/11 15/25/11 17/28/11 19/31/11
f 104/134/6 101/131/6 36/50/6 37/51/6
f 8/14/3 6/11/3 23/36/3 24/37/3
f 6/11/2 4/8/2 21/33/2 23/36/2
f 2/5/10 20/32/10 30/43/10 22/35/10
f 20/32/9 18/29/9 29/42/9 30/43/9
f 18/29/8 16/26/8 28/41/8 29/42/8
f 16/26/7 14/23/7 27/40/7 28/41/7
f 14/23/6 12/20/6 26/39/6 27/40/6
f 12/20/5 10/17/5 25/38/5 26/39/5
f 10/17/4 8/14/4 24/37/4 25/38/4
f 72/99/12 71/98/12 47/62/12 48/63/12
f 105/135/3 102/132/3 33/47/3 34/48/3
f 106/137/10 103/133/10 40/54/10 32/45/10
f 107/138/7 104/134/7 37/51/7 38/52/7
f 108/139/4 105/135/4 34/48/4 35/49/4
f 109/140/1 106/136/1 32/46/1 31/44/1
f 110/141/8 107/138/8 38/52/8 39/53/8
f 101/131/5 108/139/5 35/49/5 36/50/5
f 102/132/2 109/140/2 31/44/2 33/47/2
f 103/133/9 110/141/9 39/53/9 40/54/9
f 84/113/13 81/109/13 54/74/13 55/76/13
f 74/101/14 73/100/14 44/59/14 45/60/14
f 76/104/15 75/103/15 42/57/15 41/55/15
f 77/105/16 72/99/16 48/63/16 49/64/16
f 78/106/17 74/101/17 45/60/17 46/61/17
f 79/107/18 76/104/18 41/55/18 43/58/18
f 80/108/19 77/105/19 49/64/19 50/65/19
f 71/98/20 78/106/20 46/61/20 47/62/20
f 73/100/21 79/107/21 43/58/21 44/59/21
f 75/102/22 80/108/22 50/65/22 42/56/22
f 51/66/23 52/68/23 60/85/23 59/83/23 58/81/23 57/79/23 56/77/23 55/75/23 54/73/23 53/71/23
f 85/114/24 82/111/24 52/69/24 51/67/24
f 86/115/25 83/112/25 58/82/25 59/84/25
f 87/116/26 84/113/26 55/76/26 56/78/26
f 88/117/27 85/114/27 51/67/27 53/72/27
f 89/118/28 86/115/28 59/84/28 60/86/28
f 90/119/29 87/116/29 56/78/29 57/80/29
f 81/109/30 88/117/30 53/72/30 54/74/30
f 82/110/31 89/118/31 60/86/31 52/70/31
f 83/112/32 90/119/32 57/80/32 58/82/32
f 48/63/33 47/62/33 70/97/33 65/92/33
f 42/56/34 50/65/34 69/96/34 63/89/34
f 44/59/35 43/58/35 68/95/35 61/87/35
f 47/62/36 46/61/36 67/94/36 70/97/36
f 50/65/37 49/64/37 66/93/37 69/96/37
f 43/58/38 41/55/38 64/91/38 68/95/38
f 46/61/39 45/60/39 62/88/39 67/94/39
f 49/64/40 48/63/40 65/92/40 66/93/40
f 41/55/41 42/57/41 63/90/41 64/91/41
f 45/60/42 44/59/42 61/87/42 62/88/42
f 32/45/43 40/54/43 80/108/43 75/102/43
f 34/48/44 33/47/44 79/107/44 73/100/44
f 37/51/45 36/50/45 78/106/45 71/98/45
f 40/54/46 39/53/46 77/105/46 80/108/46
f 33/47/47 31/44/47 76/104/47 79/107/47
f 36/50/48 35/49/48 74/101/48 78/106/48
f 39/53/49 38/52/49 72/99/49 77/105/49
f 31/44/50 32/46/50 75/103/50 76/104/50
f 35/49/51 34/48/51 73/100/51 74/101/51
f 38/52/52 37/51/52 71/98/52 72/99/52
f 65/92/53 70/97/53 90/119/53 83/112/53
f 63/89/54 69/96/54 89/118/54 82/110/54
f 61/87/55 68/95/55 88/117/55 81/109/55
f 70/97/56 67/94/56 87/116/56 90/119/56
f 69/96/57 66/93/57 86/115/57 89/118/57
f 68/95/58 64/91/58 85/114/58 88/117/58
f 67/94/59 62/88/59 84/113/59 87/116/59
f 66/93/60 65/92/60 83/112/60 86/115/60
f 64/91/61 63/90/61 82/111/61 85/114/61
f 62/88/62 61/87/62 81/109/62 84/113/62
f 30/43/9 29/42/9 100/130/9 95/124/9
f 23/36/2 21/33/2 99/129/2 93/122/2
f 26/39/5 25/38/5 98/128/5 91/120/5
f 29/42/8 28/41/8 97/127/8 100/130/8
f 21/33/1 22/34/1 96/125/1 99/129/1
f 25/38/4 24/37/4 94/123/4 98/128/4
f 28/41/7 27/40/7 92/121/7 97/127/7
f 22/35/10 30/43/10 95/124/10 96/126/10
f 24/37/3 23/36/3 93/122/3 94/123/3
f 27/40/6 26/39/6 91/120/6 92/121/6
f 95/124/9 100/130/9 110/141/9 103/133/9
f 93/122/2 99/129/2 109/140/2 102/132/2
f 91/120/5 98/128/5 108/139/5 101/131/5
f 100/130/8 97/127/8 107/138/8 110/141/8
f 99/129/1 96/125/1 106/136/1 109/140/1
f 98/128/4 94/123/4 105/135/4 108/139/4
f 97/127/7 92/121/7 104/134/7 107/138/7
f 96/126/10 95/124/10 103/133/10 106/137/10
f 94/123/3 93/122/3 102/132/3 105/135/3
f 92/121/6 91/120/6 101/131/6 104/134/6
