# Blender v3.4.1 OBJ File: 'level-track.blend'
# www.blender.org
mtllib Pillar_009.mtl
o Pillar.009_Cube.023
v -205.618561 -44.465645 22.680864
v -203.626572 -44.451950 22.502642
v -205.657272 -43.993069 22.284460
v -203.665283 -43.979370 22.106237
v -205.711761 -43.844841 21.686943
v -203.719757 -43.831142 21.508720
v -205.761185 -44.077583 21.116545
v -203.769196 -44.063885 20.938322
v -205.786697 -44.602394 20.791138
v -203.794693 -44.588696 20.612915
v -205.778534 -45.218811 20.835018
v -203.786530 -45.205116 20.656796
v -205.739822 -45.691391 21.231422
v -203.747818 -45.677692 21.053200
v -205.685333 -45.839619 21.828939
v -203.693344 -45.825920 21.650717
v -205.635910 -45.606876 22.399338
v -203.643906 -45.593182 22.221115
v -205.610397 -45.082066 22.724745
v -203.618408 -45.068371 22.546522
v -203.167282 -43.975948 22.061682
v -203.128571 -44.448524 22.458086
v -203.221756 -43.827721 21.464165
v -203.271194 -44.060459 20.893766
v -203.296707 -44.585270 20.568359
v -203.288528 -45.201691 20.612240
v -203.249817 -45.674271 21.008644
v -203.195343 -45.822498 21.606161
v -203.145905 -45.589756 22.176559
v -203.120407 -45.064945 22.501966
v -192.031891 -43.899380 21.065407
v -191.993179 -44.371960 21.461813
v -192.086365 -43.751152 20.467890
v -192.135803 -43.983894 19.897491
v -192.161316 -44.508705 19.572086
v -192.153137 -45.125126 19.615967
v -192.114426 -45.597702 20.012371
v -192.059952 -45.745930 20.609888
v -192.010513 -45.513187 21.180286
v -191.985016 -44.988377 21.505692
v -191.566833 -43.567131 21.229324
v -191.513123 -44.222897 21.779388
v -191.642441 -43.361446 20.400194
v -191.711029 -43.684406 19.608690
v -191.746429 -44.412647 19.157148
v -191.735092 -45.268013 19.218037
v -191.681366 -45.923775 19.768101
v -191.605774 -46.129459 20.597231
v -191.537186 -45.806499 21.388735
v -191.501785 -45.078259 21.840277
v -189.113007 -43.479027 21.054272
v -189.056030 -44.174446 21.637600
v -189.193176 -43.260902 20.175001
v -189.265915 -43.603394 19.335636
v -189.303436 -44.375675 18.856789
v -189.291428 -45.282764 18.921358
v -189.234451 -45.978180 19.504686
v -189.154297 -46.196304 20.383957
v -189.081543 -45.853817 21.223322
v -189.044022 -45.081535 21.702171
v -190.280914 -43.730316 19.527878
v -190.314453 -44.420319 19.100046
v -190.093399 -44.240528 21.584606
v -190.144302 -43.619198 21.063419
v -190.181183 -46.046989 20.464516
v -190.116196 -45.740986 21.214462
v -190.303726 -45.230774 19.157734
v -190.215927 -43.424313 20.277824
v -190.082672 -45.050983 21.642294
v -190.252823 -45.852104 19.678921
v -191.849060 -45.737415 19.900225
v -191.785492 -45.910358 20.597368
v -191.873993 -43.854527 19.766190
v -191.903763 -44.466843 19.386528
v -191.707596 -44.307297 21.591339
v -191.752762 -43.755920 21.128838
v -191.727829 -45.638813 21.262873
v -191.894226 -45.186043 19.437723
v -191.816330 -43.582977 20.431694
v -191.698059 -45.026497 21.642534
v -189.847015 -43.496735 19.294048
v -189.616501 -44.123913 21.822268
v -189.724426 -46.344494 20.445404
v -189.888229 -44.344921 18.768135
v -189.679077 -43.360142 21.181606
v -189.644531 -45.968342 21.367271
v -189.875046 -45.341164 18.839052
v -189.767120 -43.120583 20.215916
v -189.603302 -45.120155 21.893185
v -189.812469 -46.104931 19.479713
v -198.444611 -45.168385 20.178858
v -198.405899 -45.640965 20.575262
v -198.377838 -43.794411 21.030783
v -198.427277 -44.027153 20.460384
v -198.276474 -45.031639 22.068584
v -198.284637 -44.415218 22.024704
v -198.351410 -45.789192 21.172779
v -198.452774 -44.551964 20.134977
v -198.323364 -43.942638 21.628300
v -198.301987 -45.556450 21.743179
v -196.923660 -45.157928 20.042780
v -196.856888 -43.783955 20.894705
v -196.755524 -45.021179 21.932507
v -196.884949 -45.630505 20.439184
v -196.906326 -44.016697 20.324306
v -196.763687 -44.404758 21.888626
v -196.830460 -45.778732 21.036701
v -196.931824 -44.541508 19.998899
v -196.802414 -43.932182 21.492222
v -196.781036 -45.545990 21.607100
vt 1.000000 0.500000
vt 1.000000 1.000000
vt 0.900000 1.000000
vt 0.900000 0.500000
vt 0.800000 1.000000
vt 0.800000 0.500000
vt 0.700000 1.000000
vt 0.700000 0.500000
vt 0.600000 1.000000
vt 0.600000 0.500000
vt 0.500000 1.000000
vt 0.500000 0.500000
vt 0.400000 1.000000
vt 0.400000 0.500000
vt 0.300000 1.000000
vt 0.300000 0.500000
vt 0.200000 1.000000
vt 0.200000 0.500000
vt 1.000000 1.000000
vt 0.900000 1.000000
vt 0.100000 1.000000
vt 0.100000 0.500000
vt -0.000000 1.000000
vt -0.000000 0.500000
vt 0.750000 0.490000
vt 0.891068 0.444164
vt 0.978254 0.324164
vt 0.978254 0.175836
vt 0.891068 0.055836
vt 0.750000 0.010000
vt 0.608932 0.055836
vt 0.521746 0.175836
vt 0.521746 0.324164
vt 0.608932 0.444164
vt 0.400000 1.000000
vt 0.500000 1.000000
vt 0.500000 1.000000
vt 0.400000 1.000000
vt 0.800000 1.000000
vt 0.700000 1.000000
vt 0.100000 1.000000
vt -0.000000 1.000000
vt 0.200000 1.000000
vt 0.300000 1.000000
vt 0.400000 1.000000
vt 0.500000 1.000000
vt 0.600000 1.000000
vt 0.300000 1.000000
vt 0.400000 1.000000
vt 0.400000 1.000000
vt 0.300000 1.000000
vt 0.700000 1.000000
vt 0.800000 1.000000
vt 0.800000 1.000000
vt 0.700000 1.000000
vt -0.000000 1.000000
vt 0.100000 1.000000
vt 0.100000 1.000000
vt -0.000000 1.000000
vt 0.300000 1.000000
vt 0.300000 1.000000
vt 0.600000 1.000000
vt 0.600000 1.000000
vt 0.900000 1.000000
vt 1.000000 1.000000
vt 1.000000 1.000000
vt 0.900000 1.000000
vt 0.200000 1.000000
vt 0.200000 1.000000
vt 0.600000 1.000000
vt 0.700000 1.000000
vt 0.700000 1.000000
vt 0.600000 1.000000
vt 0.600000 1.000000
vt 0.700000 1.000000
vt 0.700000 1.000000
vt 0.600000 1.000000
vt 0.900000 1.000000
vt 1.000000 1.000000
vt 1.000000 1.000000
vt 0.900000 1.000000
vt 0.200000 1.000000
vt 0.200000 1.000000
vt 0.500000 1.000000
vt 0.500000 1.000000
vt 0.800000 1.000000
vt 0.800000 1.000000
vt 0.100000 1.000000
vt 0.100000 1.000000
vt -0.000000 1.000000
vt -0.000000 1.000000
vt 0.391068 0.444164
vt 0.250000 0.490000
vt 0.108932 0.444164
vt 0.021746 0.324164
vt 0.021746 0.175836
vt 0.108932 0.055836
vt 0.250000 0.010000
vt 0.391068 0.055836
vt 0.478254 0.175836
vt 0.478254 0.324164
vt 0.900000 1.000000
vt 1.000000 1.000000
vt 1.000000 1.000000
vt 0.900000 1.000000
vt 0.200000 1.000000
vt 0.300000 1.000000
vt 0.300000 1.000000
vt 0.200000 1.000000
vt 0.500000 1.000000
vt 0.500000 1.000000
vt 0.800000 1.000000
vt 0.800000 1.000000
vt 0.100000 1.000000
vt 0.100000 1.000000
vt 0.400000 1.000000
vt 0.400000 1.000000
vt -0.000000 1.000000
vt -0.000000 1.000000
vt 0.400000 1.000000
vt 0.300000 1.000000
vt 0.100000 1.000000
vt -0.000000 1.000000
vt 0.800000 1.000000
vt 0.700000 1.000000
vt 0.500000 1.000000
vt 0.200000 1.000000
vt 0.900000 1.000000
vt 0.600000 1.000000
vt 1.000000 1.000000
vt 0.200000 1.000000
vt 0.100000 1.000000
vt 0.900000 1.000000
vt 0.800000 1.000000
vt 0.600000 1.000000
vt 0.500000 1.000000
vt 0.300000 1.000000
vt 1.000000 1.000000
vt 0.700000 1.000000
vt 0.400000 1.000000
vt -0.000000 1.000000
vn 0.0637 0.6444 0.7620
vn 0.0148 0.9708 0.2395
vn -0.0399 0.9264 -0.3745
vn -0.0793 0.5281 -0.8455
vn -0.0884 -0.0719 -0.9935
vn -0.0637 -0.6444 -0.7620
vn -0.0148 -0.9708 -0.2395
vn 0.0399 -0.9264 0.3745
vn 0.0793 -0.5281 0.8455
vn 0.0884 0.0719 0.9935
vn -0.9960 -0.0068 0.0891
vn -0.7703 -0.6318 -0.0865
vn 0.1549 0.5152 -0.8430
vn -0.8119 0.3356 -0.4776
vn -0.7196 0.4107 0.5599
vn -0.7350 -0.6031 0.3098
vn -0.8178 -0.0516 -0.5731
vn -0.7513 0.6213 0.2227
vn -0.7096 -0.3460 0.6138
vn -0.8019 -0.4212 -0.4238
vn -0.7865 0.5927 -0.1737
vn -0.7037 0.0412 0.7093
vn 0.9960 0.0069 -0.0891
vn 0.2940 0.6283 0.7203
vn 0.2708 -0.8993 0.3435
vn 0.1460 -0.0683 -0.9869
vn 0.2463 0.9457 0.2121
vn 0.3091 -0.5120 0.8015
vn 0.1700 -0.6251 -0.7618
vn 0.1932 0.9025 -0.3850
vn 0.3179 0.0715 0.9454
vn 0.2176 -0.9425 -0.2536
vn 0.0334 -0.9693 -0.2435
vn 0.1365 0.0721 0.9880
vn 0.0083 0.9256 -0.3784
vn -0.0155 -0.6433 -0.7654
vn 0.1273 -0.5271 0.8402
vn 0.0629 0.9700 0.2349
vn -0.0401 -0.0715 -0.9966
vn 0.0880 -0.9249 0.3698
vn 0.1118 0.6440 0.7568
vn -0.0310 0.5278 -0.8488
vn -0.4233 0.0588 0.9041
vn -0.5343 0.7979 -0.2792
vn -0.5549 -0.5608 -0.6144
vn -0.4312 -0.4602 0.7760
vn -0.4871 0.8363 0.2519
vn -0.5763 -0.0656 -0.8146
vn -0.4653 -0.8047 0.3687
vn -0.4447 0.5540 0.7038
vn -0.5684 0.4534 -0.6866
vn -0.5126 -0.8431 -0.1624
vn -0.5437 -0.8248 -0.1550
vn -0.4565 0.0572 0.8879
vn -0.5650 0.7799 -0.2693
vn -0.5852 -0.5488 -0.5970
vn -0.4642 -0.4503 0.7627
vn -0.5188 0.8175 0.2501
vn -0.6060 -0.0645 -0.7928
vn -0.4975 -0.7872 0.3643
vn -0.4773 0.5414 0.6921
vn -0.5983 0.4431 -0.6676
vn -0.0147 -0.9708 -0.2395
usemtl Material.007
s off
f 1/1/1 2/2/1 4/3/1 3/4/1
f 3/4/2 4/3/2 6/5/2 5/6/2
f 5/6/3 6/5/3 8/7/3 7/8/3
f 7/8/4 8/7/4 10/9/4 9/10/4
f 9/10/5 10/9/5 12/11/5 11/12/5
f 11/12/6 12/11/6 14/13/6 13/14/6
f 13/14/7 14/13/7 16/15/7 15/16/7
f 15/16/8 16/15/8 18/17/8 17/18/8
f 4/3/1 2/2/1 22/19/1 21/20/1
f 17/18/9 18/17/9 20/21/9 19/22/9
f 19/22/10 20/21/10 2/23/10 1/24/10
f 1/25/11 3/26/11 5/27/11 7/28/11 9/29/11 11/30/11 13/31/11 15/32/11 17/33/11 19/34/11
f 104/35/6 101/36/6 36/37/6 37/38/6
f 8/7/3 6/5/3 23/39/3 24/40/3
f 6/5/2 4/3/2 21/20/2 23/39/2
f 2/23/10 20/21/10 30/41/10 22/42/10
f 20/21/9 18/17/9 29/43/9 30/41/9
f 18/17/8 16/15/8 28/44/8 29/43/8
f 16/15/7 14/13/7 27/45/7 28/44/7
f 14/13/6 12/11/6 26/46/6 27/45/6
f 12/11/5 10/9/5 25/47/5 26/46/5
f 10/9/4 8/7/4 24/40/4 25/47/4
f 72/48/12 71/49/12 47/50/12 48/51/12
f 105/52/3 102/53/3 33/54/3 34/55/3
f 106/56/10 103/57/10 40/58/10 32/59/10
f 107/60/7 104/35/7 37/38/7 38/61/7
f 108/62/4 105/52/4 34/55/4 35/63/4
f 109/64/1 106/65/1 32/66/1 31/67/1
f 110/68/8 107/60/8 38/61/8 39/69/8
f 101/36/5 108/62/5 35/63/5 36/37/5
f 102/53/2 109/64/2 31/67/2 33/54/2
f 103/57/9 110/68/9 39/69/9 40/58/9
f 84/70/13 81/71/13 54/72/13 55/73/13
f 74/74/14 73/75/14 44/76/14 45/77/14
f 76/78/15 75/79/15 42/80/15 41/81/15
f 77/82/16 72/48/16 48/51/16 49/83/16
f 78/84/17 74/74/17 45/77/17 46/85/17
f 79/86/18 76/78/18 41/81/18 43/87/18
f 80/88/19 77/82/19 49/83/19 50/89/19
f 71/49/20 78/84/20 46/85/20 47/50/20
f 73/75/21 79/86/21 43/87/21 44/76/21
f 75/90/22 80/88/22 50/89/22 42/91/22
f 51/92/23 52/93/23 60/94/23 59/95/23 58/96/23 57/97/23 56/98/23 55/99/23 54/100/23 53/101/23
f 85/102/24 82/103/24 52/104/24 51/105/24
f 86/106/25 83/107/25 58/108/25 59/109/25
f 87/110/26 84/70/26 55/73/26 56/111/26
f 88/112/27 85/102/27 51/105/27 53/113/27
f 89/114/28 86/106/28 59/109/28 60/115/28
f 90/116/29 87/110/29 56/111/29 57/117/29
f 81/71/30 88/112/30 53/113/30 54/72/30
f 82/118/31 89/114/31 60/115/31 52/119/31
f 83/107/32 90/116/32 57/117/32 58/108/32
f 48/51/33 47/50/33 70/120/33 65/121/33
f 42/91/34 50/89/34 69/122/34 63/123/34
f 44/76/35 43/87/35 68/124/35 61/125/35
f 47/50/36 46/85/36 67/126/36 70/120/36
f 50/89/37 49/83/37 66/127/37 69/122/37
f 43/87/38 41/81/38 64/128/38 68/124/38
f 46/85/39 45/77/39 62/129/39 67/126/39
f 49/83/40 48/51/40 65/121/40 66/127/40
f 41/81/41 42/80/41 63/130/41 64/128/41
f 45/77/42 44/76/42 61/125/42 62/129/42
f 32/59/43 40/58/43 80/88/43 75/90/43
f 34/55/44 33/54/44 79/86/44 73/75/44
f 37/38/45 36/37/45 78/84/45 71/49/45
f 40/58/46 39/69/46 77/82/46 80/88/46
f 33/54/47 31/67/47 76/78/47 79/86/47
f 36/37/48 35/63/48 74/74/48 78/84/48
f 39/69/49 38/61/49 72/48/49 77/82/49
f 31/67/50 32/66/50 75/79/50 76/78/50
f 35/63/51 34/55/51 73/75/51 74/74/51
f 38/61/52 37/38/52 71/49/52 72/48/52
f 65/121/53 70/120/53 90/116/53 83/107/53
f 63/123/54 69/122/54 89/114/54 82/118/54
f 61/125/55 68/124/55 88/112/55 81/71/55
f 70/120/56 67/126/56 87/110/56 90/116/56
f 69/122/57 66/127/57 86/106/57 89/114/57
f 68/124/58 64/128/58 85/102/58 88/112/58
f 67/126/59 62/129/59 84/70/59 87/110/59
f 66/127/60 65/121/60 83/107/60 86/106/60
f 64/128/61 63/130/61 82/103/61 85/102/61
f 62/129/62 61/125/62 81/71/62 84/70/62
f 30/41/9 29/43/9 100/131/9 95/132/9
f 23/39/2 21/20/2 99/133/2 93/134/2
f 26/46/5 25/47/5 98/135/5 91/136/5
f 29/43/8 28/44/8 97/137/8 100/131/8
f 21/20/1 22/19/1 96/138/1 99/133/1
f 25/47/4 24/40/4 94/139/4 98/135/4
f 28/44/7 27/45/7 92/140/7 97/137/7
f 22/42/10 30/41/10 95/132/10 96/141/10
f 24/40/3 23/39/3 93/134/3 94/139/3
f 27/45/6 26/46/6 91/136/6 92/140/6
f 95/132/9 100/131/9 110/68/9 103/57/9
f 93/134/2 99/133/2 109/64/2 102/53/2
f 91/136/5 98/135/5 108/62/5 101/36/5
f 100/131/8 97/137/8 107/60/8 110/68/8
f 99/133/1 96/138/1 106/65/1 109/64/1
f 98/135/4 94/139/4 105/52/4 108/62/4
f 97/137/63 92/140/63 104/35/63 107/60/63
f 96/141/10 95/132/10 103/57/10 106/56/10
f 94/139/3 93/134/3 102/53/3 105/52/3
f 92/140/6 91/136/6 101/36/6 104/35/6
