# Blender v3.4.1 OBJ File: 'level-track.blend'
# www.blender.org
mtllib Pillar_002.mtl
o Pillar.002_Cube.011
v -74.357971 -7.728429 -291.864929
v -75.615417 -7.642746 -293.417816
v -74.039459 -7.252123 -292.096558
v -75.296913 -7.166440 -293.649445
v -73.993332 -6.635823 -292.099915
v -75.250778 -6.550140 -293.652802
v -74.237190 -6.114933 -291.873688
v -75.494644 -6.029249 -293.426575
v -74.677902 -5.888415 -291.504333
v -75.935356 -5.802732 -293.057220
v -75.147125 -6.042793 -291.132904
v -76.404579 -5.957110 -292.685791
v -75.465637 -6.519098 -290.901276
v -76.723083 -6.433415 -292.454163
v -75.511765 -7.135398 -290.897919
v -76.769218 -7.049716 -292.450806
v -75.267906 -7.656289 -291.124115
v -76.525352 -7.570606 -292.677032
v -74.827194 -7.882806 -291.493500
v -76.084641 -7.797123 -293.046387
v -75.611275 -7.145020 -294.037659
v -75.929779 -7.621325 -293.806030
v -75.565140 -6.528719 -294.041016
v -75.809006 -6.007829 -293.814819
v -76.249718 -5.781312 -293.445435
v -76.718941 -5.935689 -293.074005
v -77.037445 -6.411994 -292.842377
v -77.083580 -7.028295 -292.839020
v -76.839714 -7.549185 -293.065247
v -76.399002 -7.775702 -293.434601
v -82.640511 -6.666046 -302.718445
v -82.959015 -7.142352 -302.486816
v -82.594376 -6.049746 -302.721802
v -82.838242 -5.528855 -302.495575
v -83.278954 -5.302338 -302.126221
v -83.748177 -5.456716 -301.754791
v -84.066681 -5.933021 -301.523163
v -84.112816 -6.549322 -301.519806
v -83.868950 -7.070212 -301.746002
v -83.428238 -7.296729 -302.115387
v -82.647560 -6.788802 -303.300171
v -83.089531 -7.449738 -302.978760
v -82.583549 -5.933606 -303.304810
v -82.921936 -5.210801 -302.990936
v -83.533485 -4.896481 -302.478394
v -84.184593 -5.110698 -301.962982
v -84.626556 -5.771634 -301.641571
v -84.690575 -6.626830 -301.636902
v -84.352180 -7.349635 -301.950806
v -83.740639 -7.663956 -302.463348
v -84.134529 -6.714157 -305.260559
v -84.603226 -7.415061 -304.919708
v -84.066643 -5.807244 -305.265472
v -84.425499 -5.040733 -304.932617
v -85.074020 -4.707403 -304.389069
v -85.764503 -4.934576 -303.842499
v -86.233200 -5.635480 -303.501648
v -86.301086 -6.542393 -303.496704
v -85.942230 -7.308904 -303.829590
v -85.293709 -7.642233 -304.373108
v -83.859367 -5.205633 -304.074921
v -84.438797 -4.907817 -303.589294
v -84.018158 -7.327015 -304.063385
v -83.599396 -6.700779 -304.367950
v -85.535141 -6.547313 -302.791992
v -85.214516 -7.232167 -303.089417
v -85.055725 -5.110785 -303.100952
v -83.538742 -5.890487 -304.372345
v -84.635078 -7.529983 -303.575043
v -85.474487 -5.737020 -302.796417
v -84.357437 -5.860200 -301.635742
v -84.411263 -6.579259 -301.631836
v -82.924164 -5.388643 -302.770294
v -83.438362 -5.124359 -302.339355
v -83.065079 -7.271170 -302.760071
v -82.693466 -6.715446 -303.030334
v -84.126740 -7.187002 -301.895752
v -83.985825 -5.304477 -301.906006
v -82.639641 -5.996387 -303.034241
v -83.612541 -7.451287 -302.326721
v -83.989861 -4.953871 -304.540863
v -84.185051 -7.561567 -304.526703
v -86.049797 -6.603124 -302.963837
v -84.702126 -4.587780 -303.943909
v -83.670288 -6.791773 -304.901062
v -85.655670 -7.444977 -303.329437
v -85.460472 -4.837281 -303.343597
v -83.595734 -5.795724 -304.906464
v -84.943398 -7.811068 -303.926392
v -85.975235 -5.607075 -302.969269
v -79.776672 -5.727334 -296.850159
v -80.095184 -6.203640 -296.618530
v -78.622879 -6.320364 -297.817169
v -78.866745 -5.799474 -297.590973
v -79.456741 -7.567348 -297.210754
v -78.987518 -7.412970 -297.582184
v -80.141319 -6.819940 -296.615204
v -79.307449 -5.572957 -297.221619
v -78.669014 -6.936665 -297.813843
v -79.897453 -7.340831 -296.841400
v -80.736778 -5.661913 -298.035858
v -79.582977 -6.254943 -299.002869
v -80.416840 -7.501926 -298.396454
v -81.055283 -6.138218 -297.804230
v -79.826843 -5.734053 -298.776642
v -79.947617 -7.347548 -298.767883
v -81.101418 -6.754519 -297.800873
v -80.267555 -5.507535 -298.407288
v -79.629112 -6.871243 -298.999512
v -80.857552 -7.275409 -298.027069
vt 1.000000 0.500000
vt 1.000000 1.000000
vt 0.900000 1.000000
vt 0.900000 0.500000
vt 0.800000 1.000000
vt 0.800000 0.500000
vt 0.700000 1.000000
vt 0.700000 0.500000
vt 0.600000 1.000000
vt 0.600000 0.500000
vt 0.500000 1.000000
vt 0.500000 0.500000
vt 0.400000 1.000000
vt 0.400000 0.500000
vt 0.300000 1.000000
vt 0.300000 0.500000
vt 0.200000 1.000000
vt 0.200000 0.500000
vt 1.000000 1.000000
vt 0.900000 1.000000
vt 0.100000 1.000000
vt 0.100000 0.500000
vt -0.000000 1.000000
vt -0.000000 0.500000
vt 0.750000 0.490000
vt 0.891068 0.444164
vt 0.978254 0.324164
vt 0.978254 0.175836
vt 0.891068 0.055836
vt 0.750000 0.010000
vt 0.608932 0.055836
vt 0.521746 0.175836
vt 0.521746 0.324164
vt 0.608932 0.444164
vt 0.400000 1.000000
vt 0.500000 1.000000
vt 0.500000 1.000000
vt 0.400000 1.000000
vt 0.800000 1.000000
vt 0.700000 1.000000
vt 0.100000 1.000000
vt -0.000000 1.000000
vt 0.200000 1.000000
vt 0.300000 1.000000
vt 0.400000 1.000000
vt 0.500000 1.000000
vt 0.600000 1.000000
vt 0.300000 1.000000
vt 0.400000 1.000000
vt 0.400000 1.000000
vt 0.300000 1.000000
vt 0.700000 1.000000
vt 0.800000 1.000000
vt 0.800000 1.000000
vt 0.700000 1.000000
vt -0.000000 1.000000
vt 0.100000 1.000000
vt 0.100000 1.000000
vt -0.000000 1.000000
vt 0.300000 1.000000
vt 0.300000 1.000000
vt 0.600000 1.000000
vt 0.600000 1.000000
vt 0.900000 1.000000
vt 1.000000 1.000000
vt 1.000000 1.000000
vt 0.900000 1.000000
vt 0.200000 1.000000
vt 0.200000 1.000000
vt 0.600000 1.000000
vt 0.700000 1.000000
vt 0.700000 1.000000
vt 0.600000 1.000000
vt 0.600000 1.000000
vt 0.700000 1.000000
vt 0.700000 1.000000
vt 0.600000 1.000000
vt 0.900000 1.000000
vt 1.000000 1.000000
vt 1.000000 1.000000
vt 0.900000 1.000000
vt 0.200000 1.000000
vt 0.200000 1.000000
vt 0.500000 1.000000
vt 0.500000 1.000000
vt 0.800000 1.000000
vt 0.800000 1.000000
vt 0.100000 1.000000
vt 0.100000 1.000000
vt -0.000000 1.000000
vt -0.000000 1.000000
vt 0.391068 0.444164
vt 0.250000 0.490000
vt 0.108932 0.444164
vt 0.021746 0.324164
vt 0.021746 0.175836
vt 0.108932 0.055836
vt 0.250000 0.010000
vt 0.391068 0.055836
vt 0.478254 0.175836
vt 0.478254 0.324164
vt 0.900000 1.000000
vt 1.000000 1.000000
vt 1.000000 1.000000
vt 0.900000 1.000000
vt 0.200000 1.000000
vt 0.300000 1.000000
vt 0.300000 1.000000
vt 0.200000 1.000000
vt 0.500000 1.000000
vt 0.500000 1.000000
vt 0.800000 1.000000
vt 0.800000 1.000000
vt 0.100000 1.000000
vt 0.100000 1.000000
vt 0.400000 1.000000
vt 0.400000 1.000000
vt -0.000000 1.000000
vt -0.000000 1.000000
vt 0.400000 1.000000
vt 0.300000 1.000000
vt 0.100000 1.000000
vt -0.000000 1.000000
vt 0.800000 1.000000
vt 0.700000 1.000000
vt 0.500000 1.000000
vt 0.200000 1.000000
vt 0.900000 1.000000
vt 0.600000 1.000000
vt 1.000000 1.000000
vt 0.200000 1.000000
vt 0.100000 1.000000
vt 0.900000 1.000000
vt 0.800000 1.000000
vt 0.600000 1.000000
vt 0.500000 1.000000
vt 0.300000 1.000000
vt 1.000000 1.000000
vt 0.700000 1.000000
vt 0.400000 1.000000
vt -0.000000 1.000000
vn 0.5823 -0.6358 -0.5066
vn 0.7740 -0.0614 -0.6302
vn 0.6701 0.5365 -0.5130
vn 0.3102 0.9294 -0.1999
vn -0.1682 0.9674 0.1896
vn -0.5823 0.6358 0.5066
vn -0.7740 0.0614 0.6302
vn -0.6701 -0.5365 0.5130
vn -0.3102 -0.9294 0.1999
vn 0.1682 -0.9674 -0.1896
vn 0.6287 -0.0428 0.7764
vn -0.7740 0.0614 0.6301
vn -0.0194 0.0069 0.9998
vn 0.1552 0.9138 -0.3752
vn 0.6805 0.5671 0.4640
vn 0.8561 -0.4431 0.2661
vn 0.0478 -0.3790 0.9242
vn 0.3716 0.5916 0.7154
vn 0.9798 -0.0723 0.1863
vn 0.2800 -0.6326 0.7221
vn 0.1044 0.3776 0.9200
vn 0.9127 0.3135 0.2619
vn 0.5888 -0.6571 0.4707
vn -0.6287 0.0428 -0.7764
vn 0.4199 -0.6083 -0.6735
vn -0.7981 -0.5118 0.3180
vn -0.3100 0.9507 0.0035
vn 0.6063 -0.0497 -0.7937
vn -0.4481 -0.8939 0.0135
vn -0.7127 0.6283 0.3119
vn 0.5052 0.5317 -0.6797
vn 0.0171 -0.9308 -0.3652
vn -0.8992 0.0697 0.4320
vn -0.8035 0.0634 0.5919
vn 0.1376 -0.9641 -0.2269
vn 0.6389 0.5379 -0.5500
vn -0.6121 0.6371 0.4685
vn -0.3402 -0.9263 0.1621
vn 0.7427 -0.0592 -0.6670
vn -0.1984 0.9683 0.1518
vn -0.6997 -0.5338 0.4748
vn 0.5512 -0.6330 -0.5436
vn 0.2794 0.9304 -0.2372
vn 0.4610 -0.8582 0.2257
vn 0.8951 0.4426 -0.0541
vn -0.1883 0.5284 0.8278
vn 0.0472 -0.8255 0.5625
vn 0.9850 -0.0746 -0.1554
vn 0.1700 0.8152 0.5536
vn -0.2642 -0.4855 0.8333
vn 0.8192 -0.5714 -0.0486
vn 0.5838 0.7825 0.2168
vn -0.3540 0.0316 0.9347
vn -0.3194 0.0291 0.9472
vn 0.4776 -0.8411 0.2538
vn 0.9021 0.4310 -0.0198
vn -0.1572 0.5149 0.8427
vn 0.0729 -0.8090 0.5832
vn 0.9901 -0.0748 -0.1189
vn 0.1931 0.7954 0.5745
vn -0.2314 -0.4767 0.8481
vn 0.8279 -0.5607 -0.0144
vn 0.5977 0.7633 0.2451
usemtl Material.007
s off
f 1/1/1 2/2/1 4/3/1 3/4/1
f 3/4/2 4/3/2 6/5/2 5/6/2
f 5/6/3 6/5/3 8/7/3 7/8/3
f 7/8/4 8/7/4 10/9/4 9/10/4
f 9/10/5 10/9/5 12/11/5 11/12/5
f 11/12/6 12/11/6 14/13/6 13/14/6
f 13/14/7 14/13/7 16/15/7 15/16/7
f 15/16/8 16/15/8 18/17/8 17/18/8
f 4/3/1 2/2/1 22/19/1 21/20/1
f 17/18/9 18/17/9 20/21/9 19/22/9
f 19/22/10 20/21/10 2/23/10 1/24/10
f 1/25/11 3/26/11 5/27/11 7/28/11 9/29/11 11/30/11 13/31/11 15/32/11 17/33/11 19/34/11
f 104/35/6 101/36/6 36/37/6 37/38/6
f 8/7/3 6/5/3 23/39/3 24/40/3
f 6/5/2 4/3/2 21/20/2 23/39/2
f 2/23/10 20/21/10 30/41/10 22/42/10
f 20/21/9 18/17/9 29/43/9 30/41/9
f 18/17/8 16/15/8 28/44/8 29/43/8
f 16/15/12 14/13/12 27/45/12 28/44/12
f 14/13/6 12/11/6 26/46/6 27/45/6
f 12/11/5 10/9/5 25/47/5 26/46/5
f 10/9/4 8/7/4 24/40/4 25/47/4
f 72/48/13 71/49/13 47/50/13 48/51/13
f 105/52/3 102/53/3 33/54/3 34/55/3
f 106/56/10 103/57/10 40/58/10 32/59/10
f 107/60/7 104/35/7 37/38/7 38/61/7
f 108/62/4 105/52/4 34/55/4 35/63/4
f 109/64/1 106/65/1 32/66/1 31/67/1
f 110/68/8 107/60/8 38/61/8 39/69/8
f 101/36/5 108/62/5 35/63/5 36/37/5
f 102/53/2 109/64/2 31/67/2 33/54/2
f 103/57/9 110/68/9 39/69/9 40/58/9
f 84/70/14 81/71/14 54/72/14 55/73/14
f 74/74/15 73/75/15 44/76/15 45/77/15
f 76/78/16 75/79/16 42/80/16 41/81/16
f 77/82/17 72/48/17 48/51/17 49/83/17
f 78/84/18 74/74/18 45/77/18 46/85/18
f 79/86/19 76/78/19 41/81/19 43/87/19
f 80/88/20 77/82/20 49/83/20 50/89/20
f 71/49/21 78/84/21 46/85/21 47/50/21
f 73/75/22 79/86/22 43/87/22 44/76/22
f 75/90/23 80/88/23 50/89/23 42/91/23
f 51/92/24 52/93/24 60/94/24 59/95/24 58/96/24 57/97/24 56/98/24 55/99/24 54/100/24 53/101/24
f 85/102/25 82/103/25 52/104/25 51/105/25
f 86/106/26 83/107/26 58/108/26 59/109/26
f 87/110/27 84/70/27 55/73/27 56/111/27
f 88/112/28 85/102/28 51/105/28 53/113/28
f 89/114/29 86/106/29 59/109/29 60/115/29
f 90/116/30 87/110/30 56/111/30 57/117/30
f 81/71/31 88/112/31 53/113/31 54/72/31
f 82/118/32 89/114/32 60/115/32 52/119/32
f 83/107/33 90/116/33 57/117/33 58/108/33
f 48/51/34 47/50/34 70/120/34 65/121/34
f 42/91/35 50/89/35 69/122/35 63/123/35
f 44/76/36 43/87/36 68/124/36 61/125/36
f 47/50/37 46/85/37 67/126/37 70/120/37
f 50/89/38 49/83/38 66/127/38 69/122/38
f 43/87/39 41/81/39 64/128/39 68/124/39
f 46/85/40 45/77/40 62/129/40 67/126/40
f 49/83/41 48/51/41 65/121/41 66/127/41
f 41/81/42 42/80/42 63/130/42 64/128/42
f 45/77/43 44/76/43 61/125/43 62/129/43
f 32/59/44 40/58/44 80/88/44 75/90/44
f 34/55/45 33/54/45 79/86/45 73/75/45
f 37/38/46 36/37/46 78/84/46 71/49/46
f 40/58/47 39/69/47 77/82/47 80/88/47
f 33/54/48 31/67/48 76/78/48 79/86/48
f 36/37/49 35/63/49 74/74/49 78/84/49
f 39/69/50 38/61/50 72/48/50 77/82/50
f 31/67/51 32/66/51 75/79/51 76/78/51
f 35/63/52 34/55/52 73/75/52 74/74/52
f 38/61/53 37/38/53 71/49/53 72/48/53
f 65/121/54 70/120/54 90/116/54 83/107/54
f 63/123/55 69/122/55 89/114/55 82/118/55
f 61/125/56 68/124/56 88/112/56 81/71/56
f 70/120/57 67/126/57 87/110/57 90/116/57
f 69/122/58 66/127/58 86/106/58 89/114/58
f 68/124/59 64/128/59 85/102/59 88/112/59
f 67/126/60 62/129/60 84/70/60 87/110/60
f 66/127/61 65/121/61 83/107/61 86/106/61
f 64/128/62 63/130/62 82/103/62 85/102/62
f 62/129/63 61/125/63 81/71/63 84/70/63
f 30/41/9 29/43/9 100/131/9 95/132/9
f 23/39/2 21/20/2 99/133/2 93/134/2
f 26/46/5 25/47/5 98/135/5 91/136/5
f 29/43/8 28/44/8 97/137/8 100/131/8
f 21/20/1 22/19/1 96/138/1 99/133/1
f 25/47/4 24/40/4 94/139/4 98/135/4
f 28/44/7 27/45/7 92/140/7 97/137/7
f 22/42/10 30/41/10 95/132/10 96/141/10
f 24/40/3 23/39/3 93/134/3 94/139/3
f 27/45/6 26/46/6 91/136/6 92/140/6
f 95/132/9 100/131/9 110/68/9 103/57/9
f 93/134/2 99/133/2 109/64/2 102/53/2
f 91/136/5 98/135/5 108/62/5 101/36/5
f 100/131/8 97/137/8 107/60/8 110/68/8
f 99/133/1 96/138/1 106/65/1 109/64/1
f 98/135/4 94/139/4 105/52/4 108/62/4
f 97/137/7 92/140/7 104/35/7 107/60/7
f 96/141/10 95/132/10 103/57/10 106/56/10
f 94/139/3 93/134/3 102/53/3 105/52/3
f 92/140/6 91/136/6 101/36/6 104/35/6
