# Blender v3.4.1 OBJ File: 'level-track.blend'
# www.blender.org
mtllib Pillar_012.mtl
o Pillar.012_Cube.022
v 83.008743 -0.597350 -391.051575
v 82.420700 -0.475289 -389.143890
v 82.632446 -0.129302 -391.197510
v 82.044403 -0.007241 -389.289825
v 82.595673 0.485552 -391.248199
v 82.007622 0.607612 -389.340515
v 82.912453 1.012358 -391.184265
v 82.324409 1.134419 -389.276550
v 83.461800 1.249895 -391.030121
v 82.873756 1.371956 -389.122437
v 84.033882 1.107430 -390.844666
v 83.445839 1.229491 -388.936951
v 84.410179 0.639383 -390.698730
v 83.822136 0.761444 -388.791016
v 84.446960 0.024529 -390.648041
v 83.858917 0.146590 -388.740356
v 84.130173 -0.502277 -390.711975
v 83.542130 -0.380217 -388.804291
v 83.580826 -0.739814 -390.866119
v 82.992783 -0.617753 -388.958435
v 81.897392 0.023274 -388.812897
v 82.273689 -0.444774 -388.666962
v 81.860611 0.638128 -388.863586
v 82.177399 1.164934 -388.799622
v 82.726746 1.402471 -388.645508
v 83.298828 1.260007 -388.460052
v 83.675125 0.791959 -388.314087
v 83.711906 0.177105 -388.263428
v 83.395119 -0.349701 -388.327362
v 82.845772 -0.587238 -388.481506
v 78.610191 0.705603 -378.148743
v 78.986481 0.237555 -378.002808
v 78.573410 1.320457 -378.199432
v 78.890198 1.847263 -378.135498
v 79.439545 2.084800 -377.981354
v 80.011620 1.942336 -377.795898
v 80.387917 1.474288 -377.649963
v 80.424698 0.859434 -377.599274
v 80.107910 0.332628 -377.663208
v 79.558563 0.095091 -377.817352
v 78.133072 0.584137 -377.815369
v 78.655235 -0.065341 -377.612854
v 78.082039 1.437325 -377.885681
v 78.521622 2.168339 -377.796967
v 79.283913 2.497950 -377.583069
v 80.077744 2.300264 -377.325745
v 80.599907 1.650786 -377.123230
v 80.650940 0.797598 -377.052917
v 80.211365 0.066584 -377.141632
v 79.449066 -0.263027 -377.355530
v 77.335129 0.702035 -375.489624
v 77.888863 0.013282 -375.274872
v 77.281006 1.606818 -375.564209
v 77.747169 2.382035 -375.470093
v 78.555557 2.731580 -375.243286
v 79.397400 2.521939 -374.970367
v 79.951134 1.833185 -374.755615
v 80.005257 0.928402 -374.681030
v 79.539093 0.153186 -374.775146
v 78.730705 -0.196360 -375.001953
v 78.145157 2.200514 -376.414551
v 78.867424 2.512818 -376.211884
v 78.271751 0.084113 -376.240112
v 77.777008 0.699492 -376.431976
v 80.162674 0.901744 -375.709534
v 79.746178 0.209112 -375.793610
v 79.619576 2.325513 -375.968048
v 77.728653 1.507882 -376.498627
v 79.023911 -0.103192 -375.996277
v 80.114319 1.710134 -375.776184
v 80.455757 1.555053 -377.347656
v 80.498672 0.837682 -377.288513
v 78.708305 1.990219 -377.914124
v 79.349251 2.267360 -377.734283
v 78.820648 0.112113 -377.759338
v 78.381615 0.658203 -377.929596
v 80.129066 0.223037 -377.363129
v 80.016716 2.101142 -377.517914
v 78.338699 1.375573 -377.988739
v 79.488121 -0.054104 -377.542969
v 77.827980 2.456518 -376.052094
v 77.983597 -0.145055 -375.837677
v 80.308006 0.860012 -375.185486
v 78.715820 2.840418 -375.802979
v 77.375435 0.611393 -376.073517
v 79.796021 0.008597 -375.288818
v 79.640404 2.610171 -375.503235
v 77.315994 1.605103 -376.155426
v 78.908180 -0.375302 -375.537933
v 80.248566 1.853723 -375.267395
v 81.868881 1.556822 -383.821106
v 82.245178 1.088774 -383.675171
v 80.430672 0.934943 -384.224640
v 80.747459 1.461749 -384.160706
v 81.415825 -0.290423 -383.842560
v 80.843750 -0.147959 -384.028015
v 82.281960 0.473920 -383.624481
v 81.296806 1.699286 -384.006561
v 80.467453 0.320089 -384.173950
v 81.965172 -0.052886 -383.688416
v 81.419891 1.650019 -382.364532
v 79.981682 1.028140 -382.768066
v 80.966835 -0.197226 -382.385986
v 81.796188 1.181971 -382.218567
v 80.298470 1.554946 -382.704132
v 80.394760 -0.054762 -382.571442
v 81.832970 0.567117 -382.167908
v 80.847816 1.792483 -382.549988
v 80.018463 0.413286 -382.717377
v 81.516182 0.040311 -382.231842
vt 1.000000 0.500000
vt 1.000000 1.000000
vt 0.900000 1.000000
vt 0.900000 0.500000
vt 0.800000 1.000000
vt 0.800000 0.500000
vt 0.700000 1.000000
vt 0.700000 0.500000
vt 0.600000 1.000000
vt 0.600000 0.500000
vt 0.500000 1.000000
vt 0.500000 0.500000
vt 0.400000 1.000000
vt 0.400000 0.500000
vt 0.300000 1.000000
vt 0.300000 0.500000
vt 0.200000 1.000000
vt 0.200000 0.500000
vt 1.000000 1.000000
vt 0.900000 1.000000
vt 0.100000 1.000000
vt 0.100000 0.500000
vt -0.000000 1.000000
vt -0.000000 0.500000
vt 0.750000 0.490000
vt 0.891068 0.444164
vt 0.978254 0.324164
vt 0.978254 0.175836
vt 0.891068 0.055836
vt 0.750000 0.010000
vt 0.608932 0.055836
vt 0.521746 0.175836
vt 0.521746 0.324164
vt 0.608932 0.444164
vt 0.400000 1.000000
vt 0.500000 1.000000
vt 0.500000 1.000000
vt 0.400000 1.000000
vt 0.800000 1.000000
vt 0.700000 1.000000
vt 0.100000 1.000000
vt -0.000000 1.000000
vt 0.200000 1.000000
vt 0.300000 1.000000
vt 0.400000 1.000000
vt 0.500000 1.000000
vt 0.600000 1.000000
vt 0.300000 1.000000
vt 0.400000 1.000000
vt 0.400000 1.000000
vt 0.300000 1.000000
vt 0.700000 1.000000
vt 0.800000 1.000000
vt 0.800000 1.000000
vt 0.700000 1.000000
vt -0.000000 1.000000
vt 0.100000 1.000000
vt 0.100000 1.000000
vt -0.000000 1.000000
vt 0.300000 1.000000
vt 0.300000 1.000000
vt 0.600000 1.000000
vt 0.600000 1.000000
vt 0.900000 1.000000
vt 1.000000 1.000000
vt 1.000000 1.000000
vt 0.900000 1.000000
vt 0.200000 1.000000
vt 0.200000 1.000000
vt 0.600000 1.000000
vt 0.700000 1.000000
vt 0.700000 1.000000
vt 0.600000 1.000000
vt 0.600000 1.000000
vt 0.700000 1.000000
vt 0.700000 1.000000
vt 0.600000 1.000000
vt 0.900000 1.000000
vt 1.000000 1.000000
vt 1.000000 1.000000
vt 0.900000 1.000000
vt 0.200000 1.000000
vt 0.200000 1.000000
vt 0.500000 1.000000
vt 0.500000 1.000000
vt 0.800000 1.000000
vt 0.800000 1.000000
vt 0.100000 1.000000
vt 0.100000 1.000000
vt -0.000000 1.000000
vt -0.000000 1.000000
vt 0.391068 0.444164
vt 0.250000 0.490000
vt 0.108932 0.444164
vt 0.021746 0.324164
vt 0.021746 0.175836
vt 0.108932 0.055836
vt 0.250000 0.010000
vt 0.391068 0.055836
vt 0.478254 0.175836
vt 0.478254 0.324164
vt 0.900000 1.000000
vt 1.000000 1.000000
vt 1.000000 1.000000
vt 0.900000 1.000000
vt 0.200000 1.000000
vt 0.300000 1.000000
vt 0.300000 1.000000
vt 0.200000 1.000000
vt 0.500000 1.000000
vt 0.500000 1.000000
vt 0.800000 1.000000
vt 0.800000 1.000000
vt 0.100000 1.000000
vt 0.100000 1.000000
vt 0.400000 1.000000
vt 0.400000 1.000000
vt -0.000000 1.000000
vt -0.000000 1.000000
vt 0.400000 1.000000
vt 0.300000 1.000000
vt 0.100000 1.000000
vt -0.000000 1.000000
vt 0.800000 1.000000
vt 0.700000 1.000000
vt 0.500000 1.000000
vt 0.200000 1.000000
vt 0.900000 1.000000
vt 0.600000 1.000000
vt 1.000000 1.000000
vt 0.200000 1.000000
vt 0.100000 1.000000
vt 0.900000 1.000000
vt 0.800000 1.000000
vt 0.600000 1.000000
vt 0.500000 1.000000
vt 0.300000 1.000000
vt 1.000000 1.000000
vt 0.700000 1.000000
vt 0.400000 1.000000
vt -0.000000 1.000000
vn -0.7368 -0.6502 -0.1855
vn -0.9539 -0.0809 -0.2889
vn -0.8067 0.5193 -0.2819
vn -0.3514 0.9212 -0.1673
vn 0.2382 0.9712 0.0113
vn 0.7368 0.6502 0.1855
vn 0.9539 0.0809 0.2889
vn 0.8067 -0.5193 0.2819
vn 0.3514 -0.9212 0.1673
vn -0.2382 -0.9712 -0.0113
vn 0.2940 -0.0610 -0.9539
vn -0.8067 0.5194 -0.2819
vn 0.8403 0.0056 -0.5420
vn -0.4102 0.9100 0.0595
vn -0.0022 0.5479 -0.8365
vn -0.2510 -0.4663 -0.8483
vn 0.7452 -0.3818 -0.5467
vn 0.3783 0.5802 -0.7213
vn -0.3911 -0.0988 -0.9150
vn 0.4514 -0.6412 -0.6206
vn 0.7001 0.3730 -0.6088
vn -0.2962 0.2886 -0.9105
vn 0.0708 -0.6734 -0.7358
vn -0.2940 0.0610 0.9538
vn -0.7850 -0.6181 0.0418
vn 0.7161 -0.4908 0.4963
vn 0.1632 0.9587 0.2331
vn -0.9962 -0.0644 -0.0588
vn 0.2732 -0.8816 0.3848
vn 0.6480 0.6465 0.4026
vn -0.8530 0.5193 -0.0520
vn -0.3001 -0.9302 0.2112
vn 0.8592 0.0929 0.5031
vn 0.9386 0.0837 0.3347
vn -0.2521 -0.9671 0.0349
vn -0.8200 0.5217 -0.2355
vn 0.7217 0.6524 0.2314
vn 0.3367 -0.9171 0.2132
vn -0.9670 -0.0778 -0.2424
vn 0.2237 0.9730 0.0574
vn 0.7916 -0.5158 0.3277
vn -0.7501 -0.6465 -0.1392
vn -0.3652 0.9230 -0.1209
vn -0.0585 -0.8706 -0.4884
vn -0.5503 0.4186 -0.7225
vn 0.7848 0.5318 -0.3182
vn 0.4515 -0.8274 -0.3340
vn -0.6775 -0.1006 -0.7286
vn 0.3536 0.8094 -0.4689
vn 0.8453 -0.4799 -0.2348
vn -0.4897 -0.5930 -0.6391
vn -0.1564 0.7662 -0.6233
vn 0.9727 0.0393 -0.2288
vn 0.9637 0.0359 -0.2644
vn -0.0447 -0.8540 -0.5183
vn -0.5256 0.4067 -0.7472
vn 0.7801 0.5174 -0.3518
vn 0.4540 -0.8118 -0.3673
vn -0.6501 -0.1010 -0.7531
vn 0.3583 0.7889 -0.4992
vn 0.8393 -0.4718 -0.2703
vn -0.4664 -0.5825 -0.6657
vn -0.1404 0.7467 -0.6502
usemtl Material.007
s off
f 1/1/1 2/2/1 4/3/1 3/4/1
f 3/4/2 4/3/2 6/5/2 5/6/2
f 5/6/3 6/5/3 8/7/3 7/8/3
f 7/8/4 8/7/4 10/9/4 9/10/4
f 9/10/5 10/9/5 12/11/5 11/12/5
f 11/12/6 12/11/6 14/13/6 13/14/6
f 13/14/7 14/13/7 16/15/7 15/16/7
f 15/16/8 16/15/8 18/17/8 17/18/8
f 4/3/1 2/2/1 22/19/1 21/20/1
f 17/18/9 18/17/9 20/21/9 19/22/9
f 19/22/10 20/21/10 2/23/10 1/24/10
f 1/25/11 3/26/11 5/27/11 7/28/11 9/29/11 11/30/11 13/31/11 15/32/11 17/33/11 19/34/11
f 104/35/6 101/36/6 36/37/6 37/38/6
f 8/7/12 6/5/12 23/39/12 24/40/12
f 6/5/2 4/3/2 21/20/2 23/39/2
f 2/23/10 20/21/10 30/41/10 22/42/10
f 20/21/9 18/17/9 29/43/9 30/41/9
f 18/17/8 16/15/8 28/44/8 29/43/8
f 16/15/7 14/13/7 27/45/7 28/44/7
f 14/13/6 12/11/6 26/46/6 27/45/6
f 12/11/5 10/9/5 25/47/5 26/46/5
f 10/9/4 8/7/4 24/40/4 25/47/4
f 72/48/13 71/49/13 47/50/13 48/51/13
f 105/52/3 102/53/3 33/54/3 34/55/3
f 106/56/10 103/57/10 40/58/10 32/59/10
f 107/60/7 104/35/7 37/38/7 38/61/7
f 108/62/4 105/52/4 34/55/4 35/63/4
f 109/64/1 106/65/1 32/66/1 31/67/1
f 110/68/8 107/60/8 38/61/8 39/69/8
f 101/36/5 108/62/5 35/63/5 36/37/5
f 102/53/2 109/64/2 31/67/2 33/54/2
f 103/57/9 110/68/9 39/69/9 40/58/9
f 84/70/14 81/71/14 54/72/14 55/73/14
f 74/74/15 73/75/15 44/76/15 45/77/15
f 76/78/16 75/79/16 42/80/16 41/81/16
f 77/82/17 72/48/17 48/51/17 49/83/17
f 78/84/18 74/74/18 45/77/18 46/85/18
f 79/86/19 76/78/19 41/81/19 43/87/19
f 80/88/20 77/82/20 49/83/20 50/89/20
f 71/49/21 78/84/21 46/85/21 47/50/21
f 73/75/22 79/86/22 43/87/22 44/76/22
f 75/90/23 80/88/23 50/89/23 42/91/23
f 51/92/24 52/93/24 60/94/24 59/95/24 58/96/24 57/97/24 56/98/24 55/99/24 54/100/24 53/101/24
f 85/102/25 82/103/25 52/104/25 51/105/25
f 86/106/26 83/107/26 58/108/26 59/109/26
f 87/110/27 84/70/27 55/73/27 56/111/27
f 88/112/28 85/102/28 51/105/28 53/113/28
f 89/114/29 86/106/29 59/109/29 60/115/29
f 90/116/30 87/110/30 56/111/30 57/117/30
f 81/71/31 88/112/31 53/113/31 54/72/31
f 82/118/32 89/114/32 60/115/32 52/119/32
f 83/107/33 90/116/33 57/117/33 58/108/33
f 48/51/34 47/50/34 70/120/34 65/121/34
f 42/91/35 50/89/35 69/122/35 63/123/35
f 44/76/36 43/87/36 68/124/36 61/125/36
f 47/50/37 46/85/37 67/126/37 70/120/37
f 50/89/38 49/83/38 66/127/38 69/122/38
f 43/87/39 41/81/39 64/128/39 68/124/39
f 46/85/40 45/77/40 62/129/40 67/126/40
f 49/83/41 48/51/41 65/121/41 66/127/41
f 41/81/42 42/80/42 63/130/42 64/128/42
f 45/77/43 44/76/43 61/125/43 62/129/43
f 32/59/44 40/58/44 80/88/44 75/90/44
f 34/55/45 33/54/45 79/86/45 73/75/45
f 37/38/46 36/37/46 78/84/46 71/49/46
f 40/58/47 39/69/47 77/82/47 80/88/47
f 33/54/48 31/67/48 76/78/48 79/86/48
f 36/37/49 35/63/49 74/74/49 78/84/49
f 39/69/50 38/61/50 72/48/50 77/82/50
f 31/67/51 32/66/51 75/79/51 76/78/51
f 35/63/52 34/55/52 73/75/52 74/74/52
f 38/61/53 37/38/53 71/49/53 72/48/53
f 65/121/54 70/120/54 90/116/54 83/107/54
f 63/123/55 69/122/55 89/114/55 82/118/55
f 61/125/56 68/124/56 88/112/56 81/71/56
f 70/120/57 67/126/57 87/110/57 90/116/57
f 69/122/58 66/127/58 86/106/58 89/114/58
f 68/124/59 64/128/59 85/102/59 88/112/59
f 67/126/60 62/129/60 84/70/60 87/110/60
f 66/127/61 65/121/61 83/107/61 86/106/61
f 64/128/62 63/130/62 82/103/62 85/102/62
f 62/129/63 61/125/63 81/71/63 84/70/63
f 30/41/9 29/43/9 100/131/9 95/132/9
f 23/39/2 21/20/2 99/133/2 93/134/2
f 26/46/5 25/47/5 98/135/5 91/136/5
f 29/43/8 28/44/8 97/137/8 100/131/8
f 21/20/1 22/19/1 96/138/1 99/133/1
f 25/47/4 24/40/4 94/139/4 98/135/4
f 28/44/7 27/45/7 92/140/7 97/137/7
f 22/42/10 30/41/10 95/132/10 96/141/10
f 24/40/3 23/39/3 93/134/3 94/139/3
f 27/45/6 26/46/6 91/136/6 92/140/6
f 95/132/9 100/131/9 110/68/9 103/57/9
f 93/134/2 99/133/2 109/64/2 102/53/2
f 91/136/5 98/135/5 108/62/5 101/36/5
f 100/131/8 97/137/8 107/60/8 110/68/8
f 99/133/1 96/138/1 106/65/1 109/64/1
f 98/135/4 94/139/4 105/52/4 108/62/4
f 97/137/7 92/140/7 104/35/7 107/60/7
f 96/141/10 95/132/10 103/57/10 106/56/10
f 94/139/3 93/134/3 102/53/3 105/52/3
f 92/140/6 91/136/6 101/36/6 104/35/6
