# Blender v3.4.1 OBJ File: 'level-track.blend'
# www.blender.org
mtllib Pillar_011.mtl
o Pillar.011_Cube.023
v -172.649933 -50.908524 53.494804
v -171.062363 -50.824074 52.281342
v -172.435913 -50.421062 53.808723
v -170.848343 -50.336613 52.595261
v -172.444412 -49.803905 53.840565
v -170.856842 -49.719460 52.627102
v -172.672165 -49.292789 53.578163
v -171.084595 -49.208344 52.364700
v -173.032181 -49.082939 53.121750
v -171.444611 -48.998493 51.908287
v -173.386963 -49.254513 52.645657
v -171.799393 -49.170067 51.432198
v -173.600983 -49.741974 52.331738
v -172.013412 -49.657528 51.118279
v -173.592484 -50.359131 52.299896
v -172.004913 -50.274681 51.086437
v -173.364731 -50.870247 52.562298
v -171.777161 -50.785797 51.348835
v -173.004715 -51.080097 53.018711
v -171.417145 -50.995647 51.805248
v -170.451462 -50.315502 52.291897
v -170.665466 -50.802963 51.977978
v -170.459946 -49.698349 52.323738
v -170.687698 -49.187229 52.061337
v -171.047729 -48.977379 51.604923
v -171.402496 -49.148952 51.128830
v -171.616516 -49.636414 50.814911
v -171.608017 -50.253571 50.783070
v -171.380264 -50.764687 51.045471
v -171.020248 -50.974537 51.501884
v -161.576828 -49.843433 45.508568
v -161.790848 -50.330894 45.194649
v -161.585327 -49.226276 45.540409
v -161.813080 -48.715160 45.278008
v -162.173096 -48.505310 44.821594
v -162.527878 -48.676884 44.345501
v -162.741882 -49.164345 44.031582
v -162.733398 -49.781502 43.999741
v -162.505646 -50.292618 44.262142
v -162.145615 -50.502468 44.718555
v -160.993134 -49.956013 45.521278
v -161.290115 -50.632427 45.085674
v -161.004929 -49.099632 45.565460
v -161.320953 -48.390388 45.201347
v -161.820541 -48.099197 44.568016
v -162.312836 -48.337276 43.907375
v -162.609802 -49.013691 43.471771
v -162.598022 -49.870071 43.427589
v -162.281982 -50.579315 43.791702
v -161.782410 -50.870506 44.425034
v -158.991364 -49.880623 44.090553
v -159.306305 -50.597942 43.628609
v -159.003860 -48.972454 44.137409
v -159.339020 -48.220325 43.751278
v -159.868805 -47.911522 43.079647
v -160.390869 -48.163998 42.379059
v -160.705795 -48.881317 41.917110
v -160.693314 -49.789490 41.870255
v -160.358154 -50.541618 42.256386
v -159.828369 -50.850418 42.928020
v -160.210068 -48.387421 44.295944
v -160.683411 -48.111519 43.695862
v -160.180832 -50.511742 44.186344
v -159.899460 -49.870838 44.599075
v -161.420074 -49.789413 42.615314
v -161.120636 -50.461414 42.960312
v -161.149857 -48.337093 43.069912
v -159.910614 -49.059422 44.640938
v -160.647293 -50.737316 43.560390
v -161.431244 -48.977997 42.657181
v -162.622040 -49.096191 43.742603
v -162.612137 -49.816246 43.705452
v -161.538361 -48.572109 45.196854
v -161.958420 -48.327271 44.664341
v -161.512421 -50.457245 45.099594
v -161.262726 -49.888504 45.465855
v -162.346405 -50.412586 44.011604
v -162.372345 -48.527451 44.108864
v -161.272629 -49.168449 45.503006
v -161.926361 -50.657425 44.544121
v -159.744843 -48.130497 44.173210
v -159.708908 -50.741806 44.038486
v -161.232239 -49.853889 42.107307
v -160.326691 -47.791344 43.435570
v -159.363022 -49.953983 44.545837
v -160.864151 -50.679947 42.531395
v -160.900070 -48.068638 42.666119
v -159.376740 -48.956554 44.597298
v -160.282288 -51.019100 43.269039
v -161.245956 -48.856461 42.158772
v -167.542007 -48.943604 48.178066
v -167.756027 -49.431065 47.864143
v -166.599457 -49.492996 49.372971
v -166.827209 -48.981880 49.110569
v -167.159760 -50.769184 48.551117
v -166.804993 -50.597610 49.027210
v -167.747543 -50.048218 47.832306
v -167.187241 -48.772030 48.654156
v -166.590973 -50.110149 49.341129
v -167.519775 -50.559334 48.094704
v -166.329849 -48.879124 47.251549
v -165.387299 -49.428516 48.446457
v -165.947601 -50.704704 47.624603
v -166.543869 -49.366585 46.937630
v -165.615051 -48.917400 48.184055
v -165.592819 -50.533134 48.100693
v -166.535370 -49.983738 46.905788
v -165.975082 -48.707550 47.727642
v -165.378815 -50.045673 48.414616
v -166.307617 -50.494858 47.168190
vt 1.000000 0.500000
vt 1.000000 1.000000
vt 0.900000 1.000000
vt 0.900000 0.500000
vt 0.800000 1.000000
vt 0.800000 0.500000
vt 0.700000 1.000000
vt 0.700000 0.500000
vt 0.600000 1.000000
vt 0.600000 0.500000
vt 0.500000 1.000000
vt 0.500000 0.500000
vt 0.400000 1.000000
vt 0.400000 0.500000
vt 0.300000 1.000000
vt 0.300000 0.500000
vt 0.200000 1.000000
vt 0.200000 0.500000
vt 1.000000 1.000000
vt 0.900000 1.000000
vt 0.100000 1.000000
vt 0.100000 0.500000
vt -0.000000 1.000000
vt -0.000000 0.500000
vt 0.750000 0.490000
vt 0.891068 0.444164
vt 0.978254 0.324164
vt 0.978254 0.175836
vt 0.891068 0.055836
vt 0.750000 0.010000
vt 0.608932 0.055836
vt 0.521746 0.175836
vt 0.521746 0.324164
vt 0.608932 0.444164
vt 0.400000 1.000000
vt 0.500000 1.000000
vt 0.500000 1.000000
vt 0.400000 1.000000
vt 0.800000 1.000000
vt 0.700000 1.000000
vt 0.100000 1.000000
vt -0.000000 1.000000
vt 0.200000 1.000000
vt 0.300000 1.000000
vt 0.400000 1.000000
vt 0.500000 1.000000
vt 0.600000 1.000000
vt 0.300000 1.000000
vt 0.400000 1.000000
vt 0.400000 1.000000
vt 0.300000 1.000000
vt 0.700000 1.000000
vt 0.800000 1.000000
vt 0.800000 1.000000
vt 0.700000 1.000000
vt -0.000000 1.000000
vt 0.100000 1.000000
vt 0.100000 1.000000
vt -0.000000 1.000000
vt 0.300000 1.000000
vt 0.300000 1.000000
vt 0.600000 1.000000
vt 0.600000 1.000000
vt 0.900000 1.000000
vt 1.000000 1.000000
vt 1.000000 1.000000
vt 0.900000 1.000000
vt 0.200000 1.000000
vt 0.200000 1.000000
vt 0.600000 1.000000
vt 0.700000 1.000000
vt 0.700000 1.000000
vt 0.600000 1.000000
vt 0.600000 1.000000
vt 0.700000 1.000000
vt 0.700000 1.000000
vt 0.600000 1.000000
vt 0.900000 1.000000
vt 1.000000 1.000000
vt 1.000000 1.000000
vt 0.900000 1.000000
vt 0.200000 1.000000
vt 0.200000 1.000000
vt 0.500000 1.000000
vt 0.500000 1.000000
vt 0.800000 1.000000
vt 0.800000 1.000000
vt 0.100000 1.000000
vt 0.100000 1.000000
vt -0.000000 1.000000
vt -0.000000 1.000000
vt 0.391068 0.444164
vt 0.250000 0.490000
vt 0.108932 0.444164
vt 0.021746 0.324164
vt 0.021746 0.175836
vt 0.108932 0.055836
vt 0.250000 0.010000
vt 0.391068 0.055836
vt 0.478254 0.175836
vt 0.478254 0.324164
vt 0.900000 1.000000
vt 1.000000 1.000000
vt 1.000000 1.000000
vt 0.900000 1.000000
vt 0.200000 1.000000
vt 0.300000 1.000000
vt 0.300000 1.000000
vt 0.200000 1.000000
vt 0.500000 1.000000
vt 0.500000 1.000000
vt 0.800000 1.000000
vt 0.800000 1.000000
vt 0.100000 1.000000
vt 0.100000 1.000000
vt 0.400000 1.000000
vt 0.400000 1.000000
vt -0.000000 1.000000
vt -0.000000 1.000000
vt 0.400000 1.000000
vt 0.300000 1.000000
vt 0.100000 1.000000
vt -0.000000 1.000000
vt 0.800000 1.000000
vt 0.700000 1.000000
vt 0.500000 1.000000
vt 0.200000 1.000000
vt 0.900000 1.000000
vt 0.600000 1.000000
vt 1.000000 1.000000
vt 0.200000 1.000000
vt 0.100000 1.000000
vt 0.900000 1.000000
vt 0.800000 1.000000
vt 0.600000 1.000000
vt 0.500000 1.000000
vt 0.300000 1.000000
vt 1.000000 1.000000
vt 0.700000 1.000000
vt 0.400000 1.000000
vt -0.000000 1.000000
vn 0.5000 -0.6133 0.6115
vn 0.6080 -0.0325 0.7932
vn 0.4838 0.5606 0.6720
vn 0.1748 0.9396 0.2941
vn -0.2010 0.9598 -0.1961
vn -0.5000 0.6133 -0.6115
vn -0.6080 0.0326 -0.7932
vn -0.4838 -0.5606 -0.6720
vn -0.1748 -0.9396 -0.2941
vn 0.2010 -0.9598 0.1961
vn -0.7938 -0.0422 0.6067
vn 0.6080 -0.0326 0.7932
vn -0.6080 0.0325 -0.7932
vn -0.9988 -0.0113 -0.0486
vn 0.3549 0.9236 0.1447
vn -0.4934 0.5742 0.6533
vn -0.2836 -0.4281 0.8581
vn -0.9186 -0.3941 0.0297
vn -0.7360 0.5872 0.3368
vn -0.2139 -0.0533 0.9754
vn -0.7192 -0.6387 0.2736
vn -0.9290 0.3636 0.0688
vn -0.2940 0.3296 0.8972
vn -0.4766 -0.6517 0.5900
vn 0.7938 0.0422 -0.6067
vn 0.6711 -0.5866 0.4533
vn -0.2857 -0.5354 -0.7949
vn -0.0106 0.9432 -0.3320
vn 0.7762 -0.0218 0.6301
vn 0.0149 -0.9040 -0.4274
vn -0.3014 0.6062 -0.7360
vn 0.6554 0.5550 0.5122
vn 0.3803 -0.9235 0.0494
vn -0.4064 0.0415 -0.9127
vn -0.5689 0.0346 -0.8216
vn 0.2391 -0.9566 0.1666
vn 0.5217 0.5620 0.6419
vn -0.4610 0.6146 -0.6401
vn -0.1362 -0.9365 -0.3231
vn 0.6457 -0.0305 0.7630
vn -0.1623 0.9607 -0.2252
vn -0.4449 -0.5579 -0.7006
vn 0.5378 -0.6105 0.5814
vn 0.2130 0.9406 0.2644
vn -0.2245 -0.8514 0.4741
vn 0.0202 0.4637 0.8857
vn -0.8308 0.5093 -0.2244
vn -0.5496 -0.8340 0.0500
vn 0.1276 -0.0494 0.9906
vn -0.5721 0.8090 0.1348
vn -0.8168 -0.5061 -0.2768
vn 0.0342 -0.5517 0.8334
vn -0.2471 0.7916 0.5589
vn -0.9243 0.0070 -0.3817
vn -0.9377 0.0050 -0.3474
vn -0.2534 -0.8344 0.4895
vn -0.0141 0.4517 0.8921
vn -0.8463 0.4963 -0.1936
vn -0.5713 -0.8174 0.0748
vn 0.0909 -0.0501 0.9946
vn -0.5934 0.7893 0.1577
vn -0.8327 -0.4967 -0.2448
vn -0.0004 -0.5413 0.8408
vn -0.2755 0.7723 0.5724
usemtl Material.007
s off
f 1/1/1 2/2/1 4/3/1 3/4/1
f 3/4/2 4/3/2 6/5/2 5/6/2
f 5/6/3 6/5/3 8/7/3 7/8/3
f 7/8/4 8/7/4 10/9/4 9/10/4
f 9/10/5 10/9/5 12/11/5 11/12/5
f 11/12/6 12/11/6 14/13/6 13/14/6
f 13/14/7 14/13/7 16/15/7 15/16/7
f 15/16/8 16/15/8 18/17/8 17/18/8
f 4/3/1 2/2/1 22/19/1 21/20/1
f 17/18/9 18/17/9 20/21/9 19/22/9
f 19/22/10 20/21/10 2/23/10 1/24/10
f 1/25/11 3/26/11 5/27/11 7/28/11 9/29/11 11/30/11 13/31/11 15/32/11 17/33/11 19/34/11
f 104/35/6 101/36/6 36/37/6 37/38/6
f 8/7/3 6/5/3 23/39/3 24/40/3
f 6/5/12 4/3/12 21/20/12 23/39/12
f 2/23/10 20/21/10 30/41/10 22/42/10
f 20/21/9 18/17/9 29/43/9 30/41/9
f 18/17/8 16/15/8 28/44/8 29/43/8
f 16/15/13 14/13/13 27/45/13 28/44/13
f 14/13/6 12/11/6 26/46/6 27/45/6
f 12/11/5 10/9/5 25/47/5 26/46/5
f 10/9/4 8/7/4 24/40/4 25/47/4
f 72/48/14 71/49/14 47/50/14 48/51/14
f 105/52/3 102/53/3 33/54/3 34/55/3
f 106/56/10 103/57/10 40/58/10 32/59/10
f 107/60/7 104/35/7 37/38/7 38/61/7
f 108/62/4 105/52/4 34/55/4 35/63/4
f 109/64/1 106/65/1 32/66/1 31/67/1
f 110/68/8 107/60/8 38/61/8 39/69/8
f 101/36/5 108/62/5 35/63/5 36/37/5
f 102/53/12 109/64/12 31/67/12 33/54/12
f 103/57/9 110/68/9 39/69/9 40/58/9
f 84/70/15 81/71/15 54/72/15 55/73/15
f 74/74/16 73/75/16 44/76/16 45/77/16
f 76/78/17 75/79/17 42/80/17 41/81/17
f 77/82/18 72/48/18 48/51/18 49/83/18
f 78/84/19 74/74/19 45/77/19 46/85/19
f 79/86/20 76/78/20 41/81/20 43/87/20
f 80/88/21 77/82/21 49/83/21 50/89/21
f 71/49/22 78/84/22 46/85/22 47/50/22
f 73/75/23 79/86/23 43/87/23 44/76/23
f 75/90/24 80/88/24 50/89/24 42/91/24
f 51/92/25 52/93/25 60/94/25 59/95/25 58/96/25 57/97/25 56/98/25 55/99/25 54/100/25 53/101/25
f 85/102/26 82/103/26 52/104/26 51/105/26
f 86/106/27 83/107/27 58/108/27 59/109/27
f 87/110/28 84/70/28 55/73/28 56/111/28
f 88/112/29 85/102/29 51/105/29 53/113/29
f 89/114/30 86/106/30 59/109/30 60/115/30
f 90/116/31 87/110/31 56/111/31 57/117/31
f 81/71/32 88/112/32 53/113/32 54/72/32
f 82/118/33 89/114/33 60/115/33 52/119/33
f 83/107/34 90/116/34 57/117/34 58/108/34
f 48/51/35 47/50/35 70/120/35 65/121/35
f 42/91/36 50/89/36 69/122/36 63/123/36
f 44/76/37 43/87/37 68/124/37 61/125/37
f 47/50/38 46/85/38 67/126/38 70/120/38
f 50/89/39 49/83/39 66/127/39 69/122/39
f 43/87/40 41/81/40 64/128/40 68/124/40
f 46/85/41 45/77/41 62/129/41 67/126/41
f 49/83/42 48/51/42 65/121/42 66/127/42
f 41/81/43 42/80/43 63/130/43 64/128/43
f 45/77/44 44/76/44 61/125/44 62/129/44
f 32/59/45 40/58/45 80/88/45 75/90/45
f 34/55/46 33/54/46 79/86/46 73/75/46
f 37/38/47 36/37/47 78/84/47 71/49/47
f 40/58/48 39/69/48 77/82/48 80/88/48
f 33/54/49 31/67/49 76/78/49 79/86/49
f 36/37/50 35/63/50 74/74/50 78/84/50
f 39/69/51 38/61/51 72/48/51 77/82/51
f 31/67/52 32/66/52 75/79/52 76/78/52
f 35/63/53 34/55/53 73/75/53 74/74/53
f 38/61/54 37/38/54 71/49/54 72/48/54
f 65/121/55 70/120/55 90/116/55 83/107/55
f 63/123/56 69/122/56 89/114/56 82/118/56
f 61/125/57 68/124/57 88/112/57 81/71/57
f 70/120/58 67/126/58 87/110/58 90/116/58
f 69/122/59 66/127/59 86/106/59 89/114/59
f 68/124/60 64/128/60 85/102/60 88/112/60
f 67/126/61 62/129/61 84/70/61 87/110/61
f 66/127/62 65/121/62 83/107/62 86/106/62
f 64/128/63 63/130/63 82/103/63 85/102/63
f 62/129/64 61/125/64 81/71/64 84/70/64
f 30/41/9 29/43/9 100/131/9 95/132/9
f 23/39/12 21/20/12 99/133/12 93/134/12
f 26/46/5 25/47/5 98/135/5 91/136/5
f 29/43/8 28/44/8 97/137/8 100/131/8
f 21/20/1 22/19/1 96/138/1 99/133/1
f 25/47/4 24/40/4 94/139/4 98/135/4
f 28/44/7 27/45/7 92/140/7 97/137/7
f 22/42/10 30/41/10 95/132/10 96/141/10
f 24/40/3 23/39/3 93/134/3 94/139/3
f 27/45/6 26/46/6 91/136/6 92/140/6
f 95/132/9 100/131/9 110/68/9 103/57/9
f 93/134/12 99/133/12 109/64/12 102/53/12
f 91/136/5 98/135/5 108/62/5 101/36/5
f 100/131/8 97/137/8 107/60/8 110/68/8
f 99/133/1 96/138/1 106/65/1 109/64/1
f 98/135/4 94/139/4 105/52/4 108/62/4
f 97/137/7 92/140/7 104/35/7 107/60/7
f 96/141/10 95/132/10 103/57/10 106/56/10
f 94/139/3 93/134/3 102/53/3 105/52/3
f 92/140/6 91/136/6 101/36/6 104/35/6
