# Blender v3.4.1 OBJ File: 'level-track.blend'
# www.blender.org
mtllib Pillar_004.mtl
o Pillar.004_Cube.014
v -130.961182 -8.264528 -281.577179
v -129.251343 -8.125532 -280.549011
v -131.196854 -7.797251 -281.248444
v -129.487015 -7.658255 -280.220245
v -131.259750 -7.182802 -281.226898
v -129.549911 -7.043806 -280.198730
v -131.125839 -6.655881 -281.520813
v -129.416000 -6.516885 -280.492645
v -130.846268 -6.417753 -282.017914
v -129.136444 -6.278758 -280.989746
v -130.527847 -6.559376 -282.528320
v -128.818008 -6.420380 -281.500153
v -130.292175 -7.026654 -282.857086
v -128.582336 -6.887658 -281.828888
v -130.229279 -7.641102 -282.878601
v -128.519440 -7.502106 -281.850433
v -130.363190 -8.168023 -282.584686
v -128.653351 -8.029027 -281.556519
v -130.642746 -8.406151 -282.087585
v -128.932907 -8.267155 -281.059418
v -129.059555 -7.623506 -279.963226
v -128.823883 -8.090783 -280.291962
v -129.122452 -7.009058 -279.941681
v -128.988541 -6.482136 -280.235596
v -128.708984 -6.244009 -280.732697
v -128.390549 -6.385631 -281.243103
v -128.154877 -6.852909 -281.571869
v -128.091980 -7.467357 -281.593384
v -128.225891 -7.994278 -281.299469
v -128.505447 -8.232406 -280.802368
v -119.501465 -6.846509 -274.215637
v -119.265793 -7.313786 -274.544403
v -119.564362 -6.232060 -274.194122
v -119.430450 -5.705139 -274.488037
v -119.150887 -5.467011 -274.985138
v -118.832458 -5.608634 -275.495544
v -118.596779 -6.075912 -275.824280
v -118.533890 -6.690360 -275.845825
v -118.667793 -7.217281 -275.551910
v -118.947357 -7.455409 -275.054810
v -119.291359 -6.964528 -273.672089
v -118.964333 -7.612937 -274.128265
v -119.378632 -6.111902 -273.642212
v -119.192818 -5.380729 -274.050079
v -118.804886 -5.050297 -274.739868
v -118.363022 -5.246816 -275.448120
v -118.035995 -5.895225 -275.904297
v -117.948723 -6.747850 -275.934143
v -118.134537 -7.479024 -275.526306
v -118.522461 -7.809455 -274.836517
v -117.226028 -6.825878 -272.339813
v -116.879227 -7.513497 -272.823608
v -117.318581 -5.921691 -272.308136
v -117.121529 -5.146305 -272.740662
v -116.710136 -4.795890 -273.472168
v -116.241554 -5.004293 -274.223236
v -115.894753 -5.691913 -274.707001
v -115.802200 -6.596100 -274.738678
v -115.999252 -7.371486 -274.306183
v -116.410637 -7.721900 -273.574677
v -117.941406 -5.336343 -273.353027
v -117.573853 -5.023263 -274.006592
v -117.724922 -7.451350 -273.427124
v -118.034775 -6.836984 -272.994904
v -116.762634 -6.631684 -275.138184
v -116.938698 -7.324467 -274.751740
v -117.155182 -5.209461 -274.677643
v -118.117470 -6.029127 -272.966583
v -117.306259 -7.637548 -274.098175
v -116.845329 -5.823827 -275.109894
v -118.287674 -5.992672 -275.817871
v -118.214294 -6.709570 -275.842987
v -119.260345 -5.560076 -274.258820
v -118.934174 -5.282246 -274.838806
v -119.068230 -7.436945 -274.324585
v -119.343201 -6.891754 -273.941010
v -118.370529 -7.324350 -275.500061
v -118.562645 -5.447482 -275.434326
v -119.416580 -6.174856 -273.915894
v -118.696701 -7.602180 -274.920074
v -117.667694 -5.076866 -272.958984
v -117.401573 -7.676724 -273.050079
v -116.218689 -6.669157 -275.153381
v -117.215874 -4.692011 -273.762390
v -117.782463 -6.921522 -272.518768
v -116.435112 -7.520757 -274.678375
v -116.701225 -4.920897 -274.587280
v -117.884109 -5.928466 -272.483978
v -116.886932 -7.905612 -273.874969
v -116.320343 -5.676101 -275.118591
v -124.232750 -6.047635 -278.742889
v -123.997078 -6.514913 -279.071655
v -124.964653 -6.671062 -277.441467
v -124.830742 -6.144140 -277.735413
v -124.347656 -7.894410 -278.302155
v -124.666084 -7.752788 -277.791748
v -123.934181 -7.129361 -279.093170
v -124.551186 -5.906013 -278.232483
v -124.901756 -7.285510 -277.463013
v -124.068092 -7.656282 -278.799255
v -122.927238 -5.941507 -277.957855
v -123.659142 -6.564934 -276.656433
v -123.042145 -7.788282 -277.517120
v -122.691566 -6.408785 -278.286621
v -123.525230 -6.038013 -276.950348
v -123.360573 -7.646660 -277.006714
v -122.628670 -7.023233 -278.308136
v -123.245674 -5.799885 -277.447449
v -123.596245 -7.179382 -276.677948
v -122.762581 -7.550155 -278.014221
vt 1.000000 0.500000
vt 1.000000 1.000000
vt 0.900000 1.000000
vt 0.900000 0.500000
vt 0.800000 1.000000
vt 0.800000 0.500000
vt 0.700000 1.000000
vt 0.700000 0.500000
vt 0.600000 1.000000
vt 0.600000 0.500000
vt 0.500000 1.000000
vt 0.500000 0.500000
vt 0.400000 1.000000
vt 0.400000 0.500000
vt 0.300000 1.000000
vt 0.300000 0.500000
vt 0.200000 1.000000
vt 0.200000 0.500000
vt 1.000000 1.000000
vt 0.900000 1.000000
vt 0.100000 1.000000
vt 0.100000 0.500000
vt -0.000000 1.000000
vt -0.000000 0.500000
vt 0.750000 0.490000
vt 0.891068 0.444164
vt 0.978254 0.324164
vt 0.978254 0.175836
vt 0.891068 0.055836
vt 0.750000 0.010000
vt 0.608932 0.055836
vt 0.521746 0.175836
vt 0.521746 0.324164
vt 0.608932 0.444164
vt 0.400000 1.000000
vt 0.500000 1.000000
vt 0.500000 1.000000
vt 0.400000 1.000000
vt 0.800000 1.000000
vt 0.700000 1.000000
vt 0.100000 1.000000
vt -0.000000 1.000000
vt 0.200000 1.000000
vt 0.300000 1.000000
vt 0.400000 1.000000
vt 0.500000 1.000000
vt 0.600000 1.000000
vt 0.300000 1.000000
vt 0.400000 1.000000
vt 0.400000 1.000000
vt 0.300000 1.000000
vt 0.700000 1.000000
vt 0.800000 1.000000
vt 0.800000 1.000000
vt 0.700000 1.000000
vt -0.000000 1.000000
vt 0.100000 1.000000
vt 0.100000 1.000000
vt -0.000000 1.000000
vt 0.300000 1.000000
vt 0.300000 1.000000
vt 0.600000 1.000000
vt 0.600000 1.000000
vt 0.900000 1.000000
vt 1.000000 1.000000
vt 1.000000 1.000000
vt 0.900000 1.000000
vt 0.200000 1.000000
vt 0.200000 1.000000
vt 0.600000 1.000000
vt 0.700000 1.000000
vt 0.700000 1.000000
vt 0.600000 1.000000
vt 0.600000 1.000000
vt 0.700000 1.000000
vt 0.700000 1.000000
vt 0.600000 1.000000
vt 0.900000 1.000000
vt 1.000000 1.000000
vt 1.000000 1.000000
vt 0.900000 1.000000
vt 0.200000 1.000000
vt 0.200000 1.000000
vt 0.500000 1.000000
vt 0.500000 1.000000
vt 0.800000 1.000000
vt 0.800000 1.000000
vt 0.100000 1.000000
vt 0.100000 1.000000
vt -0.000000 1.000000
vt -0.000000 1.000000
vt 0.391068 0.444164
vt 0.250000 0.490000
vt 0.108932 0.444164
vt 0.021746 0.324164
vt 0.021746 0.175836
vt 0.108932 0.055836
vt 0.250000 0.010000
vt 0.391068 0.055836
vt 0.478254 0.175836
vt 0.478254 0.324164
vt 0.900000 1.000000
vt 1.000000 1.000000
vt 1.000000 1.000000
vt 0.900000 1.000000
vt 0.200000 1.000000
vt 0.300000 1.000000
vt 0.300000 1.000000
vt 0.200000 1.000000
vt 0.500000 1.000000
vt 0.500000 1.000000
vt 0.800000 1.000000
vt 0.800000 1.000000
vt 0.100000 1.000000
vt 0.100000 1.000000
vt 0.400000 1.000000
vt 0.400000 1.000000
vt -0.000000 1.000000
vt -0.000000 1.000000
vt 0.400000 1.000000
vt 0.300000 1.000000
vt 0.100000 1.000000
vt -0.000000 1.000000
vt 0.800000 1.000000
vt 0.700000 1.000000
vt 0.500000 1.000000
vt 0.200000 1.000000
vt 0.900000 1.000000
vt 0.600000 1.000000
vt 1.000000 1.000000
vt 0.200000 1.000000
vt 0.100000 1.000000
vt 0.900000 1.000000
vt 0.800000 1.000000
vt 0.600000 1.000000
vt 0.500000 1.000000
vt 0.300000 1.000000
vt 1.000000 1.000000
vt 0.700000 1.000000
vt 0.400000 1.000000
vt -0.000000 1.000000
vn -0.3517 -0.6508 0.6729
vn -0.5087 -0.0821 0.8570
vn -0.4713 0.5180 0.7138
vn -0.2540 0.9202 0.2980
vn 0.0604 0.9709 -0.2317
vn 0.3517 0.6508 -0.6729
vn 0.5087 0.0821 -0.8570
vn 0.4713 -0.5180 -0.7138
vn 0.2540 -0.9202 -0.2980
vn -0.0604 -0.9709 0.2317
vn -0.8549 -0.0695 -0.5141
vn -0.4714 0.5180 0.7138
vn 0.4714 -0.5179 -0.7138
vn 0.5086 0.0821 -0.8571
vn -0.3247 -0.0001 -0.9458
vn -0.4714 0.5179 0.7138
vn 0.4714 -0.5180 -0.7138
vn -0.0479 0.9111 0.4095
vn -0.8170 0.5408 -0.2004
vn -0.8800 -0.4731 0.0416
vn -0.3488 -0.3874 -0.8534
vn -0.6140 0.5735 -0.5422
vn -0.9813 -0.1061 0.1605
vn -0.4891 -0.6470 -0.5850
vn -0.4260 0.3669 -0.8270
vn -0.9572 0.2812 0.0680
vn -0.6920 -0.6797 -0.2431
vn 0.8549 0.0695 0.5141
vn -0.1429 -0.6167 0.7741
vn 0.6575 -0.4875 -0.5744
vn 0.2579 0.9604 -0.1056
vn -0.2956 -0.0637 0.9532
vn 0.4461 -0.8787 -0.1700
vn 0.5412 0.6491 -0.5346
vn -0.2593 0.5199 0.8139
vn 0.1404 -0.9280 0.3451
vn 0.6938 0.0960 -0.7137
vn 0.5494 0.0853 -0.8312
vn -0.0190 -0.9664 0.2563
vn -0.4294 0.5207 0.7378
vn 0.3926 0.6534 -0.6472
vn 0.2950 -0.9157 -0.2728
vn -0.4667 -0.0786 0.8809
vn 0.1017 0.9731 -0.2066
vn 0.5122 -0.5140 -0.6881
vn -0.3100 -0.6467 0.6970
vn -0.2123 0.9225 0.3225
vn -0.4812 -0.8747 -0.0575
vn -0.8367 0.4132 0.3595
vn -0.1248 0.5280 -0.8400
vn -0.2093 -0.8308 -0.5157
vn -0.8690 -0.1059 0.4833
vn -0.3768 0.8049 -0.4584
vn -0.0213 -0.4829 -0.8754
vn -0.7332 -0.5978 0.3241
vn -0.6487 0.7610 -0.0002
vn 0.0110 0.0362 -0.9993
vn -0.0257 0.0324 -0.9991
vn -0.5071 -0.8583 -0.0782
vn -0.8547 0.4011 0.3296
vn -0.1584 0.5134 -0.8434
vn -0.2412 -0.8154 -0.5262
vn -0.8863 -0.1065 0.4508
vn -0.4049 0.7842 -0.4702
vn -0.0573 -0.4752 -0.8780
vn -0.7535 -0.5876 0.2950
vn -0.6708 0.7413 -0.0222
usemtl Material.007
s off
f 1/1/1 2/2/1 4/3/1 3/4/1
f 3/4/2 4/3/2 6/5/2 5/6/2
f 5/6/3 6/5/3 8/7/3 7/8/3
f 7/8/4 8/7/4 10/9/4 9/10/4
f 9/10/5 10/9/5 12/11/5 11/12/5
f 11/12/6 12/11/6 14/13/6 13/14/6
f 13/14/7 14/13/7 16/15/7 15/16/7
f 15/16/8 16/15/8 18/17/8 17/18/8
f 4/3/1 2/2/1 22/19/1 21/20/1
f 17/18/9 18/17/9 20/21/9 19/22/9
f 19/22/10 20/21/10 2/23/10 1/24/10
f 1/25/11 3/26/11 5/27/11 7/28/11 9/29/11 11/30/11 13/31/11 15/32/11 17/33/11 19/34/11
f 104/35/6 101/36/6 36/37/6 37/38/6
f 8/7/12 6/5/12 23/39/12 24/40/12
f 6/5/2 4/3/2 21/20/2 23/39/2
f 2/23/10 20/21/10 30/41/10 22/42/10
f 20/21/9 18/17/9 29/43/9 30/41/9
f 18/17/13 16/15/13 28/44/13 29/43/13
f 16/15/14 14/13/14 27/45/14 28/44/14
f 14/13/6 12/11/6 26/46/6 27/45/6
f 12/11/5 10/9/5 25/47/5 26/46/5
f 10/9/4 8/7/4 24/40/4 25/47/4
f 72/48/15 71/49/15 47/50/15 48/51/15
f 105/52/16 102/53/16 33/54/16 34/55/16
f 106/56/10 103/57/10 40/58/10 32/59/10
f 107/60/7 104/35/7 37/38/7 38/61/7
f 108/62/4 105/52/4 34/55/4 35/63/4
f 109/64/1 106/65/1 32/66/1 31/67/1
f 110/68/17 107/60/17 38/61/17 39/69/17
f 101/36/5 108/62/5 35/63/5 36/37/5
f 102/53/2 109/64/2 31/67/2 33/54/2
f 103/57/9 110/68/9 39/69/9 40/58/9
f 84/70/18 81/71/18 54/72/18 55/73/18
f 74/74/19 73/75/19 44/76/19 45/77/19
f 76/78/20 75/79/20 42/80/20 41/81/20
f 77/82/21 72/48/21 48/51/21 49/83/21
f 78/84/22 74/74/22 45/77/22 46/85/22
f 79/86/23 76/78/23 41/81/23 43/87/23
f 80/88/24 77/82/24 49/83/24 50/89/24
f 71/49/25 78/84/25 46/85/25 47/50/25
f 73/75/26 79/86/26 43/87/26 44/76/26
f 75/90/27 80/88/27 50/89/27 42/91/27
f 51/92/28 52/93/28 60/94/28 59/95/28 58/96/28 57/97/28 56/98/28 55/99/28 54/100/28 53/101/28
f 85/102/29 82/103/29 52/104/29 51/105/29
f 86/106/30 83/107/30 58/108/30 59/109/30
f 87/110/31 84/70/31 55/73/31 56/111/31
f 88/112/32 85/102/32 51/105/32 53/113/32
f 89/114/33 86/106/33 59/109/33 60/115/33
f 90/116/34 87/110/34 56/111/34 57/117/34
f 81/71/35 88/112/35 53/113/35 54/72/35
f 82/118/36 89/114/36 60/115/36 52/119/36
f 83/107/37 90/116/37 57/117/37 58/108/37
f 48/51/38 47/50/38 70/120/38 65/121/38
f 42/91/39 50/89/39 69/122/39 63/123/39
f 44/76/40 43/87/40 68/124/40 61/125/40
f 47/50/41 46/85/41 67/126/41 70/120/41
f 50/89/42 49/83/42 66/127/42 69/122/42
f 43/87/43 41/81/43 64/128/43 68/124/43
f 46/85/44 45/77/44 62/129/44 67/126/44
f 49/83/45 48/51/45 65/121/45 66/127/45
f 41/81/46 42/80/46 63/130/46 64/128/46
f 45/77/47 44/76/47 61/125/47 62/129/47
f 32/59/48 40/58/48 80/88/48 75/90/48
f 34/55/49 33/54/49 79/86/49 73/75/49
f 37/38/50 36/37/50 78/84/50 71/49/50
f 40/58/51 39/69/51 77/82/51 80/88/51
f 33/54/52 31/67/52 76/78/52 79/86/52
f 36/37/53 35/63/53 74/74/53 78/84/53
f 39/69/54 38/61/54 72/48/54 77/82/54
f 31/67/55 32/66/55 75/79/55 76/78/55
f 35/63/56 34/55/56 73/75/56 74/74/56
f 38/61/57 37/38/57 71/49/57 72/48/57
f 65/121/58 70/120/58 90/116/58 83/107/58
f 63/123/59 69/122/59 89/114/59 82/118/59
f 61/125/60 68/124/60 88/112/60 81/71/60
f 70/120/61 67/126/61 87/110/61 90/116/61
f 69/122/62 66/127/62 86/106/62 89/114/62
f 68/124/63 64/128/63 85/102/63 88/112/63
f 67/126/64 62/129/64 84/70/64 87/110/64
f 66/127/65 65/121/65 83/107/65 86/106/65
f 64/128/66 63/130/66 82/103/66 85/102/66
f 62/129/67 61/125/67 81/71/67 84/70/67
f 30/41/9 29/43/9 100/131/9 95/132/9
f 23/39/2 21/20/2 99/133/2 93/134/2
f 26/46/5 25/47/5 98/135/5 91/136/5
f 29/43/8 28/44/8 97/137/8 100/131/8
f 21/20/1 22/19/1 96/138/1 99/133/1
f 25/47/4 24/40/4 94/139/4 98/135/4
f 28/44/7 27/45/7 92/140/7 97/137/7
f 22/42/10 30/41/10 95/132/10 96/141/10
f 24/40/3 23/39/3 93/134/3 94/139/3
f 27/45/6 26/46/6 91/136/6 92/140/6
f 95/132/9 100/131/9 110/68/9 103/57/9
f 93/134/2 99/133/2 109/64/2 102/53/2
f 91/136/5 98/135/5 108/62/5 101/36/5
f 100/131/8 97/137/8 107/60/8 110/68/8
f 99/133/1 96/138/1 106/65/1 109/64/1
f 98/135/4 94/139/4 105/52/4 108/62/4
f 97/137/7 92/140/7 104/35/7 107/60/7
f 96/141/10 95/132/10 103/57/10 106/56/10
f 94/139/12 93/134/12 102/53/12 105/52/12
f 92/140/6 91/136/6 101/36/6 104/35/6
