# Blender v3.4.1 OBJ File: 'level-track.blend'
# www.blender.org
mtllib Pillar_007.mtl
o Pillar.007_Cube.017
v 40.832077 -59.230213 -138.172974
v 38.837891 -59.284492 -138.030548
v 40.790524 -58.764771 -138.577454
v 38.796337 -58.819050 -138.435028
v 40.769932 -58.149426 -138.631226
v 38.775749 -58.203705 -138.488815
v 40.778172 -57.619217 -138.313782
v 38.783989 -57.673496 -138.171371
v 40.812092 -57.376667 -137.746338
v 38.817909 -57.430946 -137.603928
v 40.858738 -57.514423 -137.145660
v 38.864555 -57.568703 -137.003250
v 40.900291 -57.979862 -136.741180
v 38.906109 -58.034142 -136.598770
v 40.920883 -58.595207 -136.687393
v 38.926697 -58.649487 -136.544983
v 40.912643 -59.125416 -137.004852
v 38.918461 -59.179695 -136.862442
v 40.878723 -59.367966 -137.572296
v 38.884537 -59.422245 -137.429871
v 38.297791 -58.832619 -138.399429
v 38.339348 -59.298061 -137.994949
v 38.277203 -58.217274 -138.453217
v 38.285442 -57.687065 -138.135757
v 38.319363 -57.444515 -137.568329
v 38.366009 -57.582272 -136.967651
v 38.407562 -58.047710 -136.563171
v 38.428154 -58.663055 -136.509384
v 38.419914 -59.193264 -136.826843
v 38.385994 -59.435814 -137.394272
v 27.150167 -59.136044 -137.603333
v 27.191723 -59.601486 -137.198853
v 27.129578 -58.520699 -137.657120
v 27.137817 -57.990490 -137.339661
v 27.171738 -57.747940 -136.772232
v 27.218384 -57.885696 -136.171555
v 27.259937 -58.351135 -135.767075
v 27.280529 -58.966480 -135.713287
v 27.272289 -59.496689 -136.030746
v 27.238369 -59.739239 -136.598175
v 26.679344 -59.300407 -137.927124
v 26.737007 -59.946266 -137.365860
v 26.650772 -58.446537 -138.001755
v 26.662205 -57.710804 -137.561249
v 26.709276 -57.374237 -136.773865
v 26.774004 -57.565388 -135.940338
v 26.831665 -58.211246 -135.379074
v 26.860237 -59.065117 -135.304443
v 26.848804 -59.800850 -135.744949
v 26.801735 -60.137417 -136.532333
v 24.221670 -59.400108 -137.828979
v 24.282820 -60.085026 -137.233780
v 24.191372 -58.494602 -137.908127
v 24.203497 -57.714378 -137.440979
v 24.253412 -57.357456 -136.605972
v 24.322054 -57.560169 -135.722061
v 24.383204 -58.245083 -135.126846
v 24.413502 -59.150589 -135.047699
v 24.401379 -59.930813 -135.514847
v 24.351461 -60.287735 -136.349854
v 25.239992 -57.804516 -137.411652
v 25.284592 -57.485622 -136.665604
v 25.310865 -59.922607 -137.226517
v 25.256229 -59.310658 -137.758316
v 25.427624 -59.087719 -135.273331
v 25.416794 -59.784824 -135.690720
v 25.345921 -57.666733 -135.875839
v 25.229160 -58.501621 -137.829041
v 25.372194 -60.103722 -136.436768
v 25.400555 -58.278687 -135.344055
v 26.996544 -58.293121 -135.594528
v 27.020565 -59.011063 -135.531769
v 26.854059 -57.872341 -137.429321
v 26.893635 -57.589348 -136.767273
v 26.916952 -59.751945 -137.265030
v 26.868469 -59.208897 -137.736954
v 27.010952 -59.629677 -135.902161
v 26.948059 -57.750072 -136.066437
v 26.844446 -58.490955 -137.799713
v 26.971376 -59.912666 -136.564209
v 24.766441 -57.589867 -137.576538
v 24.853561 -60.193520 -137.348969
v 24.997089 -59.167240 -134.948029
v 24.821264 -57.197865 -136.659454
v 24.786404 -59.441284 -138.002670
v 24.983772 -60.024151 -135.461090
v 24.896652 -57.420498 -135.688660
v 24.753126 -58.446777 -138.089600
v 24.928949 -60.416153 -136.378159
v 24.963812 -58.172733 -135.034943
v 33.516762 -57.714260 -136.621338
v 33.558315 -58.179703 -136.216858
v 33.427956 -58.349266 -138.106918
v 33.436195 -57.819057 -137.789459
v 33.536747 -59.567806 -137.047974
v 33.490097 -59.430050 -137.648651
v 33.578907 -58.795048 -136.163071
v 33.470116 -57.576508 -137.222015
v 33.448544 -58.964611 -138.053131
v 33.570667 -59.325256 -136.480530
v 31.994141 -57.755707 -136.512604
v 31.905334 -58.390709 -137.998169
v 32.014126 -59.609249 -136.939240
v 32.035694 -58.221146 -136.108124
v 31.913574 -57.860500 -137.680725
v 31.967480 -59.471497 -137.539917
v 32.056286 -58.836491 -136.054337
v 31.947495 -57.617950 -137.113281
v 31.925924 -59.006054 -137.944397
v 32.048046 -59.366699 -136.371796
vt 1.000000 0.500000
vt 1.000000 1.000000
vt 0.900000 1.000000
vt 0.900000 0.500000
vt 0.800000 1.000000
vt 0.800000 0.500000
vt 0.700000 1.000000
vt 0.700000 0.500000
vt 0.600000 1.000000
vt 0.600000 0.500000
vt 0.500000 1.000000
vt 0.500000 0.500000
vt 0.400000 1.000000
vt 0.400000 0.500000
vt 0.300000 1.000000
vt 0.300000 0.500000
vt 0.200000 1.000000
vt 0.200000 0.500000
vt 1.000000 1.000000
vt 0.900000 1.000000
vt 0.100000 1.000000
vt 0.100000 0.500000
vt -0.000000 1.000000
vt -0.000000 0.500000
vt 0.750000 0.490000
vt 0.891068 0.444164
vt 0.978254 0.324164
vt 0.978254 0.175836
vt 0.891068 0.055836
vt 0.750000 0.010000
vt 0.608932 0.055836
vt 0.521746 0.175836
vt 0.521746 0.324164
vt 0.608932 0.444164
vt 0.400000 1.000000
vt 0.500000 1.000000
vt 0.500000 1.000000
vt 0.400000 1.000000
vt 0.800000 1.000000
vt 0.700000 1.000000
vt 0.100000 1.000000
vt -0.000000 1.000000
vt 0.200000 1.000000
vt 0.300000 1.000000
vt 0.400000 1.000000
vt 0.500000 1.000000
vt 0.600000 1.000000
vt 0.300000 1.000000
vt 0.400000 1.000000
vt 0.400000 1.000000
vt 0.300000 1.000000
vt 0.700000 1.000000
vt 0.800000 1.000000
vt 0.800000 1.000000
vt 0.700000 1.000000
vt -0.000000 1.000000
vt 0.100000 1.000000
vt 0.100000 1.000000
vt -0.000000 1.000000
vt 0.300000 1.000000
vt 0.300000 1.000000
vt 0.600000 1.000000
vt 0.600000 1.000000
vt 0.900000 1.000000
vt 1.000000 1.000000
vt 1.000000 1.000000
vt 0.900000 1.000000
vt 0.200000 1.000000
vt 0.200000 1.000000
vt 0.600000 1.000000
vt 0.700000 1.000000
vt 0.700000 1.000000
vt 0.600000 1.000000
vt 0.600000 1.000000
vt 0.700000 1.000000
vt 0.700000 1.000000
vt 0.600000 1.000000
vt 0.900000 1.000000
vt 1.000000 1.000000
vt 1.000000 1.000000
vt 0.900000 1.000000
vt 0.200000 1.000000
vt 0.200000 1.000000
vt 0.500000 1.000000
vt 0.500000 1.000000
vt 0.800000 1.000000
vt 0.800000 1.000000
vt 0.100000 1.000000
vt 0.100000 1.000000
vt -0.000000 1.000000
vt -0.000000 1.000000
vt 0.391068 0.444164
vt 0.250000 0.490000
vt 0.108932 0.444164
vt 0.021746 0.324164
vt 0.021746 0.175836
vt 0.108932 0.055836
vt 0.250000 0.010000
vt 0.391068 0.055836
vt 0.478254 0.175836
vt 0.478254 0.324164
vt 0.900000 1.000000
vt 1.000000 1.000000
vt 1.000000 1.000000
vt 0.900000 1.000000
vt 0.200000 1.000000
vt 0.300000 1.000000
vt 0.300000 1.000000
vt 0.200000 1.000000
vt 0.500000 1.000000
vt 0.500000 1.000000
vt 0.800000 1.000000
vt 0.800000 1.000000
vt 0.100000 1.000000
vt 0.100000 1.000000
vt 0.400000 1.000000
vt 0.400000 1.000000
vt -0.000000 1.000000
vt -0.000000 1.000000
vt 0.400000 1.000000
vt 0.300000 1.000000
vt 0.100000 1.000000
vt -0.000000 1.000000
vt 0.800000 1.000000
vt 0.700000 1.000000
vt 0.500000 1.000000
vt 0.200000 1.000000
vt 0.900000 1.000000
vt 0.600000 1.000000
vt 1.000000 1.000000
vt 0.200000 1.000000
vt 0.100000 1.000000
vt 0.900000 1.000000
vt 0.800000 1.000000
vt 0.600000 1.000000
vt 0.500000 1.000000
vt 0.300000 1.000000
vt 1.000000 1.000000
vt 0.700000 1.000000
vt 0.400000 1.000000
vt -0.000000 1.000000
vn -0.0359 -0.6573 -0.7527
vn -0.0685 -0.0891 -0.9937
vn -0.0750 0.5131 -0.8550
vn -0.0529 0.9194 -0.3898
vn -0.0105 0.9745 0.2243
vn 0.0359 0.6574 0.7527
vn 0.0685 0.0891 0.9937
vn 0.0750 -0.5131 0.8550
vn -0.0359 -0.6574 -0.7527
vn 0.0529 -0.9194 0.3898
vn 0.0105 -0.9745 -0.2243
vn 0.9971 0.0271 -0.0712
vn 0.0359 0.6573 0.7527
vn -0.0528 0.9194 -0.3898
vn 0.8058 0.0783 0.5870
vn -0.2836 0.8878 -0.3625
vn 0.7275 0.6141 -0.3060
vn 0.7385 -0.4035 -0.5402
vn 0.8100 -0.3104 0.4975
vn 0.7548 0.6497 0.0904
vn 0.7174 -0.0368 -0.6957
vn 0.7957 -0.5726 0.1972
vn 0.7847 0.4450 0.4315
vn 0.7132 0.3519 -0.6063
vn 0.7684 -0.6082 -0.1991
vn -0.9971 -0.0271 0.0712
vn -0.2671 -0.6456 -0.7155
vn -0.1593 -0.5053 0.8481
vn -0.2425 0.9413 0.2347
vn -0.2989 -0.0930 -0.9497
vn -0.1808 -0.9004 0.3957
vn -0.1974 0.6330 0.7486
vn -0.3052 0.4927 -0.8149
vn -0.2220 -0.9540 -0.2015
vn -0.1656 0.0804 0.9829
vn 0.0202 0.0877 0.9959
vn -0.0377 -0.9746 -0.2206
vn -0.1231 0.5112 -0.8506
vn -0.0124 0.6553 0.7553
vn 0.0046 -0.9196 0.3928
vn -0.1167 -0.0904 -0.9891
vn -0.0587 0.9720 0.2275
vn 0.0267 -0.5138 0.8575
vn -0.0840 -0.6579 -0.7484
vn -0.1010 0.9170 -0.3859
vn 0.5094 -0.8293 -0.2297
vn 0.4355 0.4574 -0.7753
vn 0.5314 0.5822 0.6154
vn 0.5460 -0.7816 0.3015
vn 0.4411 -0.0635 -0.8952
vn 0.4913 0.8565 0.1583
vn 0.5652 -0.4302 0.7039
vn 0.4693 -0.5550 -0.6868
vn 0.4546 0.8089 -0.3729
vn 0.5596 0.0907 0.8238
vn 0.5898 0.0899 0.8025
vn 0.5407 -0.8098 -0.2277
vn 0.4684 0.4485 -0.7612
vn 0.5622 0.5705 0.5987
vn 0.5765 -0.7632 0.2918
vn 0.4739 -0.0609 -0.8785
vn 0.5229 0.8388 0.1517
vn 0.5953 -0.4196 0.6853
vn 0.5015 -0.5416 -0.6747
vn 0.4871 0.7922 -0.3677
vn 0.0685 0.0892 0.9937
usemtl Material.007
s off
f 1/1/1 2/2/1 4/3/1 3/4/1
f 3/4/2 4/3/2 6/5/2 5/6/2
f 5/6/3 6/5/3 8/7/3 7/8/3
f 7/8/4 8/7/4 10/9/4 9/10/4
f 9/10/5 10/9/5 12/11/5 11/12/5
f 11/12/6 12/11/6 14/13/6 13/14/6
f 13/14/7 14/13/7 16/15/7 15/16/7
f 15/16/8 16/15/8 18/17/8 17/18/8
f 4/3/9 2/2/9 22/19/9 21/20/9
f 17/18/10 18/17/10 20/21/10 19/22/10
f 19/22/11 20/21/11 2/23/11 1/24/11
f 1/25/12 3/26/12 5/27/12 7/28/12 9/29/12 11/30/12 13/31/12 15/32/12 17/33/12 19/34/12
f 104/35/13 101/36/13 36/37/13 37/38/13
f 8/7/3 6/5/3 23/39/3 24/40/3
f 6/5/2 4/3/2 21/20/2 23/39/2
f 2/23/11 20/21/11 30/41/11 22/42/11
f 20/21/10 18/17/10 29/43/10 30/41/10
f 18/17/8 16/15/8 28/44/8 29/43/8
f 16/15/7 14/13/7 27/45/7 28/44/7
f 14/13/13 12/11/13 26/46/13 27/45/13
f 12/11/5 10/9/5 25/47/5 26/46/5
f 10/9/14 8/7/14 24/40/14 25/47/14
f 72/48/15 71/49/15 47/50/15 48/51/15
f 105/52/3 102/53/3 33/54/3 34/55/3
f 106/56/11 103/57/11 40/58/11 32/59/11
f 107/60/7 104/35/7 37/38/7 38/61/7
f 108/62/4 105/52/4 34/55/4 35/63/4
f 109/64/1 106/65/1 32/66/1 31/67/1
f 110/68/8 107/60/8 38/61/8 39/69/8
f 101/36/5 108/62/5 35/63/5 36/37/5
f 102/53/2 109/64/2 31/67/2 33/54/2
f 103/57/10 110/68/10 39/69/10 40/58/10
f 84/70/16 81/71/16 54/72/16 55/73/16
f 74/74/17 73/75/17 44/76/17 45/77/17
f 76/78/18 75/79/18 42/80/18 41/81/18
f 77/82/19 72/48/19 48/51/19 49/83/19
f 78/84/20 74/74/20 45/77/20 46/85/20
f 79/86/21 76/78/21 41/81/21 43/87/21
f 80/88/22 77/82/22 49/83/22 50/89/22
f 71/49/23 78/84/23 46/85/23 47/50/23
f 73/75/24 79/86/24 43/87/24 44/76/24
f 75/90/25 80/88/25 50/89/25 42/91/25
f 51/92/26 52/93/26 60/94/26 59/95/26 58/96/26 57/97/26 56/98/26 55/99/26 54/100/26 53/101/26
f 85/102/27 82/103/27 52/104/27 51/105/27
f 86/106/28 83/107/28 58/108/28 59/109/28
f 87/110/29 84/70/29 55/73/29 56/111/29
f 88/112/30 85/102/30 51/105/30 53/113/30
f 89/114/31 86/106/31 59/109/31 60/115/31
f 90/116/32 87/110/32 56/111/32 57/117/32
f 81/71/33 88/112/33 53/113/33 54/72/33
f 82/118/34 89/114/34 60/115/34 52/119/34
f 83/107/35 90/116/35 57/117/35 58/108/35
f 48/51/36 47/50/36 70/120/36 65/121/36
f 42/91/37 50/89/37 69/122/37 63/123/37
f 44/76/38 43/87/38 68/124/38 61/125/38
f 47/50/39 46/85/39 67/126/39 70/120/39
f 50/89/40 49/83/40 66/127/40 69/122/40
f 43/87/41 41/81/41 64/128/41 68/124/41
f 46/85/42 45/77/42 62/129/42 67/126/42
f 49/83/43 48/51/43 65/121/43 66/127/43
f 41/81/44 42/80/44 63/130/44 64/128/44
f 45/77/45 44/76/45 61/125/45 62/129/45
f 32/59/46 40/58/46 80/88/46 75/90/46
f 34/55/47 33/54/47 79/86/47 73/75/47
f 37/38/48 36/37/48 78/84/48 71/49/48
f 40/58/49 39/69/49 77/82/49 80/88/49
f 33/54/50 31/67/50 76/78/50 79/86/50
f 36/37/51 35/63/51 74/74/51 78/84/51
f 39/69/52 38/61/52 72/48/52 77/82/52
f 31/67/53 32/66/53 75/79/53 76/78/53
f 35/63/54 34/55/54 73/75/54 74/74/54
f 38/61/55 37/38/55 71/49/55 72/48/55
f 65/121/56 70/120/56 90/116/56 83/107/56
f 63/123/57 69/122/57 89/114/57 82/118/57
f 61/125/58 68/124/58 88/112/58 81/71/58
f 70/120/59 67/126/59 87/110/59 90/116/59
f 69/122/60 66/127/60 86/106/60 89/114/60
f 68/124/61 64/128/61 85/102/61 88/112/61
f 67/126/62 62/129/62 84/70/62 87/110/62
f 66/127/63 65/121/63 83/107/63 86/106/63
f 64/128/64 63/130/64 82/103/64 85/102/64
f 62/129/65 61/125/65 81/71/65 84/70/65
f 30/41/10 29/43/10 100/131/10 95/132/10
f 23/39/2 21/20/2 99/133/2 93/134/2
f 26/46/5 25/47/5 98/135/5 91/136/5
f 29/43/8 28/44/8 97/137/8 100/131/8
f 21/20/1 22/19/1 96/138/1 99/133/1
f 25/47/4 24/40/4 94/139/4 98/135/4
f 28/44/66 27/45/66 92/140/66 97/137/66
f 22/42/11 30/41/11 95/132/11 96/141/11
f 24/40/3 23/39/3 93/134/3 94/139/3
f 27/45/13 26/46/13 91/136/13 92/140/13
f 95/132/10 100/131/10 110/68/10 103/57/10
f 93/134/2 99/133/2 109/64/2 102/53/2
f 91/136/5 98/135/5 108/62/5 101/36/5
f 100/131/8 97/137/8 107/60/8 110/68/8
f 99/133/1 96/138/1 106/65/1 109/64/1
f 98/135/4 94/139/4 105/52/4 108/62/4
f 97/137/7 92/140/7 104/35/7 107/60/7
f 96/141/11 95/132/11 103/57/11 106/56/11
f 94/139/3 93/134/3 102/53/3 105/52/3
f 92/140/13 91/136/13 101/36/13 104/35/13
