# Blender v3.4.1 OBJ File: 'level-track.blend'
# www.blender.org
mtllib Pillar_005.mtl
o Pillar.005_Cube.015
v -94.508270 -7.874080 -317.189331
v -92.808281 -7.836182 -316.136414
v -94.724991 -7.400584 -316.856445
v -93.025009 -7.362687 -315.803528
v -94.757507 -6.784151 -316.826141
v -93.057526 -6.746253 -315.773224
v -94.593399 -6.260237 -317.109955
v -92.893417 -6.222340 -316.057037
v -94.295357 -6.028960 -317.599487
v -92.595375 -5.991062 -316.546570
v -93.977211 -6.178659 -318.107758
v -92.277229 -6.140762 -317.054840
v -93.760490 -6.652155 -318.440613
v -92.060509 -6.614257 -317.387726
v -93.727974 -7.268588 -318.470947
v -92.027992 -7.230690 -317.418030
v -93.892075 -7.792501 -318.187134
v -92.192093 -7.754604 -317.134216
v -94.190125 -8.023779 -317.697601
v -92.490143 -7.985881 -316.644684
v -92.600014 -7.353212 -315.540314
v -92.383286 -7.826708 -315.873169
v -92.632530 -6.736779 -315.510010
v -92.468422 -6.212865 -315.793823
v -92.170380 -5.981588 -316.283356
v -91.852234 -6.131288 -316.791626
v -91.635513 -6.604783 -317.124481
v -91.602997 -7.221216 -317.154785
v -91.767097 -7.745130 -316.870972
v -92.065147 -7.976407 -316.381439
v -83.097000 -7.141362 -309.654480
v -82.880272 -7.614858 -309.987335
v -83.129517 -6.524929 -309.624146
v -82.965408 -6.001015 -309.907959
v -82.667366 -5.769738 -310.397491
v -82.349220 -5.919437 -310.905762
v -82.132500 -6.392933 -311.238647
v -82.099976 -7.009366 -311.268951
v -82.264084 -7.533280 -310.985138
v -82.562134 -7.764557 -310.495605
v -82.900703 -7.277875 -309.110077
v -82.599976 -7.934913 -309.571960
v -82.945831 -6.422496 -309.067993
v -82.718109 -5.695496 -309.461823
v -82.304535 -5.374570 -310.141113
v -81.863068 -5.582296 -310.846436
v -81.562340 -6.239333 -311.308319
v -81.517212 -7.094712 -311.350372
v -81.744934 -7.821712 -310.956543
v -82.158508 -8.142638 -310.277252
v -80.850006 -7.262658 -307.748413
v -80.531090 -7.959427 -308.238220
v -80.897858 -6.355550 -307.703796
v -80.656372 -5.584590 -308.121429
v -80.217781 -5.244256 -308.841797
v -79.749619 -5.464544 -309.589752
v -79.430702 -6.161314 -310.079590
v -79.382851 -7.068421 -310.124207
v -79.624336 -7.839381 -309.706543
v -80.062927 -8.179715 -308.986176
v -81.475990 -5.724193 -308.747559
v -81.084129 -5.420119 -309.391205
v -81.364059 -7.846030 -308.851929
v -81.649002 -7.223488 -308.414276
v -80.338150 -7.049944 -310.536957
v -80.553909 -7.738773 -310.163818
v -80.665840 -5.616936 -310.059448
v -81.691757 -6.413023 -308.374420
v -80.945770 -8.042848 -309.520172
v -80.380905 -6.239478 -310.497101
v -81.819756 -6.325359 -311.226807
v -81.781815 -7.044572 -311.262177
v -82.791542 -5.868093 -309.674255
v -82.443802 -5.598255 -310.245422
v -82.692207 -7.751022 -309.766846
v -82.945068 -7.198576 -309.378479
v -81.973282 -7.655843 -310.931030
v -82.072609 -5.772913 -310.838440
v -82.983009 -6.479363 -309.343109
v -82.321022 -7.925681 -310.359894
v -81.195274 -5.484663 -308.345917
v -81.057678 -8.092918 -308.474182
v -79.796585 -7.114335 -310.545502
v -80.713577 -5.110879 -309.137085
v -81.407936 -7.327665 -307.936218
v -80.061806 -7.961075 -310.086823
v -80.199402 -5.352819 -309.958527
v -81.460495 -6.331403 -307.887207
v -80.543503 -8.334858 -309.295624
v -79.849136 -6.118072 -310.496521
v -87.718399 -6.039132 -314.231262
v -87.501678 -6.512628 -314.564117
v -88.498695 -6.644624 -312.949646
v -88.334587 -6.120710 -313.233459
v -87.931305 -7.884252 -313.821106
v -88.249451 -7.734552 -313.312805
v -87.469154 -7.129060 -314.594452
v -88.036545 -5.889433 -313.722992
v -88.466171 -7.261057 -312.979950
v -87.633263 -7.652974 -314.310638
v -86.420410 -6.010196 -313.427338
v -87.200706 -6.615688 -312.145721
v -86.633316 -7.855316 -313.017151
v -86.203690 -6.483692 -313.760193
v -87.036598 -6.091774 -312.429535
v -86.951462 -7.705616 -312.508881
v -86.171165 -7.100124 -313.790497
v -86.738556 -5.860497 -312.919067
v -87.168182 -7.232121 -312.176025
v -86.335274 -7.624039 -313.506683
vt 1.000000 0.500000
vt 1.000000 1.000000
vt 0.900000 1.000000
vt 0.900000 0.500000
vt 0.800000 1.000000
vt 0.800000 0.500000
vt 0.700000 1.000000
vt 0.700000 0.500000
vt 0.600000 1.000000
vt 0.600000 0.500000
vt 0.500000 1.000000
vt 0.500000 0.500000
vt 0.400000 1.000000
vt 0.400000 0.500000
vt 0.300000 1.000000
vt 0.300000 0.500000
vt 0.200000 1.000000
vt 0.200000 0.500000
vt 1.000000 1.000000
vt 0.900000 1.000000
vt 0.100000 1.000000
vt 0.100000 0.500000
vt -0.000000 1.000000
vt -0.000000 0.500000
vt 0.750000 0.490000
vt 0.891068 0.444164
vt 0.978254 0.324164
vt 0.978254 0.175836
vt 0.891068 0.055836
vt 0.750000 0.010000
vt 0.608932 0.055836
vt 0.521746 0.175836
vt 0.521746 0.324164
vt 0.608932 0.444164
vt 0.400000 1.000000
vt 0.500000 1.000000
vt 0.500000 1.000000
vt 0.400000 1.000000
vt 0.800000 1.000000
vt 0.700000 1.000000
vt 0.100000 1.000000
vt -0.000000 1.000000
vt 0.200000 1.000000
vt 0.300000 1.000000
vt 0.400000 1.000000
vt 0.500000 1.000000
vt 0.600000 1.000000
vt 0.300000 1.000000
vt 0.400000 1.000000
vt 0.400000 1.000000
vt 0.300000 1.000000
vt 0.700000 1.000000
vt 0.800000 1.000000
vt 0.800000 1.000000
vt 0.700000 1.000000
vt -0.000000 1.000000
vt 0.100000 1.000000
vt 0.100000 1.000000
vt -0.000000 1.000000
vt 0.300000 1.000000
vt 0.300000 1.000000
vt 0.600000 1.000000
vt 0.600000 1.000000
vt 0.900000 1.000000
vt 1.000000 1.000000
vt 1.000000 1.000000
vt 0.900000 1.000000
vt 0.200000 1.000000
vt 0.200000 1.000000
vt 0.600000 1.000000
vt 0.700000 1.000000
vt 0.700000 1.000000
vt 0.600000 1.000000
vt 0.600000 1.000000
vt 0.700000 1.000000
vt 0.700000 1.000000
vt 0.600000 1.000000
vt 0.900000 1.000000
vt 1.000000 1.000000
vt 1.000000 1.000000
vt 0.900000 1.000000
vt 0.200000 1.000000
vt 0.200000 1.000000
vt 0.500000 1.000000
vt 0.500000 1.000000
vt 0.800000 1.000000
vt 0.800000 1.000000
vt 0.100000 1.000000
vt 0.100000 1.000000
vt -0.000000 1.000000
vt -0.000000 1.000000
vt 0.391068 0.444164
vt 0.250000 0.490000
vt 0.108932 0.444164
vt 0.021746 0.324164
vt 0.021746 0.175836
vt 0.108932 0.055836
vt 0.250000 0.010000
vt 0.391068 0.055836
vt 0.478254 0.175836
vt 0.478254 0.324164
vt 0.900000 1.000000
vt 1.000000 1.000000
vt 1.000000 1.000000
vt 0.900000 1.000000
vt 0.200000 1.000000
vt 0.300000 1.000000
vt 0.300000 1.000000
vt 0.200000 1.000000
vt 0.500000 1.000000
vt 0.500000 1.000000
vt 0.800000 1.000000
vt 0.800000 1.000000
vt 0.100000 1.000000
vt 0.100000 1.000000
vt 0.400000 1.000000
vt 0.400000 1.000000
vt -0.000000 1.000000
vt -0.000000 1.000000
vt 0.400000 1.000000
vt 0.300000 1.000000
vt 0.100000 1.000000
vt -0.000000 1.000000
vt 0.800000 1.000000
vt 0.700000 1.000000
vt 0.500000 1.000000
vt 0.200000 1.000000
vt 0.900000 1.000000
vt 0.600000 1.000000
vt 1.000000 1.000000
vt 0.200000 1.000000
vt 0.100000 1.000000
vt 0.900000 1.000000
vt 0.800000 1.000000
vt 0.600000 1.000000
vt 0.500000 1.000000
vt 0.300000 1.000000
vt 1.000000 1.000000
vt 0.700000 1.000000
vt 0.400000 1.000000
vt -0.000000 1.000000
vn -0.3931 -0.6424 0.6578
vn -0.5242 -0.0694 0.8488
vn -0.4550 0.5301 0.7155
vn -0.2120 0.9271 0.3089
vn 0.1119 0.9700 -0.2156
vn 0.3931 0.6424 -0.6579
vn 0.5242 0.0694 -0.8488
vn 0.4550 -0.5301 -0.7155
vn -0.3932 -0.6424 0.6578
vn 0.2120 -0.9271 -0.3089
vn -0.1119 -0.9700 0.2156
vn -0.8500 -0.0189 -0.5265
vn 0.3931 0.6424 -0.6578
vn -0.4549 0.5301 0.7155
vn 0.2120 -0.9272 -0.3089
vn -0.3108 0.0303 -0.9500
vn -0.3931 -0.6424 0.6579
vn -0.0082 0.9061 0.4231
vn -0.7861 0.5839 -0.2027
vn -0.9030 -0.4291 0.0225
vn -0.3556 -0.3566 -0.8639
vn -0.5770 0.6116 -0.5413
vn -0.9875 -0.0593 0.1457
vn -0.5123 -0.6129 -0.6015
vn -0.3956 0.4001 -0.8267
vn -0.9429 0.3277 0.0597
vn -0.7215 -0.6406 -0.2629
vn 0.8500 0.0189 0.5265
vn -0.1844 -0.6203 0.7624
vn 0.6404 -0.5111 -0.5732
vn 0.3068 0.9478 -0.0871
vn -0.3117 -0.0631 0.9481
vn 0.4042 -0.8972 -0.1778
vn 0.5803 0.6291 -0.5171
vn -0.2446 0.5199 0.8184
vn 0.0891 -0.9389 0.3323
vn 0.7077 0.0719 -0.7029
vn 0.5647 0.0702 -0.8223
vn -0.0707 -0.9680 0.2408
vn -0.4133 0.5304 0.7401
vn 0.4338 0.6426 -0.6316
vn 0.2529 -0.9251 -0.2831
vn -0.4825 -0.0684 0.8732
vn 0.1529 0.9698 -0.1899
vn 0.4955 -0.5286 -0.6892
vn -0.3515 -0.6407 0.6825
vn -0.1707 0.9270 0.3340
vn -0.5234 -0.8486 -0.0777
vn -0.8201 0.4490 0.3547
vn -0.0865 0.5462 -0.8332
vn -0.2431 -0.8115 -0.5314
vn -0.8799 -0.0695 0.4700
vn -0.3297 0.8296 -0.4507
vn -0.0330 -0.4681 -0.8831
vn -0.7666 -0.5652 0.3048
vn -0.6099 0.7925 0.0030
vn 0.0268 0.0505 -0.9984
vn -0.0100 0.0486 -0.9988
vn -0.5480 -0.8306 -0.0984
vn -0.8382 0.4383 0.3245
vn -0.1209 0.5333 -0.8372
vn -0.2740 -0.7944 -0.5421
vn -0.8967 -0.0688 0.4372
vn -0.3586 0.8104 -0.4632
vn -0.0685 -0.4585 -0.8860
vn -0.7859 -0.5535 0.2757
vn -0.6327 0.7741 -0.0195
vn -0.5241 -0.0694 0.8488
usemtl Material.007
s off
f 1/1/1 2/2/1 4/3/1 3/4/1
f 3/4/2 4/3/2 6/5/2 5/6/2
f 5/6/3 6/5/3 8/7/3 7/8/3
f 7/8/4 8/7/4 10/9/4 9/10/4
f 9/10/5 10/9/5 12/11/5 11/12/5
f 11/12/6 12/11/6 14/13/6 13/14/6
f 13/14/7 14/13/7 16/15/7 15/16/7
f 15/16/8 16/15/8 18/17/8 17/18/8
f 4/3/9 2/2/9 22/19/9 21/20/9
f 17/18/10 18/17/10 20/21/10 19/22/10
f 19/22/11 20/21/11 2/23/11 1/24/11
f 1/25/12 3/26/12 5/27/12 7/28/12 9/29/12 11/30/12 13/31/12 15/32/12 17/33/12 19/34/12
f 104/35/13 101/36/13 36/37/13 37/38/13
f 8/7/14 6/5/14 23/39/14 24/40/14
f 6/5/2 4/3/2 21/20/2 23/39/2
f 2/23/11 20/21/11 30/41/11 22/42/11
f 20/21/15 18/17/15 29/43/15 30/41/15
f 18/17/8 16/15/8 28/44/8 29/43/8
f 16/15/7 14/13/7 27/45/7 28/44/7
f 14/13/13 12/11/13 26/46/13 27/45/13
f 12/11/5 10/9/5 25/47/5 26/46/5
f 10/9/4 8/7/4 24/40/4 25/47/4
f 72/48/16 71/49/16 47/50/16 48/51/16
f 105/52/3 102/53/3 33/54/3 34/55/3
f 106/56/11 103/57/11 40/58/11 32/59/11
f 107/60/7 104/35/7 37/38/7 38/61/7
f 108/62/4 105/52/4 34/55/4 35/63/4
f 109/64/17 106/65/17 32/66/17 31/67/17
f 110/68/8 107/60/8 38/61/8 39/69/8
f 101/36/5 108/62/5 35/63/5 36/37/5
f 102/53/2 109/64/2 31/67/2 33/54/2
f 103/57/10 110/68/10 39/69/10 40/58/10
f 84/70/18 81/71/18 54/72/18 55/73/18
f 74/74/19 73/75/19 44/76/19 45/77/19
f 76/78/20 75/79/20 42/80/20 41/81/20
f 77/82/21 72/48/21 48/51/21 49/83/21
f 78/84/22 74/74/22 45/77/22 46/85/22
f 79/86/23 76/78/23 41/81/23 43/87/23
f 80/88/24 77/82/24 49/83/24 50/89/24
f 71/49/25 78/84/25 46/85/25 47/50/25
f 73/75/26 79/86/26 43/87/26 44/76/26
f 75/90/27 80/88/27 50/89/27 42/91/27
f 51/92/28 52/93/28 60/94/28 59/95/28 58/96/28 57/97/28 56/98/28 55/99/28 54/100/28 53/101/28
f 85/102/29 82/103/29 52/104/29 51/105/29
f 86/106/30 83/107/30 58/108/30 59/109/30
f 87/110/31 84/70/31 55/73/31 56/111/31
f 88/112/32 85/102/32 51/105/32 53/113/32
f 89/114/33 86/106/33 59/109/33 60/115/33
f 90/116/34 87/110/34 56/111/34 57/117/34
f 81/71/35 88/112/35 53/113/35 54/72/35
f 82/118/36 89/114/36 60/115/36 52/119/36
f 83/107/37 90/116/37 57/117/37 58/108/37
f 48/51/38 47/50/38 70/120/38 65/121/38
f 42/91/39 50/89/39 69/122/39 63/123/39
f 44/76/40 43/87/40 68/124/40 61/125/40
f 47/50/41 46/85/41 67/126/41 70/120/41
f 50/89/42 49/83/42 66/127/42 69/122/42
f 43/87/43 41/81/43 64/128/43 68/124/43
f 46/85/44 45/77/44 62/129/44 67/126/44
f 49/83/45 48/51/45 65/121/45 66/127/45
f 41/81/46 42/80/46 63/130/46 64/128/46
f 45/77/47 44/76/47 61/125/47 62/129/47
f 32/59/48 40/58/48 80/88/48 75/90/48
f 34/55/49 33/54/49 79/86/49 73/75/49
f 37/38/50 36/37/50 78/84/50 71/49/50
f 40/58/51 39/69/51 77/82/51 80/88/51
f 33/54/52 31/67/52 76/78/52 79/86/52
f 36/37/53 35/63/53 74/74/53 78/84/53
f 39/69/54 38/61/54 72/48/54 77/82/54
f 31/67/55 32/66/55 75/79/55 76/78/55
f 35/63/56 34/55/56 73/75/56 74/74/56
f 38/61/57 37/38/57 71/49/57 72/48/57
f 65/121/58 70/120/58 90/116/58 83/107/58
f 63/123/59 69/122/59 89/114/59 82/118/59
f 61/125/60 68/124/60 88/112/60 81/71/60
f 70/120/61 67/126/61 87/110/61 90/116/61
f 69/122/62 66/127/62 86/106/62 89/114/62
f 68/124/63 64/128/63 85/102/63 88/112/63
f 67/126/64 62/129/64 84/70/64 87/110/64
f 66/127/65 65/121/65 83/107/65 86/106/65
f 64/128/66 63/130/66 82/103/66 85/102/66
f 62/129/67 61/125/67 81/71/67 84/70/67
f 30/41/10 29/43/10 100/131/10 95/132/10
f 23/39/2 21/20/2 99/133/2 93/134/2
f 26/46/5 25/47/5 98/135/5 91/136/5
f 29/43/8 28/44/8 97/137/8 100/131/8
f 21/20/17 22/19/17 96/138/17 99/133/17
f 25/47/4 24/40/4 94/139/4 98/135/4
f 28/44/7 27/45/7 92/140/7 97/137/7
f 22/42/11 30/41/11 95/132/11 96/141/11
f 24/40/3 23/39/3 93/134/3 94/139/3
f 27/45/6 26/46/6 91/136/6 92/140/6
f 95/132/10 100/131/10 110/68/10 103/57/10
f 93/134/68 99/133/68 109/64/68 102/53/68
f 91/136/5 98/135/5 108/62/5 101/36/5
f 100/131/8 97/137/8 107/60/8 110/68/8
f 99/133/17 96/138/17 106/65/17 109/64/17
f 98/135/4 94/139/4 105/52/4 108/62/4
f 97/137/7 92/140/7 104/35/7 107/60/7
f 96/141/11 95/132/11 103/57/11 106/56/11
f 94/139/3 93/134/3 102/53/3 105/52/3
f 92/140/6 91/136/6 101/36/6 104/35/6
