# Blender v3.4.1 OBJ File: 'level-track.blend'
# www.blender.org
mtllib Pillar_002.mtl
o Pillar.002_Cube.011
v -40.525761 -69.889519 -211.473282
v -38.622257 -69.846680 -212.085510
v -40.412846 -69.418617 -211.089264
v -38.509338 -69.375786 -211.701492
v -40.411057 -68.802505 -211.040588
v -38.507553 -68.759666 -211.652832
v -40.521084 -68.276512 -211.345871
v -38.617577 -68.233681 -211.958115
v -40.700893 -68.041557 -211.888489
v -38.797390 -67.998718 -212.500717
v -40.881809 -68.187378 -212.461166
v -38.978306 -68.144539 -213.073410
v -40.994728 -68.658272 -212.845184
v -39.091225 -68.615440 -213.457428
v -40.996513 -69.274384 -212.893860
v -39.093010 -69.231552 -213.506088
v -40.886490 -69.800377 -212.588577
v -38.982986 -69.757545 -213.200821
v -40.706676 -70.035339 -212.045959
v -38.803173 -69.992500 -212.658203
v -38.033463 -69.365074 -211.854553
v -38.146381 -69.835976 -212.238571
v -38.031677 -68.748962 -211.805893
v -38.141701 -68.222969 -212.111160
v -38.321514 -67.988007 -212.653778
v -38.502430 -68.133827 -213.226471
v -38.615345 -68.604729 -213.610489
v -38.617134 -69.220840 -213.659149
v -38.507111 -69.746834 -213.353867
v -38.327297 -69.981789 -212.811264
v -27.392746 -69.125618 -215.277008
v -27.505665 -69.596519 -215.661026
v -27.390961 -68.509506 -215.228333
v -27.500984 -67.983513 -215.533615
v -27.680796 -67.748550 -216.076233
v -27.861713 -67.894371 -216.648911
v -27.974628 -68.365273 -217.032928
v -27.976418 -68.981384 -217.081604
v -27.866392 -69.507378 -216.776321
v -27.686581 -69.742332 -216.233704
v -26.850863 -69.263329 -215.074692
v -27.007549 -69.916763 -215.607574
v -26.848381 -68.408394 -215.007172
v -27.001057 -67.678505 -215.430786
v -27.250568 -67.352470 -216.183716
v -27.501614 -67.554817 -216.978409
v -27.658300 -68.208252 -217.511276
v -27.660782 -69.063187 -217.578796
v -27.508106 -69.793068 -217.155197
v -27.258595 -70.119102 -216.402252
v -24.484928 -69.242531 -215.754150
v -24.651091 -69.935486 -216.319244
v -24.482298 -68.335899 -215.682526
v -24.644203 -67.561882 -216.131760
v -24.908804 -67.216125 -216.930237
v -25.175030 -67.430710 -217.772964
v -25.341192 -68.123657 -218.338074
v -25.343822 -69.030289 -218.409683
v -25.181915 -69.804306 -217.960449
v -24.917316 -70.150063 -217.161972
v -25.652149 -67.703369 -215.914185
v -25.888559 -67.394447 -216.627594
v -25.658302 -69.824097 -216.081696
v -25.509842 -69.204971 -215.576797
v -26.277233 -69.015343 -217.949432
v -26.132576 -69.706902 -217.548065
v -26.126423 -67.586166 -217.380554
v -25.507492 -68.394928 -215.512817
v -25.896164 -70.015816 -216.834656
v -26.274883 -68.205292 -217.885452
v -27.762985 -68.296028 -217.263000
v -27.765072 -69.014870 -217.319778
v -27.210365 -67.850616 -215.513687
v -27.420158 -67.576485 -216.146774
v -27.215826 -69.732567 -215.662338
v -27.084082 -69.183151 -215.214294
v -27.636700 -69.628563 -216.963593
v -27.631241 -67.746613 -216.814957
v -27.081997 -68.464310 -215.157516
v -27.426907 -69.902702 -216.330521
v -25.164410 -67.463982 -215.866074
v -25.171970 -70.070877 -216.071976
v -25.932793 -69.076714 -218.367889
v -25.455017 -67.084244 -216.743027
v -24.989477 -69.309822 -215.451340
v -25.754971 -69.926811 -217.874512
v -25.747410 -67.319916 -217.668594
v -24.986588 -68.314079 -215.372696
v -25.464363 -70.306549 -216.997543
v -25.929901 -68.080971 -218.289230
v -33.873688 -68.029663 -214.715240
v -33.986607 -68.500565 -215.099258
v -33.402935 -68.644798 -213.294662
v -33.512959 -68.118805 -213.599945
v -33.698555 -69.877625 -214.300034
v -33.517639 -69.731812 -213.727341
v -33.988392 -69.116676 -215.147919
v -33.692772 -67.883842 -214.142548
v -33.404724 -69.260910 -213.343323
v -33.878368 -69.642670 -214.842651
v -32.420303 -67.996956 -215.182709
v -31.949551 -68.612091 -213.762131
v -32.245171 -69.844925 -214.767502
v -32.533222 -68.467857 -215.566727
v -32.059578 -68.086098 -214.067398
v -32.064255 -69.699104 -214.194809
v -32.535007 -69.083969 -215.615387
v -32.239388 -67.851143 -214.610016
v -31.951340 -69.228203 -213.810791
v -32.424984 -69.609962 -215.310104
vt 1.000000 0.500000
vt 1.000000 1.000000
vt 0.900000 1.000000
vt 0.900000 0.500000
vt 0.800000 1.000000
vt 0.800000 0.500000
vt 0.700000 1.000000
vt 0.700000 0.500000
vt 0.600000 1.000000
vt 0.600000 0.500000
vt 0.500000 1.000000
vt 0.500000 0.500000
vt 0.400000 1.000000
vt 0.400000 0.500000
vt 0.300000 1.000000
vt 0.300000 0.500000
vt 0.200000 1.000000
vt 0.200000 0.500000
vt 1.000000 1.000000
vt 0.900000 1.000000
vt 0.100000 1.000000
vt 0.100000 0.500000
vt -0.000000 1.000000
vt -0.000000 0.500000
vt 0.750000 0.490000
vt 0.891068 0.444164
vt 0.978254 0.324164
vt 0.978254 0.175836
vt 0.891068 0.055836
vt 0.750000 0.010000
vt 0.608932 0.055836
vt 0.521746 0.175836
vt 0.521746 0.324164
vt 0.608932 0.444164
vt 0.400000 1.000000
vt 0.500000 1.000000
vt 0.500000 1.000000
vt 0.400000 1.000000
vt 0.800000 1.000000
vt 0.700000 1.000000
vt 0.100000 1.000000
vt -0.000000 1.000000
vt 0.200000 1.000000
vt 0.300000 1.000000
vt 0.400000 1.000000
vt 0.500000 1.000000
vt 0.600000 1.000000
vt 0.300000 1.000000
vt 0.400000 1.000000
vt 0.400000 1.000000
vt 0.300000 1.000000
vt 0.700000 1.000000
vt 0.800000 1.000000
vt 0.800000 1.000000
vt 0.700000 1.000000
vt -0.000000 1.000000
vt 0.100000 1.000000
vt 0.100000 1.000000
vt -0.000000 1.000000
vt 0.300000 1.000000
vt 0.300000 1.000000
vt 0.600000 1.000000
vt 0.600000 1.000000
vt 0.900000 1.000000
vt 1.000000 1.000000
vt 1.000000 1.000000
vt 0.900000 1.000000
vt 0.200000 1.000000
vt 0.200000 1.000000
vt 0.600000 1.000000
vt 0.700000 1.000000
vt 0.700000 1.000000
vt 0.600000 1.000000
vt 0.600000 1.000000
vt 0.700000 1.000000
vt 0.700000 1.000000
vt 0.600000 1.000000
vt 0.900000 1.000000
vt 1.000000 1.000000
vt 1.000000 1.000000
vt 0.900000 1.000000
vt 0.200000 1.000000
vt 0.200000 1.000000
vt 0.500000 1.000000
vt 0.500000 1.000000
vt 0.800000 1.000000
vt 0.800000 1.000000
vt 0.100000 1.000000
vt 0.100000 1.000000
vt -0.000000 1.000000
vt -0.000000 1.000000
vt 0.391068 0.444164
vt 0.250000 0.490000
vt 0.108932 0.444164
vt 0.021746 0.324164
vt 0.021746 0.175836
vt 0.108932 0.055836
vt 0.250000 0.010000
vt 0.391068 0.055836
vt 0.478254 0.175836
vt 0.478254 0.324164
vt 0.900000 1.000000
vt 1.000000 1.000000
vt 1.000000 1.000000
vt 0.900000 1.000000
vt 0.200000 1.000000
vt 0.300000 1.000000
vt 0.300000 1.000000
vt 0.200000 1.000000
vt 0.500000 1.000000
vt 0.500000 1.000000
vt 0.800000 1.000000
vt 0.800000 1.000000
vt 0.100000 1.000000
vt 0.100000 1.000000
vt 0.400000 1.000000
vt 0.400000 1.000000
vt -0.000000 1.000000
vt -0.000000 1.000000
vt 0.400000 1.000000
vt 0.300000 1.000000
vt 0.100000 1.000000
vt -0.000000 1.000000
vt 0.800000 1.000000
vt 0.700000 1.000000
vt 0.500000 1.000000
vt 0.200000 1.000000
vt 0.900000 1.000000
vt 0.600000 1.000000
vt 1.000000 1.000000
vt 0.200000 1.000000
vt 0.100000 1.000000
vt 0.900000 1.000000
vt 0.800000 1.000000
vt 0.600000 1.000000
vt 0.500000 1.000000
vt 0.300000 1.000000
vt 1.000000 1.000000
vt 0.700000 1.000000
vt 0.400000 1.000000
vt -0.000000 1.000000
vn 0.2465 -0.6473 0.7213
vn 0.3068 -0.0758 0.9487
vn 0.2500 0.5246 0.8138
vn 0.0976 0.9247 0.3681
vn -0.0921 0.9715 -0.2183
vn -0.2466 0.6473 -0.7213
vn -0.3068 0.0758 -0.9487
vn -0.2500 -0.5246 -0.8138
vn 0.2466 -0.6473 0.7212
vn -0.0976 -0.9247 -0.3681
vn 0.0921 -0.9715 0.2183
vn -0.9518 -0.0214 0.3061
vn -0.2465 0.6473 -0.7213
vn 0.2499 0.5246 0.8138
vn 0.3069 -0.0758 0.9487
vn -0.2499 -0.5246 -0.8138
vn -0.3069 0.0758 -0.9487
vn -0.2466 0.6473 -0.7212
vn -0.9250 0.0326 -0.3785
vn 0.2466 -0.6473 0.7213
vn 0.3166 0.9042 0.2866
vn -0.6640 0.5804 0.4714
vn -0.5678 -0.4341 0.6993
vn -0.8883 -0.3549 -0.2914
vn -0.7864 0.6107 0.0929
vn -0.5290 -0.0653 0.8461
vn -0.7899 -0.6132 -0.0037
vn -0.8861 0.4014 -0.2317
vn -0.5656 0.3222 0.7591
vn -0.6676 -0.6434 0.3747
vn 0.9518 0.0214 -0.3061
vn 0.4615 -0.6245 0.6301
vn -0.0214 -0.5052 -0.8627
vn 0.1321 0.9498 -0.2836
vn 0.5201 -0.0688 0.8514
vn 0.1268 -0.8942 -0.4292
vn -0.0181 0.6345 -0.7727
vn 0.4647 0.5152 0.7201
vn 0.3112 -0.9398 0.1410
vn -0.0767 0.0787 -0.9939
vn -0.2605 0.0768 -0.9624
vn 0.1380 -0.9694 0.2032
vn 0.2957 0.5250 0.7981
vn -0.2002 0.6476 -0.7352
vn -0.0514 -0.9226 -0.3824
vn 0.3525 -0.0747 0.9328
vn -0.0459 0.9714 -0.2328
vn -0.2036 -0.5230 -0.8277
vn 0.2923 -0.6455 0.7056
vn 0.1435 0.9246 0.3528
vn -0.3979 -0.8511 0.3424
vn -0.2614 0.4430 0.8575
vn -0.6908 0.5492 -0.4703
vn -0.5620 -0.8106 -0.1647
vn -0.2122 -0.0763 0.9742
vn -0.5572 0.8296 -0.0352
vn -0.6938 -0.4645 -0.5503
vn -0.2643 -0.5707 0.7775
vn -0.3932 0.7891 0.4720
vn -0.7430 0.0548 -0.6670
vn -0.7672 0.0527 -0.6393
vn -0.4298 -0.8332 0.3479
vn -0.2962 0.4323 0.8517
vn -0.7162 0.5361 -0.4468
vn -0.5902 -0.7936 -0.1481
vn -0.2481 -0.0756 0.9658
vn -0.5855 0.8104 -0.0214
vn -0.7191 -0.4552 -0.5251
vn -0.2991 -0.5590 0.7734
vn -0.4251 0.7707 0.4746
vn -0.0976 -0.9247 -0.3680
usemtl Material.007
s off
f 1/1/1 2/2/1 4/3/1 3/4/1
f 3/4/2 4/3/2 6/5/2 5/6/2
f 5/6/3 6/5/3 8/7/3 7/8/3
f 7/8/4 8/7/4 10/9/4 9/10/4
f 9/10/5 10/9/5 12/11/5 11/12/5
f 11/12/6 12/11/6 14/13/6 13/14/6
f 13/14/7 14/13/7 16/15/7 15/16/7
f 15/16/8 16/15/8 18/17/8 17/18/8
f 4/3/9 2/2/9 22/19/9 21/20/9
f 17/18/10 18/17/10 20/21/10 19/22/10
f 19/22/11 20/21/11 2/23/11 1/24/11
f 1/25/12 3/26/12 5/27/12 7/28/12 9/29/12 11/30/12 13/31/12 15/32/12 17/33/12 19/34/12
f 104/35/13 101/36/13 36/37/13 37/38/13
f 8/7/14 6/5/14 23/39/14 24/40/14
f 6/5/15 4/3/15 21/20/15 23/39/15
f 2/23/11 20/21/11 30/41/11 22/42/11
f 20/21/10 18/17/10 29/43/10 30/41/10
f 18/17/16 16/15/16 28/44/16 29/43/16
f 16/15/17 14/13/17 27/45/17 28/44/17
f 14/13/18 12/11/18 26/46/18 27/45/18
f 12/11/5 10/9/5 25/47/5 26/46/5
f 10/9/4 8/7/4 24/40/4 25/47/4
f 72/48/19 71/49/19 47/50/19 48/51/19
f 105/52/3 102/53/3 33/54/3 34/55/3
f 106/56/11 103/57/11 40/58/11 32/59/11
f 107/60/17 104/35/17 37/38/17 38/61/17
f 108/62/4 105/52/4 34/55/4 35/63/4
f 109/64/20 106/65/20 32/66/20 31/67/20
f 110/68/16 107/60/16 38/61/16 39/69/16
f 101/36/5 108/62/5 35/63/5 36/37/5
f 102/53/15 109/64/15 31/67/15 33/54/15
f 103/57/10 110/68/10 39/69/10 40/58/10
f 84/70/21 81/71/21 54/72/21 55/73/21
f 74/74/22 73/75/22 44/76/22 45/77/22
f 76/78/23 75/79/23 42/80/23 41/81/23
f 77/82/24 72/48/24 48/51/24 49/83/24
f 78/84/25 74/74/25 45/77/25 46/85/25
f 79/86/26 76/78/26 41/81/26 43/87/26
f 80/88/27 77/82/27 49/83/27 50/89/27
f 71/49/28 78/84/28 46/85/28 47/50/28
f 73/75/29 79/86/29 43/87/29 44/76/29
f 75/90/30 80/88/30 50/89/30 42/91/30
f 51/92/31 52/93/31 60/94/31 59/95/31 58/96/31 57/97/31 56/98/31 55/99/31 54/100/31 53/101/31
f 85/102/32 82/103/32 52/104/32 51/105/32
f 86/106/33 83/107/33 58/108/33 59/109/33
f 87/110/34 84/70/34 55/73/34 56/111/34
f 88/112/35 85/102/35 51/105/35 53/113/35
f 89/114/36 86/106/36 59/109/36 60/115/36
f 90/116/37 87/110/37 56/111/37 57/117/37
f 81/71/38 88/112/38 53/113/38 54/72/38
f 82/118/39 89/114/39 60/115/39 52/119/39
f 83/107/40 90/116/40 57/117/40 58/108/40
f 48/51/41 47/50/41 70/120/41 65/121/41
f 42/91/42 50/89/42 69/122/42 63/123/42
f 44/76/43 43/87/43 68/124/43 61/125/43
f 47/50/44 46/85/44 67/126/44 70/120/44
f 50/89/45 49/83/45 66/127/45 69/122/45
f 43/87/46 41/81/46 64/128/46 68/124/46
f 46/85/47 45/77/47 62/129/47 67/126/47
f 49/83/48 48/51/48 65/121/48 66/127/48
f 41/81/49 42/80/49 63/130/49 64/128/49
f 45/77/50 44/76/50 61/125/50 62/129/50
f 32/59/51 40/58/51 80/88/51 75/90/51
f 34/55/52 33/54/52 79/86/52 73/75/52
f 37/38/53 36/37/53 78/84/53 71/49/53
f 40/58/54 39/69/54 77/82/54 80/88/54
f 33/54/55 31/67/55 76/78/55 79/86/55
f 36/37/56 35/63/56 74/74/56 78/84/56
f 39/69/57 38/61/57 72/48/57 77/82/57
f 31/67/58 32/66/58 75/79/58 76/78/58
f 35/63/59 34/55/59 73/75/59 74/74/59
f 38/61/60 37/38/60 71/49/60 72/48/60
f 65/121/61 70/120/61 90/116/61 83/107/61
f 63/123/62 69/122/62 89/114/62 82/118/62
f 61/125/63 68/124/63 88/112/63 81/71/63
f 70/120/64 67/126/64 87/110/64 90/116/64
f 69/122/65 66/127/65 86/106/65 89/114/65
f 68/124/66 64/128/66 85/102/66 88/112/66
f 67/126/67 62/129/67 84/70/67 87/110/67
f 66/127/68 65/121/68 83/107/68 86/106/68
f 64/128/69 63/130/69 82/103/69 85/102/69
f 62/129/70 61/125/70 81/71/70 84/70/70
f 30/41/71 29/43/71 100/131/71 95/132/71
f 23/39/15 21/20/15 99/133/15 93/134/15
f 26/46/5 25/47/5 98/135/5 91/136/5
f 29/43/8 28/44/8 97/137/8 100/131/8
f 21/20/20 22/19/20 96/138/20 99/133/20
f 25/47/4 24/40/4 94/139/4 98/135/4
f 28/44/17 27/45/17 92/140/17 97/137/17
f 22/42/11 30/41/11 95/132/11 96/141/11
f 24/40/14 23/39/14 93/134/14 94/139/14
f 27/45/13 26/46/13 91/136/13 92/140/13
f 95/132/10 100/131/10 110/68/10 103/57/10
f 93/134/15 99/133/15 109/64/15 102/53/15
f 91/136/5 98/135/5 108/62/5 101/36/5
f 100/131/16 97/137/16 107/60/16 110/68/16
f 99/133/1 96/138/1 106/65/1 109/64/1
f 98/135/4 94/139/4 105/52/4 108/62/4
f 97/137/7 92/140/7 104/35/7 107/60/7
f 96/141/11 95/132/11 103/57/11 106/56/11
f 94/139/3 93/134/3 102/53/3 105/52/3
f 92/140/6 91/136/6 101/36/6 104/35/6
