# Blender v3.4.1 OBJ File: 'level-track.blend'
# www.blender.org
mtllib Pillar_001.mtl
o Pillar.001_Cube.013
v -188.108414 -10.787230 -214.499619
v -186.199722 -10.734635 -213.904541
v -188.235382 -10.304625 -214.135025
v -186.326691 -10.252029 -213.539932
v -188.259338 -9.687457 -214.112732
v -186.350647 -9.634862 -213.517639
v -188.171127 -9.171466 -214.441269
v -186.262436 -9.118871 -213.846191
v -188.004440 -8.953741 -214.995148
v -186.095749 -8.901147 -214.400055
v -187.822952 -9.117448 -215.562790
v -185.914261 -9.064853 -214.967712
v -187.695984 -9.600054 -215.927399
v -185.787292 -9.547459 -215.332306
v -187.672028 -10.217220 -215.949692
v -185.763336 -10.164626 -215.354599
v -187.760239 -10.733212 -215.621155
v -185.851547 -10.680617 -215.026062
v -187.926926 -10.950936 -215.067276
v -186.018234 -10.898342 -214.472183
v -185.849518 -10.238881 -213.391159
v -185.722549 -10.721487 -213.755768
v -185.873474 -9.621714 -213.368866
v -185.785263 -9.105722 -213.697418
v -185.618576 -8.887998 -214.251282
v -185.437088 -9.051704 -214.818939
v -185.310120 -9.534310 -215.183548
v -185.286163 -10.151477 -215.205826
v -185.374374 -10.667469 -214.877289
v -185.541061 -10.885193 -214.323410
v -175.179810 -9.944873 -210.064590
v -175.052841 -10.427479 -210.429184
v -175.203766 -9.327705 -210.042297
v -175.115555 -8.811714 -210.370834
v -174.948868 -8.593989 -210.924713
v -174.767380 -8.757696 -211.492355
v -174.640396 -9.240302 -211.856964
v -174.616440 -9.857470 -211.879257
v -174.704651 -10.373461 -211.550720
v -174.871338 -10.591185 -210.996841
v -174.854080 -10.069572 -209.583054
v -174.677887 -10.739252 -210.088974
v -174.887314 -9.213174 -209.552124
v -174.764908 -8.497168 -210.008011
v -174.533615 -8.195047 -210.776581
v -174.281769 -8.422211 -211.564270
v -174.105576 -9.091889 -212.070206
v -174.072342 -9.948288 -212.101135
v -174.194748 -10.664294 -211.645248
v -174.426041 -10.966414 -210.876663
v -172.528809 -10.034435 -208.775818
v -172.341965 -10.744612 -209.312347
v -172.564056 -9.126247 -208.743027
v -172.434250 -8.366945 -209.226486
v -172.188965 -8.046556 -210.041534
v -171.921890 -8.287456 -210.876846
v -171.735046 -8.997631 -211.413376
v -171.699799 -9.905819 -211.446182
v -171.829605 -10.665121 -210.962723
v -172.074890 -10.985512 -210.147675
v -173.384018 -8.516420 -209.625122
v -173.164856 -8.230165 -210.353348
v -173.301559 -10.640785 -209.701843
v -173.468491 -10.006266 -209.222473
v -172.727798 -9.891350 -211.608353
v -172.843781 -10.569763 -211.176392
v -172.926239 -8.445398 -211.099670
v -173.500000 -9.194834 -209.193176
v -173.062943 -10.856018 -210.448181
v -172.759293 -9.079919 -211.579041
v -174.334564 -9.174376 -211.925064
v -174.306610 -9.894446 -211.951065
v -174.888947 -8.674324 -210.191147
v -174.694458 -8.420300 -210.837372
v -174.815765 -10.559498 -210.259216
v -174.963913 -9.996422 -209.833832
v -174.409546 -10.496473 -211.567749
v -174.482712 -8.611300 -211.499664
v -174.991867 -9.276352 -209.807816
v -174.604019 -10.750499 -210.921524
v -173.012085 -8.269107 -209.312042
v -172.910721 -10.880469 -209.406357
v -172.205444 -9.959231 -211.749908
v -172.742691 -7.917227 -210.207214
v -173.115936 -10.100492 -208.817093
v -172.348007 -10.793167 -211.218933
v -172.449371 -8.181805 -211.124634
v -173.154648 -9.103043 -208.781067
v -172.617401 -11.145046 -210.323776
v -172.244156 -8.961782 -211.713898
v -180.795731 -8.923810 -213.371872
v -180.668762 -9.406416 -213.736465
v -181.232117 -9.493819 -211.921799
v -181.143906 -8.977828 -212.250336
v -180.899704 -10.757298 -212.876343
v -181.081192 -10.593593 -212.308701
v -180.644806 -10.023583 -213.758759
v -180.977219 -8.760103 -212.804214
v -181.208160 -10.110987 -211.944092
v -180.733017 -10.539575 -213.430222
v -179.338394 -8.883652 -212.917496
v -179.774780 -9.453662 -211.467438
v -179.442352 -10.717141 -212.421982
v -179.211411 -9.366258 -213.282104
v -179.686569 -8.937670 -211.795975
v -179.623856 -10.553435 -211.854324
v -179.187454 -9.983425 -213.304398
v -179.519882 -8.719946 -212.349854
v -179.750824 -10.070828 -211.489731
v -179.275665 -10.499417 -212.975861
vt 1.000000 0.500000
vt 1.000000 1.000000
vt 0.900000 1.000000
vt 0.900000 0.500000
vt 0.800000 1.000000
vt 0.800000 0.500000
vt 0.700000 1.000000
vt 0.700000 0.500000
vt 0.600000 1.000000
vt 0.600000 0.500000
vt 0.500000 1.000000
vt 0.500000 0.500000
vt 0.400000 1.000000
vt 0.400000 0.500000
vt 0.300000 1.000000
vt 0.300000 0.500000
vt 0.200000 1.000000
vt 0.200000 0.500000
vt 1.000000 1.000000
vt 0.900000 1.000000
vt 0.100000 1.000000
vt 0.100000 0.500000
vt -0.000000 1.000000
vt -0.000000 0.500000
vt 0.750000 0.490000
vt 0.891068 0.444164
vt 0.978254 0.324164
vt 0.978254 0.175836
vt 0.891068 0.055836
vt 0.750000 0.010000
vt 0.608932 0.055836
vt 0.521746 0.175836
vt 0.521746 0.324164
vt 0.608932 0.444164
vt 0.400000 1.000000
vt 0.500000 1.000000
vt 0.500000 1.000000
vt 0.400000 1.000000
vt 0.800000 1.000000
vt 0.700000 1.000000
vt 0.100000 1.000000
vt -0.000000 1.000000
vt 0.200000 1.000000
vt 0.300000 1.000000
vt 0.400000 1.000000
vt 0.500000 1.000000
vt 0.600000 1.000000
vt 0.300000 1.000000
vt 0.400000 1.000000
vt 0.400000 1.000000
vt 0.300000 1.000000
vt 0.700000 1.000000
vt 0.800000 1.000000
vt 0.800000 1.000000
vt 0.700000 1.000000
vt -0.000000 1.000000
vt 0.100000 1.000000
vt 0.100000 1.000000
vt -0.000000 1.000000
vt 0.300000 1.000000
vt 0.300000 1.000000
vt 0.600000 1.000000
vt 0.600000 1.000000
vt 0.900000 1.000000
vt 1.000000 1.000000
vt 1.000000 1.000000
vt 0.900000 1.000000
vt 0.200000 1.000000
vt 0.200000 1.000000
vt 0.600000 1.000000
vt 0.700000 1.000000
vt 0.700000 1.000000
vt 0.600000 1.000000
vt 0.600000 1.000000
vt 0.700000 1.000000
vt 0.700000 1.000000
vt 0.600000 1.000000
vt 0.900000 1.000000
vt 1.000000 1.000000
vt 1.000000 1.000000
vt 0.900000 1.000000
vt 0.200000 1.000000
vt 0.200000 1.000000
vt 0.500000 1.000000
vt 0.500000 1.000000
vt 0.800000 1.000000
vt 0.800000 1.000000
vt 0.100000 1.000000
vt 0.100000 1.000000
vt -0.000000 1.000000
vt -0.000000 1.000000
vt 0.391068 0.444164
vt 0.250000 0.490000
vt 0.108932 0.444164
vt 0.021746 0.324164
vt 0.021746 0.175836
vt 0.108932 0.055836
vt 0.250000 0.010000
vt 0.391068 0.055836
vt 0.478254 0.175836
vt 0.478254 0.324164
vt 0.900000 1.000000
vt 1.000000 1.000000
vt 1.000000 1.000000
vt 0.900000 1.000000
vt 0.200000 1.000000
vt 0.300000 1.000000
vt 0.300000 1.000000
vt 0.200000 1.000000
vt 0.500000 1.000000
vt 0.500000 1.000000
vt 0.800000 1.000000
vt 0.800000 1.000000
vt 0.100000 1.000000
vt 0.100000 1.000000
vt 0.400000 1.000000
vt 0.400000 1.000000
vt -0.000000 1.000000
vt -0.000000 1.000000
vt 0.400000 1.000000
vt 0.300000 1.000000
vt 0.100000 1.000000
vt -0.000000 1.000000
vt 0.800000 1.000000
vt 0.700000 1.000000
vt 0.500000 1.000000
vt 0.200000 1.000000
vt 0.900000 1.000000
vt 0.600000 1.000000
vt 1.000000 1.000000
vt 0.200000 1.000000
vt 0.100000 1.000000
vt 0.900000 1.000000
vt 0.800000 1.000000
vt 0.600000 1.000000
vt 0.500000 1.000000
vt 0.300000 1.000000
vt 1.000000 1.000000
vt 0.700000 1.000000
vt 0.400000 1.000000
vt -0.000000 1.000000
vn -0.2168 -0.6241 0.7506
vn -0.2962 -0.0460 0.9540
vn -0.2624 0.5498 0.7930
vn -0.1284 0.9355 0.3291
vn 0.0547 0.9639 -0.2605
vn 0.2168 0.6241 -0.7506
vn 0.2962 0.0460 -0.9540
vn 0.2624 -0.5498 -0.7930
vn 0.1284 -0.9355 -0.3291
vn -0.0547 -0.9639 0.2605
vn -0.9543 -0.0263 -0.2975
vn 0.2961 0.0460 -0.9540
vn -0.5379 0.0096 -0.8430
vn 0.0974 0.9159 0.3894
vn -0.8118 0.5837 -0.0149
vn -0.8689 -0.4229 0.2572
vn -0.5597 -0.3749 -0.7391
vn -0.6936 0.6021 -0.3954
vn -0.9201 -0.0498 0.3885
vn -0.6461 -0.6239 -0.4397
vn -0.5890 0.3827 -0.7118
vn -0.8983 0.3348 0.2846
vn -0.7643 -0.6422 -0.0591
vn 0.9543 0.0263 0.2975
vn 0.0114 -0.6008 0.7993
vn 0.4774 -0.5285 -0.7019
vn 0.2754 0.9435 -0.1840
vn -0.0657 -0.0386 0.9971
vn 0.3471 -0.9037 -0.2508
vn 0.4332 0.6131 -0.6607
vn -0.0329 0.5408 0.8405
vn 0.1691 -0.9313 0.3227
vn 0.5103 0.0508 -0.8585
vn 0.3420 0.0472 -0.9385
vn -0.0084 -0.9615 0.2746
vn -0.2159 0.5504 0.8065
vn 0.2627 0.6247 -0.7354
vn 0.1744 -0.9332 -0.3143
vn -0.2497 -0.0446 0.9673
vn 0.1007 0.9641 -0.2458
vn 0.3082 -0.5479 -0.7777
vn -0.1704 -0.6221 0.7641
vn -0.0821 0.9357 0.3431
vn -0.5262 -0.8470 0.0760
vn -0.7059 0.4624 0.5366
vn -0.2914 0.5267 -0.7986
vn -0.3678 -0.8224 -0.4340
vn -0.7351 -0.0529 0.6759
vn -0.4316 0.8206 -0.3747
vn -0.2519 -0.4887 -0.8353
vn -0.6664 -0.5531 0.5000
vn -0.5899 0.7960 0.1354
vn -0.2227 0.0265 -0.9745
vn -0.2585 0.0248 -0.9657
vn -0.5553 -0.8294 0.0617
vn -0.7310 0.4510 0.5121
vn -0.3256 0.5139 -0.7936
vn -0.4004 -0.8054 -0.4371
vn -0.7596 -0.0529 0.6483
vn -0.4628 0.8013 -0.3791
vn -0.2871 -0.4791 -0.8295
vn -0.6924 -0.5420 0.4763
vn -0.6176 0.7774 0.1197
vn 0.2962 0.0459 -0.9540
vn -0.2962 -0.0459 0.9540
usemtl Material.007
s off
f 1/1/1 2/2/1 4/3/1 3/4/1
f 3/4/2 4/3/2 6/5/2 5/6/2
f 5/6/3 6/5/3 8/7/3 7/8/3
f 7/8/4 8/7/4 10/9/4 9/10/4
f 9/10/5 10/9/5 12/11/5 11/12/5
f 11/12/6 12/11/6 14/13/6 13/14/6
f 13/14/7 14/13/7 16/15/7 15/16/7
f 15/16/8 16/15/8 18/17/8 17/18/8
f 4/3/1 2/2/1 22/19/1 21/20/1
f 17/18/9 18/17/9 20/21/9 19/22/9
f 19/22/10 20/21/10 2/23/10 1/24/10
f 1/25/11 3/26/11 5/27/11 7/28/11 9/29/11 11/30/11 13/31/11 15/32/11 17/33/11 19/34/11
f 104/35/6 101/36/6 36/37/6 37/38/6
f 8/7/3 6/5/3 23/39/3 24/40/3
f 6/5/2 4/3/2 21/20/2 23/39/2
f 2/23/10 20/21/10 30/41/10 22/42/10
f 20/21/9 18/17/9 29/43/9 30/41/9
f 18/17/8 16/15/8 28/44/8 29/43/8
f 16/15/12 14/13/12 27/45/12 28/44/12
f 14/13/6 12/11/6 26/46/6 27/45/6
f 12/11/5 10/9/5 25/47/5 26/46/5
f 10/9/4 8/7/4 24/40/4 25/47/4
f 72/48/13 71/49/13 47/50/13 48/51/13
f 105/52/3 102/53/3 33/54/3 34/55/3
f 106/56/10 103/57/10 40/58/10 32/59/10
f 107/60/7 104/35/7 37/38/7 38/61/7
f 108/62/4 105/52/4 34/55/4 35/63/4
f 109/64/1 106/65/1 32/66/1 31/67/1
f 110/68/8 107/60/8 38/61/8 39/69/8
f 101/36/5 108/62/5 35/63/5 36/37/5
f 102/53/2 109/64/2 31/67/2 33/54/2
f 103/57/9 110/68/9 39/69/9 40/58/9
f 84/70/14 81/71/14 54/72/14 55/73/14
f 74/74/15 73/75/15 44/76/15 45/77/15
f 76/78/16 75/79/16 42/80/16 41/81/16
f 77/82/17 72/48/17 48/51/17 49/83/17
f 78/84/18 74/74/18 45/77/18 46/85/18
f 79/86/19 76/78/19 41/81/19 43/87/19
f 80/88/20 77/82/20 49/83/20 50/89/20
f 71/49/21 78/84/21 46/85/21 47/50/21
f 73/75/22 79/86/22 43/87/22 44/76/22
f 75/90/23 80/88/23 50/89/23 42/91/23
f 51/92/24 52/93/24 60/94/24 59/95/24 58/96/24 57/97/24 56/98/24 55/99/24 54/100/24 53/101/24
f 85/102/25 82/103/25 52/104/25 51/105/25
f 86/106/26 83/107/26 58/108/26 59/109/26
f 87/110/27 84/70/27 55/73/27 56/111/27
f 88/112/28 85/102/28 51/105/28 53/113/28
f 89/114/29 86/106/29 59/109/29 60/115/29
f 90/116/30 87/110/30 56/111/30 57/117/30
f 81/71/31 88/112/31 53/113/31 54/72/31
f 82/118/32 89/114/32 60/115/32 52/119/32
f 83/107/33 90/116/33 57/117/33 58/108/33
f 48/51/34 47/50/34 70/120/34 65/121/34
f 42/91/35 50/89/35 69/122/35 63/123/35
f 44/76/36 43/87/36 68/124/36 61/125/36
f 47/50/37 46/85/37 67/126/37 70/120/37
f 50/89/38 49/83/38 66/127/38 69/122/38
f 43/87/39 41/81/39 64/128/39 68/124/39
f 46/85/40 45/77/40 62/129/40 67/126/40
f 49/83/41 48/51/41 65/121/41 66/127/41
f 41/81/42 42/80/42 63/130/42 64/128/42
f 45/77/43 44/76/43 61/125/43 62/129/43
f 32/59/44 40/58/44 80/88/44 75/90/44
f 34/55/45 33/54/45 79/86/45 73/75/45
f 37/38/46 36/37/46 78/84/46 71/49/46
f 40/58/47 39/69/47 77/82/47 80/88/47
f 33/54/48 31/67/48 76/78/48 79/86/48
f 36/37/49 35/63/49 74/74/49 78/84/49
f 39/69/50 38/61/50 72/48/50 77/82/50
f 31/67/51 32/66/51 75/79/51 76/78/51
f 35/63/52 34/55/52 73/75/52 74/74/52
f 38/61/53 37/38/53 71/49/53 72/48/53
f 65/121/54 70/120/54 90/116/54 83/107/54
f 63/123/55 69/122/55 89/114/55 82/118/55
f 61/125/56 68/124/56 88/112/56 81/71/56
f 70/120/57 67/126/57 87/110/57 90/116/57
f 69/122/58 66/127/58 86/106/58 89/114/58
f 68/124/59 64/128/59 85/102/59 88/112/59
f 67/126/60 62/129/60 84/70/60 87/110/60
f 66/127/61 65/121/61 83/107/61 86/106/61
f 64/128/62 63/130/62 82/103/62 85/102/62
f 62/129/63 61/125/63 81/71/63 84/70/63
f 30/41/9 29/43/9 100/131/9 95/132/9
f 23/39/2 21/20/2 99/133/2 93/134/2
f 26/46/5 25/47/5 98/135/5 91/136/5
f 29/43/8 28/44/8 97/137/8 100/131/8
f 21/20/1 22/19/1 96/138/1 99/133/1
f 25/47/4 24/40/4 94/139/4 98/135/4
f 28/44/64 27/45/64 92/140/64 97/137/64
f 22/42/10 30/41/10 95/132/10 96/141/10
f 24/40/3 23/39/3 93/134/3 94/139/3
f 27/45/6 26/46/6 91/136/6 92/140/6
f 95/132/9 100/131/9 110/68/9 103/57/9
f 93/134/65 99/133/65 109/64/65 102/53/65
f 91/136/5 98/135/5 108/62/5 101/36/5
f 100/131/8 97/137/8 107/60/8 110/68/8
f 99/133/1 96/138/1 106/65/1 109/64/1
f 98/135/4 94/139/4 105/52/4 108/62/4
f 97/137/7 92/140/7 104/35/7 107/60/7
f 96/141/10 95/132/10 103/57/10 106/56/10
f 94/139/3 93/134/3 102/53/3 105/52/3
f 92/140/6 91/136/6 101/36/6 104/35/6
