# Blender v3.4.1 OBJ File: 'level-track.blend'
# www.blender.org
mtllib Pillar_008.mtl
o Pillar.008_Cube.020
v -172.795135 -27.714828 -58.009289
v -174.794525 -27.719046 -57.959850
v -172.781143 -28.015299 -57.469395
v -174.780533 -28.019516 -57.419952
v -172.773529 -28.575832 -57.209183
v -174.772919 -28.580050 -57.159744
v -172.775192 -29.182325 -57.328053
v -174.774582 -29.186544 -57.278610
v -172.785492 -29.603117 -57.780594
v -174.784882 -29.607336 -57.731152
v -172.800507 -29.677481 -58.393951
v -174.799896 -29.681698 -58.344513
v -172.814484 -29.377010 -58.933849
v -174.813873 -29.381227 -58.884411
v -172.822113 -28.816475 -59.194057
v -174.821487 -28.820694 -59.144619
v -172.820450 -28.209982 -59.075191
v -174.819824 -28.214199 -59.025753
v -172.810150 -27.789190 -58.622650
v -174.809525 -27.793407 -58.573212
v -175.280380 -28.020571 -57.407593
v -175.294357 -27.720100 -57.947491
v -175.272766 -28.581104 -57.147385
v -175.274429 -29.187597 -57.266251
v -175.284729 -29.608391 -57.718792
v -175.299744 -29.682753 -58.332153
v -175.313721 -29.382282 -58.872051
v -175.321335 -28.821747 -59.132259
v -175.319672 -28.215254 -59.013393
v -175.309372 -27.794462 -58.560852
v -186.457077 -28.044147 -57.131222
v -186.471054 -27.743677 -57.671120
v -186.449463 -28.604683 -56.871014
v -186.451111 -29.211176 -56.989880
v -186.461411 -29.631968 -57.442421
v -186.476425 -29.706329 -58.055782
v -186.490417 -29.405859 -58.595680
v -186.498032 -28.845325 -58.855888
v -186.496368 -28.238832 -58.737022
v -186.486069 -27.818041 -58.284481
v -186.901337 -27.781179 -56.836246
v -186.920731 -27.364237 -57.585419
v -186.890762 -28.558992 -56.475170
v -186.893066 -29.400583 -56.640114
v -186.907364 -29.984484 -57.268074
v -186.928192 -30.087673 -58.119190
v -186.947586 -29.670731 -58.868366
v -186.958160 -28.892918 -59.229443
v -186.955856 -28.051327 -59.064499
v -186.941559 -27.467426 -58.436539
v -189.359390 -27.729237 -56.713985
v -189.379974 -27.287081 -57.508465
v -189.348190 -28.554087 -56.331074
v -189.350632 -29.446566 -56.505993
v -189.365784 -30.065779 -57.171928
v -189.387878 -30.175207 -58.074512
v -189.408447 -29.733051 -58.868996
v -189.419662 -28.908201 -59.251904
v -189.417221 -28.015722 -59.076984
v -189.402069 -27.396509 -58.411053
v -188.325546 -29.368179 -56.668381
v -188.339096 -29.921421 -57.263367
v -188.351761 -27.438751 -57.564053
v -188.333374 -27.833805 -56.854214
v -188.387222 -28.887169 -59.121754
v -188.385040 -28.089767 -58.965469
v -188.358826 -30.019196 -58.069798
v -188.323364 -28.570778 -56.512096
v -188.371506 -27.536524 -58.370480
v -188.377213 -29.624142 -58.779636
v -186.766449 -29.519958 -58.711010
v -186.775330 -28.865965 -59.014606
v -186.720596 -29.292816 -56.837467
v -186.732620 -29.783768 -57.365463
v -186.743866 -27.580631 -57.632294
v -186.727554 -27.931202 -57.002377
v -186.773407 -28.158346 -58.875919
v -186.750137 -29.870529 -58.081097
v -186.718658 -28.585197 -56.698780
v -186.761383 -27.667395 -58.347923
v -188.773193 -29.515673 -56.393845
v -188.805420 -27.143936 -57.494846
v -188.849014 -28.924395 -59.409641
v -188.789841 -30.195745 -57.125229
v -188.782822 -27.629549 -56.622276
v -188.846329 -27.944191 -59.217529
v -188.814102 -30.315929 -58.116528
v -188.770508 -28.535469 -56.201733
v -188.829681 -27.264118 -58.486145
v -188.836700 -29.830315 -58.989098
v -180.161621 -29.693008 -58.211933
v -180.175613 -29.392538 -58.751827
v -180.134659 -28.591362 -57.027161
v -180.136322 -29.197855 -57.146030
v -180.171265 -27.804718 -58.440628
v -180.156250 -27.730356 -57.827267
v -180.183228 -28.832005 -59.012039
v -180.146622 -29.618647 -57.598572
v -180.142273 -28.030827 -57.287373
v -180.181564 -28.225512 -58.893169
v -181.688217 -29.696230 -58.174183
v -181.661240 -28.594582 -56.989414
v -181.697861 -27.807940 -58.402878
v -181.702209 -29.395760 -58.714081
v -181.662903 -29.201075 -57.108280
v -181.682846 -27.733578 -57.789520
v -181.709824 -28.835224 -58.974289
v -181.673203 -29.621866 -57.560822
v -181.668869 -28.034048 -57.249622
v -181.708160 -28.228731 -58.855423
vt 1.000000 0.500000
vt 1.000000 1.000000
vt 0.900000 1.000000
vt 0.900000 0.500000
vt 0.800000 1.000000
vt 0.800000 0.500000
vt 0.700000 1.000000
vt 0.700000 0.500000
vt 0.600000 1.000000
vt 0.600000 0.500000
vt 0.500000 1.000000
vt 0.500000 0.500000
vt 0.400000 1.000000
vt 0.400000 0.500000
vt 0.300000 1.000000
vt 0.300000 0.500000
vt 0.200000 1.000000
vt 0.200000 0.500000
vt 1.000000 1.000000
vt 0.900000 1.000000
vt 0.100000 1.000000
vt 0.100000 0.500000
vt -0.000000 1.000000
vt -0.000000 0.500000
vt 0.750000 0.490000
vt 0.891068 0.444164
vt 0.978254 0.324164
vt 0.978254 0.175836
vt 0.891068 0.055836
vt 0.750000 0.010000
vt 0.608932 0.055836
vt 0.521746 0.175836
vt 0.521746 0.324164
vt 0.608932 0.444164
vt 0.400000 1.000000
vt 0.500000 1.000000
vt 0.500000 1.000000
vt 0.400000 1.000000
vt 0.800000 1.000000
vt 0.700000 1.000000
vt 0.100000 1.000000
vt -0.000000 1.000000
vt 0.200000 1.000000
vt 0.300000 1.000000
vt 0.400000 1.000000
vt 0.500000 1.000000
vt 0.600000 1.000000
vt 0.300000 1.000000
vt 0.400000 1.000000
vt 0.400000 1.000000
vt 0.300000 1.000000
vt 0.700000 1.000000
vt 0.800000 1.000000
vt 0.800000 1.000000
vt 0.700000 1.000000
vt -0.000000 1.000000
vt 0.100000 1.000000
vt 0.100000 1.000000
vt -0.000000 1.000000
vt 0.300000 1.000000
vt 0.300000 1.000000
vt 0.600000 1.000000
vt 0.600000 1.000000
vt 0.900000 1.000000
vt 1.000000 1.000000
vt 1.000000 1.000000
vt 0.900000 1.000000
vt 0.200000 1.000000
vt 0.200000 1.000000
vt 0.600000 1.000000
vt 0.700000 1.000000
vt 0.700000 1.000000
vt 0.600000 1.000000
vt 0.600000 1.000000
vt 0.700000 1.000000
vt 0.700000 1.000000
vt 0.600000 1.000000
vt 0.900000 1.000000
vt 1.000000 1.000000
vt 1.000000 1.000000
vt 0.900000 1.000000
vt 0.200000 1.000000
vt 0.200000 1.000000
vt 0.500000 1.000000
vt 0.500000 1.000000
vt 0.800000 1.000000
vt 0.800000 1.000000
vt 0.100000 1.000000
vt 0.100000 1.000000
vt -0.000000 1.000000
vt -0.000000 1.000000
vt 0.391068 0.444164
vt 0.250000 0.490000
vt 0.108932 0.444164
vt 0.021746 0.324164
vt 0.021746 0.175836
vt 0.108932 0.055836
vt 0.250000 0.010000
vt 0.391068 0.055836
vt 0.478254 0.175836
vt 0.478254 0.324164
vt 0.900000 1.000000
vt 1.000000 1.000000
vt 1.000000 1.000000
vt 0.900000 1.000000
vt 0.200000 1.000000
vt 0.300000 1.000000
vt 0.300000 1.000000
vt 0.200000 1.000000
vt 0.500000 1.000000
vt 0.500000 1.000000
vt 0.800000 1.000000
vt 0.800000 1.000000
vt 0.100000 1.000000
vt 0.100000 1.000000
vt 0.400000 1.000000
vt 0.400000 1.000000
vt -0.000000 1.000000
vt -0.000000 1.000000
vt 0.400000 1.000000
vt 0.300000 1.000000
vt 0.100000 1.000000
vt -0.000000 1.000000
vt 0.800000 1.000000
vt 0.700000 1.000000
vt 0.500000 1.000000
vt 0.200000 1.000000
vt 0.900000 1.000000
vt 0.600000 1.000000
vt 1.000000 1.000000
vt 0.200000 1.000000
vt 0.100000 1.000000
vt 0.900000 1.000000
vt 0.800000 1.000000
vt 0.600000 1.000000
vt 0.500000 1.000000
vt 0.300000 1.000000
vt 1.000000 1.000000
vt 0.700000 1.000000
vt 0.400000 1.000000
vt -0.000000 1.000000
vn 0.0102 0.8739 0.4861
vn 0.0215 0.4212 0.9067
vn 0.0247 -0.1923 0.9810
vn 0.0184 -0.7324 0.6806
vn 0.0051 -0.9927 0.1202
vn -0.0102 -0.8739 -0.4861
vn -0.0215 -0.4212 -0.9067
vn -0.0247 0.1923 -0.9810
vn -0.0184 0.7324 -0.6806
vn -0.0051 0.9927 -0.1202
vn 0.9997 0.0021 -0.0247
vn 0.7497 -0.2703 -0.6041
vn -0.2150 -0.7128 0.6676
vn 0.7754 -0.4711 0.4204
vn 0.7701 0.5656 0.2948
vn 0.7477 0.1258 -0.6520
vn 0.7669 -0.6391 0.0587
vn 0.7775 0.2735 0.5663
vn 0.7518 0.4743 -0.4582
vn 0.7570 -0.5624 -0.3326
vn 0.7795 -0.1225 0.6143
vn 0.7603 0.6423 -0.0965
vn -0.9997 -0.0021 0.0247
vn -0.2229 0.8493 0.4784
vn -0.2568 0.1866 -0.9483
vn -0.2279 -0.9659 0.1227
vn -0.2119 0.4091 0.8875
vn -0.2507 0.7118 -0.6561
vn -0.2427 -0.8503 -0.4670
vn -0.2088 -0.1875 0.9598
vn -0.2378 0.9649 -0.1112
vn -0.2538 -0.4101 -0.8760
vn -0.0699 -0.4208 -0.9045
vn -0.0534 0.9915 -0.1189
vn -0.0237 -0.1922 0.9811
vn -0.0585 -0.8729 -0.4843
vn -0.0667 0.7315 -0.6786
vn -0.0268 0.4206 0.9068
vn -0.0433 -0.9917 0.1213
vn -0.0730 0.1920 -0.9787
vn -0.0382 0.8727 0.4867
vn -0.0300 -0.7317 0.6810
vn 0.4973 0.8598 -0.1164
vn 0.5230 -0.1653 0.8362
vn 0.4929 -0.7548 -0.4328
vn 0.4858 0.6346 -0.6011
vn 0.5203 0.3654 0.7719
vn 0.5060 -0.8576 0.0916
vn 0.4803 0.1674 -0.8610
vn 0.5104 0.7569 0.4080
vn 0.5175 -0.6325 0.5763
vn 0.4830 -0.3633 -0.7967
vn 0.5150 -0.3552 -0.7801
vn 0.5289 0.8409 -0.1149
vn 0.5541 -0.1616 0.8166
vn 0.5246 -0.7381 -0.4243
vn 0.5177 0.6207 -0.5889
vn 0.5514 0.3574 0.7538
vn 0.5375 -0.8386 0.0885
vn 0.5123 0.1638 -0.8430
vn 0.5418 0.7403 0.3980
vn 0.5487 -0.6184 0.5625
usemtl Material.007
s off
f 1/1/1 2/2/1 4/3/1 3/4/1
f 3/4/2 4/3/2 6/5/2 5/6/2
f 5/6/3 6/5/3 8/7/3 7/8/3
f 7/8/4 8/7/4 10/9/4 9/10/4
f 9/10/5 10/9/5 12/11/5 11/12/5
f 11/12/6 12/11/6 14/13/6 13/14/6
f 13/14/7 14/13/7 16/15/7 15/16/7
f 15/16/8 16/15/8 18/17/8 17/18/8
f 4/3/1 2/2/1 22/19/1 21/20/1
f 17/18/9 18/17/9 20/21/9 19/22/9
f 19/22/10 20/21/10 2/23/10 1/24/10
f 1/25/11 3/26/11 5/27/11 7/28/11 9/29/11 11/30/11 13/31/11 15/32/11 17/33/11 19/34/11
f 104/35/6 101/36/6 36/37/6 37/38/6
f 8/7/3 6/5/3 23/39/3 24/40/3
f 6/5/2 4/3/2 21/20/2 23/39/2
f 2/23/10 20/21/10 30/41/10 22/42/10
f 20/21/9 18/17/9 29/43/9 30/41/9
f 18/17/8 16/15/8 28/44/8 29/43/8
f 16/15/7 14/13/7 27/45/7 28/44/7
f 14/13/6 12/11/6 26/46/6 27/45/6
f 12/11/5 10/9/5 25/47/5 26/46/5
f 10/9/4 8/7/4 24/40/4 25/47/4
f 72/48/12 71/49/12 47/50/12 48/51/12
f 105/52/3 102/53/3 33/54/3 34/55/3
f 106/56/10 103/57/10 40/58/10 32/59/10
f 107/60/7 104/35/7 37/38/7 38/61/7
f 108/62/4 105/52/4 34/55/4 35/63/4
f 109/64/1 106/65/1 32/66/1 31/67/1
f 110/68/8 107/60/8 38/61/8 39/69/8
f 101/36/5 108/62/5 35/63/5 36/37/5
f 102/53/2 109/64/2 31/67/2 33/54/2
f 103/57/9 110/68/9 39/69/9 40/58/9
f 84/70/13 81/71/13 54/72/13 55/73/13
f 74/74/14 73/75/14 44/76/14 45/77/14
f 76/78/15 75/79/15 42/80/15 41/81/15
f 77/82/16 72/48/16 48/51/16 49/83/16
f 78/84/17 74/74/17 45/77/17 46/85/17
f 79/86/18 76/78/18 41/81/18 43/87/18
f 80/88/19 77/82/19 49/83/19 50/89/19
f 71/49/20 78/84/20 46/85/20 47/50/20
f 73/75/21 79/86/21 43/87/21 44/76/21
f 75/90/22 80/88/22 50/89/22 42/91/22
f 51/92/23 52/93/23 60/94/23 59/95/23 58/96/23 57/97/23 56/98/23 55/99/23 54/100/23 53/101/23
f 85/102/24 82/103/24 52/104/24 51/105/24
f 86/106/25 83/107/25 58/108/25 59/109/25
f 87/110/26 84/70/26 55/73/26 56/111/26
f 88/112/27 85/102/27 51/105/27 53/113/27
f 89/114/28 86/106/28 59/109/28 60/115/28
f 90/116/29 87/110/29 56/111/29 57/117/29
f 81/71/30 88/112/30 53/113/30 54/72/30
f 82/118/31 89/114/31 60/115/31 52/119/31
f 83/107/32 90/116/32 57/117/32 58/108/32
f 48/51/33 47/50/33 70/120/33 65/121/33
f 42/91/34 50/89/34 69/122/34 63/123/34
f 44/76/35 43/87/35 68/124/35 61/125/35
f 47/50/36 46/85/36 67/126/36 70/120/36
f 50/89/37 49/83/37 66/127/37 69/122/37
f 43/87/38 41/81/38 64/128/38 68/124/38
f 46/85/39 45/77/39 62/129/39 67/126/39
f 49/83/40 48/51/40 65/121/40 66/127/40
f 41/81/41 42/80/41 63/130/41 64/128/41
f 45/77/42 44/76/42 61/125/42 62/129/42
f 32/59/43 40/58/43 80/88/43 75/90/43
f 34/55/44 33/54/44 79/86/44 73/75/44
f 37/38/45 36/37/45 78/84/45 71/49/45
f 40/58/46 39/69/46 77/82/46 80/88/46
f 33/54/47 31/67/47 76/78/47 79/86/47
f 36/37/48 35/63/48 74/74/48 78/84/48
f 39/69/49 38/61/49 72/48/49 77/82/49
f 31/67/50 32/66/50 75/79/50 76/78/50
f 35/63/51 34/55/51 73/75/51 74/74/51
f 38/61/52 37/38/52 71/49/52 72/48/52
f 65/121/53 70/120/53 90/116/53 83/107/53
f 63/123/54 69/122/54 89/114/54 82/118/54
f 61/125/55 68/124/55 88/112/55 81/71/55
f 70/120/56 67/126/56 87/110/56 90/116/56
f 69/122/57 66/127/57 86/106/57 89/114/57
f 68/124/58 64/128/58 85/102/58 88/112/58
f 67/126/59 62/129/59 84/70/59 87/110/59
f 66/127/60 65/121/60 83/107/60 86/106/60
f 64/128/61 63/130/61 82/103/61 85/102/61
f 62/129/62 61/125/62 81/71/62 84/70/62
f 30/41/9 29/43/9 100/131/9 95/132/9
f 23/39/2 21/20/2 99/133/2 93/134/2
f 26/46/5 25/47/5 98/135/5 91/136/5
f 29/43/8 28/44/8 97/137/8 100/131/8
f 21/20/1 22/19/1 96/138/1 99/133/1
f 25/47/4 24/40/4 94/139/4 98/135/4
f 28/44/7 27/45/7 92/140/7 97/137/7
f 22/42/10 30/41/10 95/132/10 96/141/10
f 24/40/3 23/39/3 93/134/3 94/139/3
f 27/45/6 26/46/6 91/136/6 92/140/6
f 95/132/9 100/131/9 110/68/9 103/57/9
f 93/134/2 99/133/2 109/64/2 102/53/2
f 91/136/5 98/135/5 108/62/5 101/36/5
f 100/131/8 97/137/8 107/60/8 110/68/8
f 99/133/1 96/138/1 106/65/1 109/64/1
f 98/135/4 94/139/4 105/52/4 108/62/4
f 97/137/7 92/140/7 104/35/7 107/60/7
f 96/141/10 95/132/10 103/57/10 106/56/10
f 94/139/3 93/134/3 102/53/3 105/52/3
f 92/140/6 91/136/6 101/36/6 104/35/6
