# Blender v3.4.1 OBJ File: 'level-track.blend'
# www.blender.org
mtllib Pillar_006.mtl
o Pillar.006_Cube.016
v -139.451401 -8.949894 -223.190689
v -141.242020 -8.885151 -224.079224
v -139.264404 -8.470197 -223.532578
v -141.055023 -8.405455 -224.421127
v -139.231888 -7.853363 -223.553162
v -141.022491 -7.788620 -224.441711
v -139.366257 -7.335001 -223.244598
v -141.156876 -7.270259 -224.133148
v -139.616211 -7.113110 -222.724747
v -141.406815 -7.048368 -223.613297
v -139.886246 -7.272442 -222.192154
v -141.676865 -7.207700 -223.080704
v -140.073257 -7.752140 -221.850266
v -141.863861 -7.687397 -222.738815
v -140.105774 -8.368974 -221.829666
v -141.896393 -8.304232 -222.718216
v -139.971405 -8.887335 -222.138229
v -141.762009 -8.822593 -223.026779
v -139.721451 -9.109226 -222.658096
v -141.512070 -9.044484 -223.546646
v -141.502670 -8.389269 -224.643250
v -141.689667 -8.868966 -224.301361
v -141.470154 -7.772435 -224.663849
v -141.604523 -7.254074 -224.355286
v -141.854477 -7.032182 -223.835434
v -142.124512 -7.191514 -223.302841
v -142.311508 -7.671212 -222.960953
v -142.344040 -8.288046 -222.940353
v -142.209656 -8.806407 -223.248917
v -141.959717 -9.028298 -223.768784
v -151.512314 -8.027355 -229.610306
v -151.699310 -8.507052 -229.268417
v -151.479782 -7.410522 -229.630905
v -151.614166 -6.892160 -229.322342
v -151.864105 -6.670269 -228.802475
v -152.134155 -6.829601 -228.269882
v -152.321152 -7.309299 -227.927994
v -152.353668 -7.926132 -227.907394
v -152.219299 -8.444493 -228.215958
v -151.969360 -8.666386 -228.735825
v -151.759201 -8.151931 -230.136658
v -152.018677 -8.817574 -229.662247
v -151.714066 -7.295995 -230.165237
v -151.900528 -6.576699 -229.737076
v -152.247360 -6.268797 -229.015701
v -152.622086 -6.489891 -228.276657
v -152.881577 -7.155534 -227.802246
v -152.926712 -8.011470 -227.773666
v -152.740250 -8.730764 -228.201828
v -152.393402 -9.038667 -228.923203
v -153.927917 -8.102417 -231.300262
v -154.203094 -8.808312 -230.797150
v -153.880051 -7.194719 -231.330566
v -154.077789 -6.431930 -230.876511
v -154.445602 -6.105407 -230.111511
v -154.842987 -6.339871 -229.327774
v -155.118164 -7.045767 -228.824677
v -155.166016 -7.953464 -228.794357
v -154.968277 -8.716253 -229.248428
v -154.600479 -9.042776 -230.013428
v -153.204010 -6.586917 -230.332642
v -153.532623 -6.295183 -229.649155
v -153.315948 -8.710135 -230.261749
v -153.070099 -8.079439 -230.711258
v -154.176300 -7.946354 -228.472321
v -153.999634 -8.627883 -228.878021
v -153.887680 -6.504666 -228.948914
v -153.027328 -7.268445 -230.738342
v -153.671005 -8.919618 -229.561508
v -154.133545 -7.135361 -228.499405
v -152.633316 -7.240588 -227.909180
v -152.671249 -7.960269 -227.885147
v -151.808441 -6.753895 -229.536011
v -152.100052 -6.495008 -228.929474
v -151.907776 -8.638050 -229.473099
v -151.689606 -8.078369 -229.871994
v -152.514481 -8.565062 -228.245163
v -152.415131 -6.680907 -228.308075
v -151.651657 -7.358687 -229.896027
v -152.222855 -8.823949 -228.851700
v -153.519821 -6.338261 -230.701355
v -153.657440 -8.948213 -230.614197
v -154.715012 -8.009341 -228.414551
v -153.923782 -5.979646 -229.861160
v -153.355209 -8.172937 -231.166748
v -154.497833 -8.847107 -228.913254
v -154.360229 -6.237155 -229.000397
v -153.302643 -7.176026 -231.200043
v -154.093872 -9.205722 -229.753433
v -154.662445 -7.012431 -228.447845
v -146.478729 -7.034081 -225.463516
v -146.665741 -7.513779 -225.121628
v -145.824371 -7.615002 -226.824524
v -145.958740 -7.096641 -226.515961
v -146.313934 -8.870865 -225.929459
v -146.043884 -8.711533 -226.462051
v -146.698257 -8.130612 -225.101028
v -146.208694 -6.874749 -225.996109
v -145.856888 -8.231835 -226.803940
v -146.563889 -8.648973 -225.409592
v -147.845917 -6.984649 -226.141953
v -147.191559 -7.565569 -227.502960
v -147.681122 -8.821433 -226.607895
v -148.032928 -7.464346 -225.800064
v -147.325928 -7.047208 -227.194397
v -147.411072 -8.662100 -227.140472
v -148.065445 -8.081180 -225.779465
v -147.575882 -6.825316 -226.674545
v -147.224075 -8.182403 -227.482376
v -147.931076 -8.599541 -226.088028
vt 1.000000 0.500000
vt 1.000000 1.000000
vt 0.900000 1.000000
vt 0.900000 0.500000
vt 0.800000 1.000000
vt 0.800000 0.500000
vt 0.700000 1.000000
vt 0.700000 0.500000
vt 0.600000 1.000000
vt 0.600000 0.500000
vt 0.500000 1.000000
vt 0.500000 0.500000
vt 0.400000 1.000000
vt 0.400000 0.500000
vt 0.300000 1.000000
vt 0.300000 0.500000
vt 0.200000 1.000000
vt 0.200000 0.500000
vt 1.000000 1.000000
vt 0.900000 1.000000
vt 0.100000 1.000000
vt 0.100000 0.500000
vt -0.000000 1.000000
vt -0.000000 0.500000
vt 0.750000 0.490000
vt 0.891068 0.444164
vt 0.978254 0.324164
vt 0.978254 0.175836
vt 0.891068 0.055836
vt 0.750000 0.010000
vt 0.608932 0.055836
vt 0.521746 0.175836
vt 0.521746 0.324164
vt 0.608932 0.444164
vt 0.400000 1.000000
vt 0.500000 1.000000
vt 0.500000 1.000000
vt 0.400000 1.000000
vt 0.800000 1.000000
vt 0.700000 1.000000
vt 0.100000 1.000000
vt -0.000000 1.000000
vt 0.200000 1.000000
vt 0.300000 1.000000
vt 0.400000 1.000000
vt 0.500000 1.000000
vt 0.600000 1.000000
vt 0.300000 1.000000
vt 0.400000 1.000000
vt 0.400000 1.000000
vt 0.300000 1.000000
vt 0.700000 1.000000
vt 0.800000 1.000000
vt 0.800000 1.000000
vt 0.700000 1.000000
vt -0.000000 1.000000
vt 0.100000 1.000000
vt 0.100000 1.000000
vt -0.000000 1.000000
vt 0.300000 1.000000
vt 0.300000 1.000000
vt 0.600000 1.000000
vt 0.600000 1.000000
vt 0.900000 1.000000
vt 1.000000 1.000000
vt 1.000000 1.000000
vt 0.900000 1.000000
vt 0.200000 1.000000
vt 0.200000 1.000000
vt 0.600000 1.000000
vt 0.700000 1.000000
vt 0.700000 1.000000
vt 0.600000 1.000000
vt 0.600000 1.000000
vt 0.700000 1.000000
vt 0.700000 1.000000
vt 0.600000 1.000000
vt 0.900000 1.000000
vt 1.000000 1.000000
vt 1.000000 1.000000
vt 0.900000 1.000000
vt 0.200000 1.000000
vt 0.200000 1.000000
vt 0.500000 1.000000
vt 0.500000 1.000000
vt 0.800000 1.000000
vt 0.800000 1.000000
vt 0.100000 1.000000
vt 0.100000 1.000000
vt -0.000000 1.000000
vt -0.000000 1.000000
vt 0.391068 0.444164
vt 0.250000 0.490000
vt 0.108932 0.444164
vt 0.021746 0.324164
vt 0.021746 0.175836
vt 0.108932 0.055836
vt 0.250000 0.010000
vt 0.391068 0.055836
vt 0.478254 0.175836
vt 0.478254 0.324164
vt 0.900000 1.000000
vt 1.000000 1.000000
vt 1.000000 1.000000
vt 0.900000 1.000000
vt 0.200000 1.000000
vt 0.300000 1.000000
vt 0.300000 1.000000
vt 0.200000 1.000000
vt 0.500000 1.000000
vt 0.500000 1.000000
vt 0.800000 1.000000
vt 0.800000 1.000000
vt 0.100000 1.000000
vt 0.100000 1.000000
vt 0.400000 1.000000
vt 0.400000 1.000000
vt -0.000000 1.000000
vt -0.000000 1.000000
vt 0.400000 1.000000
vt 0.300000 1.000000
vt 0.100000 1.000000
vt -0.000000 1.000000
vt 0.800000 1.000000
vt 0.700000 1.000000
vt 0.500000 1.000000
vt 0.200000 1.000000
vt 0.900000 1.000000
vt 0.600000 1.000000
vt 1.000000 1.000000
vt 0.200000 1.000000
vt 0.100000 1.000000
vt 0.900000 1.000000
vt 0.800000 1.000000
vt 0.600000 1.000000
vt 0.500000 1.000000
vt 0.300000 1.000000
vt 1.000000 1.000000
vt 0.700000 1.000000
vt 0.400000 1.000000
vt -0.000000 1.000000
vn 0.3269 -0.6297 -0.7047
vn 0.4423 -0.0532 -0.8953
vn 0.3888 0.5436 -0.7439
vn 0.1867 0.9328 -0.3084
vn -0.0866 0.9657 0.2450
vn -0.3269 0.6297 0.7047
vn -0.4423 0.0532 0.8953
vn -0.3888 -0.5436 0.7439
vn -0.1867 -0.9328 0.3083
vn 0.0866 -0.9657 -0.2450
vn 0.8953 -0.0324 0.4443
vn 0.4424 -0.0532 -0.8953
vn 0.0867 -0.9656 -0.2450
vn 0.3983 0.0096 0.9172
vn 0.1867 0.9328 -0.3083
vn -0.0269 0.9146 -0.4034
vn 0.8044 0.5773 0.1403
vn 0.8949 -0.4312 -0.1155
vn 0.4329 -0.3756 0.8195
vn 0.6280 0.5985 0.4975
vn 0.9693 -0.0591 -0.2385
vn 0.5634 -0.6267 0.5384
vn 0.4728 0.3817 0.7942
vn 0.9348 0.3261 -0.1407
vn 0.7398 -0.6480 0.1813
vn -0.8953 0.0324 -0.4443
vn 0.1094 -0.6048 -0.7888
vn -0.5866 -0.5211 0.6199
vn -0.2928 0.9466 0.1347
vn 0.2216 -0.0442 -0.9741
vn -0.3901 -0.8996 0.1964
vn -0.5265 0.6199 0.5818
vn 0.1696 0.5362 -0.8269
vn -0.1243 -0.9316 -0.3417
vn -0.6387 0.0593 0.7672
vn -0.4851 0.0547 0.8727
vn 0.0432 -0.9630 -0.2662
vn 0.3450 0.5445 -0.7645
vn -0.3698 0.6305 0.6824
vn -0.2298 -0.9301 0.2865
vn 0.3985 -0.0516 -0.9157
vn -0.1298 0.9661 0.2232
vn -0.4316 -0.5414 0.7215
vn 0.2833 -0.6274 -0.7254
vn 0.1432 0.9332 -0.3295
vn 0.5242 -0.8515 0.0111
vn 0.7855 0.4540 -0.4205
vn 0.1665 0.5284 0.8325
vn 0.2878 -0.8230 0.4897
vn 0.8319 -0.0623 -0.5515
vn 0.3743 0.8190 0.4348
vn 0.1129 -0.4864 0.8664
vn 0.7321 -0.5609 -0.3866
vn 0.6108 0.7906 -0.0438
vn 0.0667 0.0298 0.9973
vn 0.1034 0.0278 0.9943
vn 0.5508 -0.8341 0.0298
vn 0.8064 0.4426 -0.3923
vn 0.2010 0.5154 0.8331
vn 0.3196 -0.8063 0.4978
vn 0.8517 -0.0623 -0.5203
vn 0.4043 0.7996 0.4442
vn 0.1487 -0.4771 0.8662
vn 0.7540 -0.5499 -0.3591
vn 0.6355 0.7718 -0.0239
usemtl Material.007
s off
f 1/1/1 2/2/1 4/3/1 3/4/1
f 3/4/2 4/3/2 6/5/2 5/6/2
f 5/6/3 6/5/3 8/7/3 7/8/3
f 7/8/4 8/7/4 10/9/4 9/10/4
f 9/10/5 10/9/5 12/11/5 11/12/5
f 11/12/6 12/11/6 14/13/6 13/14/6
f 13/14/7 14/13/7 16/15/7 15/16/7
f 15/16/8 16/15/8 18/17/8 17/18/8
f 4/3/1 2/2/1 22/19/1 21/20/1
f 17/18/9 18/17/9 20/21/9 19/22/9
f 19/22/10 20/21/10 2/23/10 1/24/10
f 1/25/11 3/26/11 5/27/11 7/28/11 9/29/11 11/30/11 13/31/11 15/32/11 17/33/11 19/34/11
f 104/35/6 101/36/6 36/37/6 37/38/6
f 8/7/3 6/5/3 23/39/3 24/40/3
f 6/5/12 4/3/12 21/20/12 23/39/12
f 2/23/13 20/21/13 30/41/13 22/42/13
f 20/21/9 18/17/9 29/43/9 30/41/9
f 18/17/8 16/15/8 28/44/8 29/43/8
f 16/15/7 14/13/7 27/45/7 28/44/7
f 14/13/6 12/11/6 26/46/6 27/45/6
f 12/11/5 10/9/5 25/47/5 26/46/5
f 10/9/4 8/7/4 24/40/4 25/47/4
f 72/48/14 71/49/14 47/50/14 48/51/14
f 105/52/3 102/53/3 33/54/3 34/55/3
f 106/56/10 103/57/10 40/58/10 32/59/10
f 107/60/7 104/35/7 37/38/7 38/61/7
f 108/62/15 105/52/15 34/55/15 35/63/15
f 109/64/1 106/65/1 32/66/1 31/67/1
f 110/68/8 107/60/8 38/61/8 39/69/8
f 101/36/5 108/62/5 35/63/5 36/37/5
f 102/53/2 109/64/2 31/67/2 33/54/2
f 103/57/9 110/68/9 39/69/9 40/58/9
f 84/70/16 81/71/16 54/72/16 55/73/16
f 74/74/17 73/75/17 44/76/17 45/77/17
f 76/78/18 75/79/18 42/80/18 41/81/18
f 77/82/19 72/48/19 48/51/19 49/83/19
f 78/84/20 74/74/20 45/77/20 46/85/20
f 79/86/21 76/78/21 41/81/21 43/87/21
f 80/88/22 77/82/22 49/83/22 50/89/22
f 71/49/23 78/84/23 46/85/23 47/50/23
f 73/75/24 79/86/24 43/87/24 44/76/24
f 75/90/25 80/88/25 50/89/25 42/91/25
f 51/92/26 52/93/26 60/94/26 59/95/26 58/96/26 57/97/26 56/98/26 55/99/26 54/100/26 53/101/26
f 85/102/27 82/103/27 52/104/27 51/105/27
f 86/106/28 83/107/28 58/108/28 59/109/28
f 87/110/29 84/70/29 55/73/29 56/111/29
f 88/112/30 85/102/30 51/105/30 53/113/30
f 89/114/31 86/106/31 59/109/31 60/115/31
f 90/116/32 87/110/32 56/111/32 57/117/32
f 81/71/33 88/112/33 53/113/33 54/72/33
f 82/118/34 89/114/34 60/115/34 52/119/34
f 83/107/35 90/116/35 57/117/35 58/108/35
f 48/51/36 47/50/36 70/120/36 65/121/36
f 42/91/37 50/89/37 69/122/37 63/123/37
f 44/76/38 43/87/38 68/124/38 61/125/38
f 47/50/39 46/85/39 67/126/39 70/120/39
f 50/89/40 49/83/40 66/127/40 69/122/40
f 43/87/41 41/81/41 64/128/41 68/124/41
f 46/85/42 45/77/42 62/129/42 67/126/42
f 49/83/43 48/51/43 65/121/43 66/127/43
f 41/81/44 42/80/44 63/130/44 64/128/44
f 45/77/45 44/76/45 61/125/45 62/129/45
f 32/59/46 40/58/46 80/88/46 75/90/46
f 34/55/47 33/54/47 79/86/47 73/75/47
f 37/38/48 36/37/48 78/84/48 71/49/48
f 40/58/49 39/69/49 77/82/49 80/88/49
f 33/54/50 31/67/50 76/78/50 79/86/50
f 36/37/51 35/63/51 74/74/51 78/84/51
f 39/69/52 38/61/52 72/48/52 77/82/52
f 31/67/53 32/66/53 75/79/53 76/78/53
f 35/63/54 34/55/54 73/75/54 74/74/54
f 38/61/55 37/38/55 71/49/55 72/48/55
f 65/121/56 70/120/56 90/116/56 83/107/56
f 63/123/57 69/122/57 89/114/57 82/118/57
f 61/125/58 68/124/58 88/112/58 81/71/58
f 70/120/59 67/126/59 87/110/59 90/116/59
f 69/122/60 66/127/60 86/106/60 89/114/60
f 68/124/61 64/128/61 85/102/61 88/112/61
f 67/126/62 62/129/62 84/70/62 87/110/62
f 66/127/63 65/121/63 83/107/63 86/106/63
f 64/128/64 63/130/64 82/103/64 85/102/64
f 62/129/65 61/125/65 81/71/65 84/70/65
f 30/41/9 29/43/9 100/131/9 95/132/9
f 23/39/2 21/20/2 99/133/2 93/134/2
f 26/46/5 25/47/5 98/135/5 91/136/5
f 29/43/8 28/44/8 97/137/8 100/131/8
f 21/20/1 22/19/1 96/138/1 99/133/1
f 25/47/4 24/40/4 94/139/4 98/135/4
f 28/44/7 27/45/7 92/140/7 97/137/7
f 22/42/10 30/41/10 95/132/10 96/141/10
f 24/40/3 23/39/3 93/134/3 94/139/3
f 27/45/6 26/46/6 91/136/6 92/140/6
f 95/132/9 100/131/9 110/68/9 103/57/9
f 93/134/2 99/133/2 109/64/2 102/53/2
f 91/136/5 98/135/5 108/62/5 101/36/5
f 100/131/8 97/137/8 107/60/8 110/68/8
f 99/133/1 96/138/1 106/65/1 109/64/1
f 98/135/4 94/139/4 105/52/4 108/62/4
f 97/137/7 92/140/7 104/35/7 107/60/7
f 96/141/10 95/132/10 103/57/10 106/56/10
f 94/139/3 93/134/3 102/53/3 105/52/3
f 92/140/6 91/136/6 101/36/6 104/35/6
