# Blender v3.4.1 OBJ File: 'level-track.blend'
# www.blender.org
mtllib Pillar_007.mtl
o Pillar.007_Cube.019
v -31.078711 -6.626898 -327.770081
v -32.304520 -6.622384 -329.350372
v -30.792812 -6.125219 -327.990417
v -32.018623 -6.120705 -329.570709
v -30.794224 -5.507193 -327.987549
v -32.020035 -5.502679 -329.567841
v -31.082405 -5.008885 -327.762573
v -32.308216 -5.004371 -329.342896
v -31.547281 -4.820632 -327.401459
v -32.773090 -4.816118 -328.981750
v -32.011284 -5.014340 -327.042084
v -33.237095 -5.009827 -328.622406
v -32.297184 -5.516019 -326.821747
v -33.522995 -5.511506 -328.402069
v -32.295773 -6.134045 -326.824615
v -33.521584 -6.129531 -328.404938
v -32.007591 -6.632353 -327.049591
v -33.233402 -6.627839 -328.629883
v -31.542715 -6.820606 -327.410706
v -32.768524 -6.816092 -328.991028
v -32.325073 -6.119576 -329.965790
v -32.610973 -6.621255 -329.745453
v -32.326485 -5.501551 -329.962921
v -32.614670 -5.003243 -329.737976
v -33.079544 -4.814990 -329.376831
v -33.543549 -5.008698 -329.017487
v -33.829445 -5.510377 -328.797150
v -33.828037 -6.128403 -328.799988
v -33.539856 -6.626710 -329.024963
v -33.074978 -6.814963 -329.386108
v -39.177437 -6.094343 -338.799805
v -39.463333 -6.596022 -338.579468
v -39.178848 -5.476317 -338.796936
v -39.467030 -4.978010 -338.571991
v -39.931904 -4.789757 -338.210846
v -40.395908 -4.983465 -337.851501
v -40.681808 -5.485144 -337.631165
v -40.680397 -6.103169 -337.634033
v -40.392216 -6.601478 -337.858978
v -39.927338 -6.789731 -338.220123
v -39.162201 -6.211398 -339.382568
v -39.558922 -6.907543 -339.076813
v -39.164158 -5.353808 -339.378601
v -39.564049 -4.662339 -339.066437
v -40.209122 -4.401115 -338.565308
v -40.852989 -4.669909 -338.066650
v -41.249710 -5.366054 -337.760895
v -41.247753 -6.223644 -337.764862
v -40.847862 -6.915112 -338.077026
v -40.202789 -7.176337 -338.578156
v -40.606964 -6.231404 -341.375549
v -41.027676 -6.969646 -341.051300
v -40.609039 -5.321952 -341.371338
v -41.033112 -4.588673 -341.040283
v -41.717197 -4.311651 -340.508881
v -42.400002 -4.596700 -339.980042
v -42.820709 -5.334942 -339.655823
v -42.818634 -6.244393 -339.660034
v -42.394562 -6.977673 -339.991058
v -41.710480 -7.254695 -340.522491
v -40.474987 -4.718250 -340.171387
v -41.086193 -4.470742 -339.696564
v -40.470127 -6.845569 -340.181213
v -40.094238 -6.185973 -340.470917
v -42.070290 -6.197578 -338.938171
v -41.691395 -6.852741 -339.233948
v -41.696255 -4.725421 -339.224091
v -40.096092 -5.373413 -340.467163
v -41.080189 -7.100248 -339.708740
v -42.072144 -5.385017 -338.934418
v -40.974758 -5.433740 -337.749725
v -40.973114 -6.154812 -337.753052
v -39.557430 -4.842046 -338.847412
v -40.099819 -4.622406 -338.426056
v -39.553120 -6.729841 -338.856140
v -39.219551 -6.144513 -339.113220
v -40.636879 -6.736207 -338.015533
v -40.641190 -4.848412 -338.006775
v -39.221199 -5.423441 -339.109894
v -40.094490 -6.955847 -338.436859
v -40.614189 -4.472563 -340.638031
v -40.608219 -7.087558 -340.650146
v -42.575207 -6.291019 -339.122131
v -41.365509 -4.168314 -340.054382
v -40.146156 -6.276756 -341.006226
v -42.109451 -7.096375 -339.485687
v -42.115425 -4.481380 -339.473602
v -40.148438 -5.277919 -341.001617
v -41.358131 -7.400624 -340.069336
v -42.577484 -5.292182 -339.117493
v -36.524345 -4.997722 -332.860291
v -36.810242 -5.499401 -332.639954
v -35.307281 -5.490574 -333.805756
v -35.595463 -4.992266 -333.580780
v -36.055775 -6.803987 -333.228912
v -35.591770 -6.610279 -333.588287
v -36.808830 -6.117426 -332.642822
v -36.060341 -4.804013 -333.219666
v -35.305870 -6.108600 -333.808624
v -36.520649 -6.615734 -332.867798
v -37.460289 -4.994275 -334.066895
v -36.243225 -5.487128 -335.012360
v -36.991718 -6.800540 -334.435516
v -37.746185 -5.495954 -333.846588
v -36.531406 -4.988820 -334.787415
v -36.527714 -6.606833 -334.794891
v -37.744774 -6.113979 -333.849426
v -36.996284 -4.800567 -334.426270
v -36.241814 -6.105154 -335.015228
v -37.456593 -6.612288 -334.074402
vt 1.000000 0.500000
vt 1.000000 1.000000
vt 0.900000 1.000000
vt 0.900000 0.500000
vt 0.800000 1.000000
vt 0.800000 0.500000
vt 0.700000 1.000000
vt 0.700000 0.500000
vt 0.600000 1.000000
vt 0.600000 0.500000
vt 0.500000 1.000000
vt 0.500000 0.500000
vt 0.400000 1.000000
vt 0.400000 0.500000
vt 0.300000 1.000000
vt 0.300000 0.500000
vt 0.200000 1.000000
vt 0.200000 0.500000
vt 1.000000 1.000000
vt 0.900000 1.000000
vt 0.100000 1.000000
vt 0.100000 0.500000
vt -0.000000 1.000000
vt -0.000000 0.500000
vt 0.750000 0.490000
vt 0.891068 0.444164
vt 0.978254 0.324164
vt 0.978254 0.175836
vt 0.891068 0.055836
vt 0.750000 0.010000
vt 0.608932 0.055836
vt 0.521746 0.175836
vt 0.521746 0.324164
vt 0.608932 0.444164
vt 0.400000 1.000000
vt 0.500000 1.000000
vt 0.500000 1.000000
vt 0.400000 1.000000
vt 0.800000 1.000000
vt 0.700000 1.000000
vt 0.100000 1.000000
vt -0.000000 1.000000
vt 0.200000 1.000000
vt 0.300000 1.000000
vt 0.400000 1.000000
vt 0.500000 1.000000
vt 0.600000 1.000000
vt 0.300000 1.000000
vt 0.400000 1.000000
vt 0.400000 1.000000
vt 0.300000 1.000000
vt 0.700000 1.000000
vt 0.800000 1.000000
vt 0.800000 1.000000
vt 0.700000 1.000000
vt -0.000000 1.000000
vt 0.100000 1.000000
vt 0.100000 1.000000
vt -0.000000 1.000000
vt 0.300000 1.000000
vt 0.300000 1.000000
vt 0.600000 1.000000
vt 0.600000 1.000000
vt 0.900000 1.000000
vt 1.000000 1.000000
vt 1.000000 1.000000
vt 0.900000 1.000000
vt 0.200000 1.000000
vt 0.200000 1.000000
vt 0.600000 1.000000
vt 0.700000 1.000000
vt 0.700000 1.000000
vt 0.600000 1.000000
vt 0.600000 1.000000
vt 0.700000 1.000000
vt 0.700000 1.000000
vt 0.600000 1.000000
vt 0.900000 1.000000
vt 1.000000 1.000000
vt 1.000000 1.000000
vt 0.900000 1.000000
vt 0.200000 1.000000
vt 0.200000 1.000000
vt 0.500000 1.000000
vt 0.500000 1.000000
vt 0.800000 1.000000
vt 0.800000 1.000000
vt 0.100000 1.000000
vt 0.100000 1.000000
vt -0.000000 1.000000
vt -0.000000 1.000000
vt 0.391068 0.444164
vt 0.250000 0.490000
vt 0.108932 0.444164
vt 0.021746 0.324164
vt 0.021746 0.175836
vt 0.108932 0.055836
vt 0.250000 0.010000
vt 0.391068 0.055836
vt 0.478254 0.175836
vt 0.478254 0.324164
vt 0.900000 1.000000
vt 1.000000 1.000000
vt 1.000000 1.000000
vt 0.900000 1.000000
vt 0.200000 1.000000
vt 0.300000 1.000000
vt 0.300000 1.000000
vt 0.200000 1.000000
vt 0.500000 1.000000
vt 0.500000 1.000000
vt 0.800000 1.000000
vt 0.800000 1.000000
vt 0.100000 1.000000
vt 0.100000 1.000000
vt 0.400000 1.000000
vt 0.400000 1.000000
vt -0.000000 1.000000
vt -0.000000 1.000000
vt 0.400000 1.000000
vt 0.300000 1.000000
vt 0.100000 1.000000
vt -0.000000 1.000000
vt 0.800000 1.000000
vt 0.700000 1.000000
vt 0.500000 1.000000
vt 0.200000 1.000000
vt 0.900000 1.000000
vt 0.600000 1.000000
vt 1.000000 1.000000
vt 0.200000 1.000000
vt 0.100000 1.000000
vt 0.900000 1.000000
vt 0.800000 1.000000
vt 0.600000 1.000000
vt 0.500000 1.000000
vt 0.300000 1.000000
vt 1.000000 1.000000
vt 0.700000 1.000000
vt 0.400000 1.000000
vt -0.000000 1.000000
vn 0.6406 -0.5840 -0.4986
vn 0.7902 0.0047 -0.6129
vn 0.6379 0.5915 -0.4931
vn 0.2420 0.9525 -0.1850
vn -0.2463 0.9496 0.1938
vn -0.6406 0.5840 0.4986
vn -0.7902 -0.0047 0.6129
vn -0.6379 -0.5915 0.4931
vn -0.2420 -0.9525 0.1850
vn 0.2463 -0.9496 -0.1938
vn 0.6129 -0.0023 0.7902
vn 0.2464 -0.9496 -0.1938
vn -0.7902 -0.0046 0.6129
vn -0.2464 0.9496 0.1938
vn -0.0417 -0.0047 0.9991
vn 0.7902 0.0046 -0.6129
vn 0.0926 0.9268 -0.3639
vn 0.6243 0.6130 0.4841
vn 0.8816 -0.3787 0.2818
vn 0.0564 -0.3835 0.9218
vn 0.3091 0.6112 0.7286
vn 0.9781 0.0013 0.2079
vn 0.3120 -0.6165 0.7229
vn 0.0547 0.3752 0.9253
vn 0.8799 0.3800 0.2852
vn 0.6271 -0.6146 0.4785
vn -0.6129 0.0023 -0.7902
vn 0.4802 -0.5674 -0.6689
vn -0.7631 -0.5747 0.2955
vn -0.3823 0.9240 0.0044
vn 0.6257 0.0050 -0.7801
vn -0.3781 -0.9258 -0.0041
vn -0.7657 0.5685 0.3008
vn 0.4776 0.5758 -0.6636
vn 0.0968 -0.9230 -0.3725
vn -0.9112 -0.0040 0.4120
vn -0.8189 -0.0045 0.5740
vn 0.2164 -0.9484 -0.2318
vn 0.6075 0.5909 -0.5308
vn -0.6695 0.5834 0.4598
vn -0.2714 -0.9513 0.1466
vn 0.7596 0.0047 -0.6504
vn -0.2757 0.9486 0.1554
vn -0.6668 -0.5907 0.4543
vn 0.6102 -0.5832 -0.5362
vn 0.2121 0.9515 -0.2230
vn 0.5207 -0.8225 0.2289
vn 0.8593 0.5105 -0.0300
vn -0.2465 0.5040 0.8278
vn 0.0983 -0.8250 0.5565
vn 0.9910 0.0029 -0.1336
vn 0.0945 0.8202 0.5641
vn -0.2442 -0.5128 0.8230
vn 0.8617 -0.5062 -0.0347
vn 0.5169 0.8227 0.2365
vn -0.3759 -0.0051 0.9266
vn -0.3415 -0.0051 0.9399
vn 0.5353 -0.8045 0.2575
vn 0.8665 0.4992 0.0043
vn -0.2149 0.4928 0.8432
vn 0.1222 -0.8069 0.5779
vn 0.9953 0.0027 -0.0970
vn 0.1185 0.8021 0.5854
vn -0.2127 -0.5016 0.8386
vn 0.8688 -0.4952 -0.0003
vn 0.5316 0.8045 0.2650
vn 0.7901 0.0046 -0.6129
usemtl Material.007
s off
f 1/1/1 2/2/1 4/3/1 3/4/1
f 3/4/2 4/3/2 6/5/2 5/6/2
f 5/6/3 6/5/3 8/7/3 7/8/3
f 7/8/4 8/7/4 10/9/4 9/10/4
f 9/10/5 10/9/5 12/11/5 11/12/5
f 11/12/6 12/11/6 14/13/6 13/14/6
f 13/14/7 14/13/7 16/15/7 15/16/7
f 15/16/8 16/15/8 18/17/8 17/18/8
f 4/3/1 2/2/1 22/19/1 21/20/1
f 17/18/9 18/17/9 20/21/9 19/22/9
f 19/22/10 20/21/10 2/23/10 1/24/10
f 1/25/11 3/26/11 5/27/11 7/28/11 9/29/11 11/30/11 13/31/11 15/32/11 17/33/11 19/34/11
f 104/35/6 101/36/6 36/37/6 37/38/6
f 8/7/3 6/5/3 23/39/3 24/40/3
f 6/5/2 4/3/2 21/20/2 23/39/2
f 2/23/12 20/21/12 30/41/12 22/42/12
f 20/21/9 18/17/9 29/43/9 30/41/9
f 18/17/8 16/15/8 28/44/8 29/43/8
f 16/15/13 14/13/13 27/45/13 28/44/13
f 14/13/6 12/11/6 26/46/6 27/45/6
f 12/11/14 10/9/14 25/47/14 26/46/14
f 10/9/4 8/7/4 24/40/4 25/47/4
f 72/48/15 71/49/15 47/50/15 48/51/15
f 105/52/3 102/53/3 33/54/3 34/55/3
f 106/56/10 103/57/10 40/58/10 32/59/10
f 107/60/13 104/35/13 37/38/13 38/61/13
f 108/62/4 105/52/4 34/55/4 35/63/4
f 109/64/1 106/65/1 32/66/1 31/67/1
f 110/68/8 107/60/8 38/61/8 39/69/8
f 101/36/5 108/62/5 35/63/5 36/37/5
f 102/53/16 109/64/16 31/67/16 33/54/16
f 103/57/9 110/68/9 39/69/9 40/58/9
f 84/70/17 81/71/17 54/72/17 55/73/17
f 74/74/18 73/75/18 44/76/18 45/77/18
f 76/78/19 75/79/19 42/80/19 41/81/19
f 77/82/20 72/48/20 48/51/20 49/83/20
f 78/84/21 74/74/21 45/77/21 46/85/21
f 79/86/22 76/78/22 41/81/22 43/87/22
f 80/88/23 77/82/23 49/83/23 50/89/23
f 71/49/24 78/84/24 46/85/24 47/50/24
f 73/75/25 79/86/25 43/87/25 44/76/25
f 75/90/26 80/88/26 50/89/26 42/91/26
f 51/92/27 52/93/27 60/94/27 59/95/27 58/96/27 57/97/27 56/98/27 55/99/27 54/100/27 53/101/27
f 85/102/28 82/103/28 52/104/28 51/105/28
f 86/106/29 83/107/29 58/108/29 59/109/29
f 87/110/30 84/70/30 55/73/30 56/111/30
f 88/112/31 85/102/31 51/105/31 53/113/31
f 89/114/32 86/106/32 59/109/32 60/115/32
f 90/116/33 87/110/33 56/111/33 57/117/33
f 81/71/34 88/112/34 53/113/34 54/72/34
f 82/118/35 89/114/35 60/115/35 52/119/35
f 83/107/36 90/116/36 57/117/36 58/108/36
f 48/51/37 47/50/37 70/120/37 65/121/37
f 42/91/38 50/89/38 69/122/38 63/123/38
f 44/76/39 43/87/39 68/124/39 61/125/39
f 47/50/40 46/85/40 67/126/40 70/120/40
f 50/89/41 49/83/41 66/127/41 69/122/41
f 43/87/42 41/81/42 64/128/42 68/124/42
f 46/85/43 45/77/43 62/129/43 67/126/43
f 49/83/44 48/51/44 65/121/44 66/127/44
f 41/81/45 42/80/45 63/130/45 64/128/45
f 45/77/46 44/76/46 61/125/46 62/129/46
f 32/59/47 40/58/47 80/88/47 75/90/47
f 34/55/48 33/54/48 79/86/48 73/75/48
f 37/38/49 36/37/49 78/84/49 71/49/49
f 40/58/50 39/69/50 77/82/50 80/88/50
f 33/54/51 31/67/51 76/78/51 79/86/51
f 36/37/52 35/63/52 74/74/52 78/84/52
f 39/69/53 38/61/53 72/48/53 77/82/53
f 31/67/54 32/66/54 75/79/54 76/78/54
f 35/63/55 34/55/55 73/75/55 74/74/55
f 38/61/56 37/38/56 71/49/56 72/48/56
f 65/121/57 70/120/57 90/116/57 83/107/57
f 63/123/58 69/122/58 89/114/58 82/118/58
f 61/125/59 68/124/59 88/112/59 81/71/59
f 70/120/60 67/126/60 87/110/60 90/116/60
f 69/122/61 66/127/61 86/106/61 89/114/61
f 68/124/62 64/128/62 85/102/62 88/112/62
f 67/126/63 62/129/63 84/70/63 87/110/63
f 66/127/64 65/121/64 83/107/64 86/106/64
f 64/128/65 63/130/65 82/103/65 85/102/65
f 62/129/66 61/125/66 81/71/66 84/70/66
f 30/41/9 29/43/9 100/131/9 95/132/9
f 23/39/16 21/20/16 99/133/16 93/134/16
f 26/46/5 25/47/5 98/135/5 91/136/5
f 29/43/8 28/44/8 97/137/8 100/131/8
f 21/20/1 22/19/1 96/138/1 99/133/1
f 25/47/4 24/40/4 94/139/4 98/135/4
f 28/44/13 27/45/13 92/140/13 97/137/13
f 22/42/10 30/41/10 95/132/10 96/141/10
f 24/40/3 23/39/3 93/134/3 94/139/3
f 27/45/6 26/46/6 91/136/6 92/140/6
f 95/132/9 100/131/9 110/68/9 103/57/9
f 93/134/67 99/133/67 109/64/67 102/53/67
f 91/136/5 98/135/5 108/62/5 101/36/5
f 100/131/8 97/137/8 107/60/8 110/68/8
f 99/133/1 96/138/1 106/65/1 109/64/1
f 98/135/4 94/139/4 105/52/4 108/62/4
f 97/137/13 92/140/13 104/35/13 107/60/13
f 96/141/10 95/132/10 103/57/10 106/56/10
f 94/139/3 93/134/3 102/53/3 105/52/3
f 92/140/6 91/136/6 101/36/6 104/35/6
